NotoSansMyanmarUI-CondensedSemiBold.ufo
<glyph name="question" format="2">
  <advance width="369"/>
  <unicode hex="003F"/>
  <outline>
    <contour>
      <point x="104" y="396" type="line"/>
      <point x="212" y="396" type="line"/>
      <point x="213" y="402" type="line" smooth="yes"/>
      <point x="215" y="413"/>
      <point x="218" y="431"/>
      <point x="264" y="473" type="curve" smooth="yes"/>
      <point x="323" y="527"/>
      <point x="353" y="568"/>
      <point x="353" y="646" type="curve" smooth="yes"/>
      <point x="353" y="742"/>
      <point x="290" y="801"/>
      <point x="172" y="801" type="curve" smooth="yes"/>
      <point x="115" y="801"/>
      <point x="60" y="783"/>
      <point x="5" y="747" type="curve"/>
      <point x="49" y="655" type="line"/>
      <point x="90" y="681"/>
      <point x="125" y="695"/>
      <point x="161" y="695" type="curve" smooth="yes"/>
      <point x="203" y="695"/>
      <point x="225" y="675"/>
      <point x="225" y="635" type="curve" smooth="yes"/>
      <point x="225" y="595"/>
      <point x="210" y="569"/>
      <point x="166" y="529" type="curve" smooth="yes"/>
      <point x="120" y="487"/>
      <point x="104" y="445"/>
      <point x="104" y="403" type="curve" smooth="yes"/>
    </contour>
    <contour>
      <point x="162" y="140" type="curve" smooth="yes"/>
      <point x="222" y="140"/>
      <point x="265" y="178"/>
      <point x="265" y="245" type="curve" smooth="yes"/>
      <point x="265" y="306"/>
      <point x="224" y="346"/>
      <point x="162" y="346" type="curve" smooth="yes"/>
      <point x="102" y="346"/>
      <point x="61" y="308"/>
      <point x="61" y="244" type="curve" smooth="yes"/>
      <point x="61" y="177"/>
      <point x="102" y="140"/>
    </contour>
    <contour>
      <point x="164" y="203" type="curve" smooth="yes"/>
      <point x="141" y="203"/>
      <point x="130" y="218"/>
      <point x="130" y="244" type="curve" smooth="yes"/>
      <point x="130" y="270"/>
      <point x="145" y="284"/>
      <point x="164" y="284" type="curve" smooth="yes"/>
      <point x="183" y="284"/>
      <point x="196" y="270"/>
      <point x="196" y="244" type="curve" smooth="yes"/>
      <point x="196" y="218"/>
      <point x="183" y="203"/>
    </contour>
  </outline>
</glyph>
<glyph name="ka" format="2">
  <advance width="837"/>
  <unicode hex="1000"/>
  <note>
ka
</note>
  <outline>
    <contour>
      <point x="148" y="140" type="curve"/>
      <point x="211" y="232" type="line"/>
      <point x="175" y="276"/>
      <point x="167" y="325"/>
      <point x="167" y="389" type="curve" smooth="yes"/>
      <point x="167" y="486"/>
      <point x="196" y="548"/>
      <point x="262" y="548" type="curve" smooth="yes"/>
      <point x="328" y="548"/>
      <point x="358" y="487"/>
      <point x="358" y="389" type="curve" smooth="yes"/>
      <point x="358" y="326"/>
      <point x="346" y="272"/>
      <point x="300" y="232" type="curve"/>
      <point x="363" y="140" type="line"/>
      <point x="439" y="188"/>
      <point x="475" y="274"/>
      <point x="475" y="390" type="curve" smooth="yes"/>
      <point x="475" y="541"/>
      <point x="400" y="647"/>
      <point x="257" y="647" type="curve" smooth="yes"/>
      <point x="112" y="647"/>
      <point x="35" y="542"/>
      <point x="35" y="390" type="curve" smooth="yes"/>
      <point x="35" y="273"/>
      <point x="82" y="184"/>
    </contour>
    <contour>
      <point x="602" y="140" type="curve" smooth="yes"/>
      <point x="712" y="140"/>
      <point x="802" y="244"/>
      <point x="802" y="393" type="curve" smooth="yes"/>
      <point x="802" y="540"/>
      <point x="717" y="647"/>
      <point x="574" y="647" type="curve" smooth="yes"/>
      <point x="510" y="647"/>
      <point x="450" y="613"/>
      <point x="413" y="547" type="curve"/>
      <point x="469" y="443" type="line"/>
      <point x="478" y="503"/>
      <point x="509" y="548"/>
      <point x="566" y="548" type="curve" smooth="yes"/>
      <point x="638" y="548"/>
      <point x="670" y="487"/>
      <point x="670" y="393" type="curve" smooth="yes"/>
      <point x="670" y="299"/>
      <point x="640" y="239"/>
      <point x="591" y="239" type="curve" smooth="yes"/>
      <point x="574" y="239"/>
      <point x="551" y="244"/>
      <point x="538" y="254" type="curve"/>
      <point x="495" y="167" type="line"/>
      <point x="520" y="148"/>
      <point x="570" y="140"/>
    </contour>
  </outline>
</glyph>
<glyph name="kha" format="2">
  <advance width="536"/>
  <unicode hex="1001"/>
  <note>
kha
</note>
  <outline>
    <contour>
      <point x="274" y="140" type="curve" smooth="yes"/>
      <point x="406" y="140"/>
      <point x="501" y="239"/>
      <point x="501" y="394" type="curve" smooth="yes"/>
      <point x="501" y="545"/>
      <point x="413" y="647"/>
      <point x="259" y="647" type="curve" smooth="yes"/>
      <point x="173" y="647"/>
      <point x="99" y="604"/>
      <point x="51" y="569" type="curve"/>
      <point x="101" y="487" type="line"/>
      <point x="156" y="531"/>
      <point x="215" y="548"/>
      <point x="262" y="548" type="curve" smooth="yes"/>
      <point x="335" y="548"/>
      <point x="372" y="493"/>
      <point x="372" y="394" type="curve" smooth="yes"/>
      <point x="372" y="304"/>
      <point x="340" y="235"/>
      <point x="268" y="235" type="curve" smooth="yes"/>
      <point x="229" y="235"/>
      <point x="189" y="258"/>
      <point x="177" y="292" type="curve"/>
      <point x="207" y="313"/>
      <point x="238" y="325"/>
      <point x="265" y="325" type="curve" smooth="yes"/>
      <point x="306" y="325"/>
      <point x="343" y="310"/>
      <point x="380" y="280" type="curve"/>
      <point x="396" y="354" type="line"/>
      <point x="344" y="393"/>
      <point x="303" y="406"/>
      <point x="256" y="406" type="curve" smooth="yes"/>
      <point x="172" y="406"/>
      <point x="106" y="380"/>
      <point x="43" y="334" type="curve"/>
      <point x="56" y="215"/>
      <point x="146" y="140"/>
    </contour>
  </outline>
</glyph>
<glyph name="ga" format="2">
  <advance width="531"/>
  <unicode hex="1002"/>
  <note>
ga
</note>
  <outline>
    <contour>
      <point x="149" y="140" type="curve"/>
      <point x="213" y="232" type="line"/>
      <point x="175" y="276"/>
      <point x="167" y="325"/>
      <point x="167" y="389" type="curve" smooth="yes"/>
      <point x="167" y="485"/>
      <point x="199" y="548"/>
      <point x="265" y="548" type="curve" smooth="yes"/>
      <point x="337" y="548"/>
      <point x="365" y="483"/>
      <point x="365" y="389" type="curve" smooth="yes"/>
      <point x="365" y="326"/>
      <point x="356" y="276"/>
      <point x="318" y="232" type="curve"/>
      <point x="382" y="140" type="line"/>
      <point x="449" y="184"/>
      <point x="496" y="275"/>
      <point x="496" y="390" type="curve" smooth="yes"/>
      <point x="496" y="542"/>
      <point x="413" y="647"/>
      <point x="266" y="647" type="curve" smooth="yes"/>
      <point x="119" y="647"/>
      <point x="35" y="543"/>
      <point x="35" y="390" type="curve" smooth="yes"/>
      <point x="35" y="273"/>
      <point x="82" y="184"/>
    </contour>
  </outline>
</glyph>
<glyph name="ca" format="2">
  <advance width="539"/>
  <unicode hex="1005"/>
  <note>
ca
</note>
  <outline>
    <contour>
      <point x="271" y="140" type="curve" smooth="yes"/>
      <point x="408" y="140"/>
      <point x="504" y="244"/>
      <point x="504" y="393" type="curve" smooth="yes"/>
      <point x="504" y="539"/>
      <point x="412" y="647"/>
      <point x="270" y="647" type="curve" smooth="yes"/>
      <point x="133" y="647"/>
      <point x="35" y="541"/>
      <point x="35" y="393" type="curve" smooth="yes"/>
      <point x="35" y="244"/>
      <point x="133" y="140"/>
    </contour>
    <contour>
      <point x="247" y="226" type="line"/>
      <point x="273" y="277"/>
      <point x="284" y="327"/>
      <point x="284" y="392" type="curve" smooth="yes"/>
      <point x="284" y="461"/>
      <point x="268" y="514"/>
      <point x="250" y="557" type="curve"/>
      <point x="175" y="539" type="line"/>
      <point x="199" y="487"/>
      <point x="206" y="447"/>
      <point x="206" y="394" type="curve" smooth="yes"/>
      <point x="206" y="339"/>
      <point x="199" y="299"/>
      <point x="172" y="247" type="curve"/>
    </contour>
    <contour>
      <point x="257" y="239" type="curve" smooth="yes"/>
      <point x="171" y="239"/>
      <point x="134" y="300"/>
      <point x="134" y="393" type="curve" smooth="yes"/>
      <point x="134" y="478"/>
      <point x="170" y="548"/>
      <point x="257" y="548" type="curve" smooth="yes"/>
      <point x="326" y="548"/>
      <point x="372" y="487"/>
      <point x="372" y="393" type="curve" smooth="yes"/>
      <point x="372" y="298"/>
      <point x="322" y="239"/>
    </contour>
  </outline>
</glyph>
<glyph name="ja" format="2">
  <advance width="539"/>
  <unicode hex="1007"/>
  <note>
ja
</note>
  <outline>
    <contour>
      <point x="281" y="140" type="curve" smooth="yes"/>
      <point x="342" y="140"/>
      <point x="399" y="154"/>
      <point x="426" y="187" type="curve"/>
      <point x="359" y="259" type="line"/>
      <point x="345" y="246"/>
      <point x="326" y="239"/>
      <point x="297" y="239" type="curve" smooth="yes"/>
      <point x="204" y="239"/>
      <point x="167" y="302"/>
      <point x="167" y="396" type="curve" smooth="yes"/>
      <point x="167" y="486"/>
      <point x="212" y="548"/>
      <point x="280" y="548" type="curve" smooth="yes"/>
      <point x="296" y="548"/>
      <point x="299" y="547"/>
      <point x="309" y="545" type="curve"/>
      <point x="305" y="559" type="line"/>
      <point x="277" y="533"/>
      <point x="264" y="503"/>
      <point x="264" y="472" type="curve" smooth="yes"/>
      <point x="264" y="416"/>
      <point x="297" y="375"/>
      <point x="356" y="375" type="curve" smooth="yes"/>
      <point x="374" y="375"/>
      <point x="394" y="379"/>
      <point x="400" y="391" type="curve"/>
      <point x="392" y="391" type="line"/>
      <point x="396" y="341"/>
      <point x="421" y="298"/>
      <point x="494" y="298" type="curve" smooth="yes"/>
      <point x="515" y="298" type="line"/>
      <point x="515" y="397" type="line"/>
      <point x="486" y="397"/>
      <point x="469" y="406"/>
      <point x="469" y="438" type="curve" smooth="yes"/>
      <point x="469" y="451"/>
      <point x="471" y="469"/>
      <point x="471" y="490" type="curve" smooth="yes"/>
      <point x="471" y="580"/>
      <point x="413" y="647"/>
      <point x="284" y="647" type="curve" smooth="yes"/>
      <point x="127" y="647"/>
      <point x="35" y="541"/>
      <point x="35" y="394" type="curve" smooth="yes"/>
      <point x="35" y="240"/>
      <point x="130" y="140"/>
    </contour>
    <contour>
      <point x="369" y="442" type="curve" smooth="yes"/>
      <point x="347" y="442"/>
      <point x="336" y="460"/>
      <point x="336" y="484" type="curve" smooth="yes"/>
      <point x="336" y="508"/>
      <point x="350" y="525"/>
      <point x="369" y="525" type="curve" smooth="yes"/>
      <point x="388" y="525"/>
      <point x="402" y="508"/>
      <point x="402" y="484" type="curve" smooth="yes"/>
      <point x="402" y="459"/>
      <point x="388" y="442"/>
    </contour>
  </outline>
</glyph>
<glyph name="jha" format="2">
  <advance width="729"/>
  <unicode hex="1008"/>
  <note>
jha
</note>
  <outline>
    <contour>
      <point x="499" y="-270" type="curve" smooth="yes"/>
      <point x="615" y="-270"/>
      <point x="689" y="-183"/>
      <point x="689" y="-35" type="curve" smooth="yes"/>
      <point x="689" y="638" type="line"/>
      <point x="558" y="638" type="line"/>
      <point x="558" y="-22" type="line" smooth="yes"/>
      <point x="558" y="-123"/>
      <point x="542" y="-171"/>
      <point x="502" y="-171" type="curve" smooth="yes"/>
      <point x="463" y="-171"/>
      <point x="446" y="-124"/>
      <point x="446" y="-22" type="curve" smooth="yes"/>
      <point x="446" y="244" type="line"/>
      <point x="315" y="158" type="line"/>
      <point x="315" y="-34" type="line" smooth="yes"/>
      <point x="315" y="-185"/>
      <point x="387" y="-270"/>
    </contour>
    <contour>
      <point x="271" y="140" type="curve" smooth="yes"/>
      <point x="408" y="140"/>
      <point x="504" y="244"/>
      <point x="504" y="393" type="curve" smooth="yes"/>
      <point x="504" y="539"/>
      <point x="412" y="647"/>
      <point x="270" y="647" type="curve" smooth="yes"/>
      <point x="133" y="647"/>
      <point x="35" y="541"/>
      <point x="35" y="393" type="curve" smooth="yes"/>
      <point x="35" y="244"/>
      <point x="133" y="140"/>
    </contour>
    <contour>
      <point x="257" y="239" type="curve" smooth="yes"/>
      <point x="171" y="239"/>
      <point x="134" y="300"/>
      <point x="134" y="393" type="curve" smooth="yes"/>
      <point x="134" y="478"/>
      <point x="170" y="548"/>
      <point x="257" y="548" type="curve" smooth="yes"/>
      <point x="326" y="548"/>
      <point x="372" y="487"/>
      <point x="372" y="393" type="curve" smooth="yes"/>
      <point x="372" y="298"/>
      <point x="322" y="239"/>
    </contour>
    <contour>
      <point x="247" y="226" type="line"/>
      <point x="273" y="277"/>
      <point x="284" y="327"/>
      <point x="284" y="392" type="curve" smooth="yes"/>
      <point x="284" y="461"/>
      <point x="268" y="514"/>
      <point x="250" y="557" type="curve"/>
      <point x="175" y="539" type="line"/>
      <point x="199" y="487"/>
      <point x="206" y="447"/>
      <point x="206" y="394" type="curve" smooth="yes"/>
      <point x="206" y="339"/>
      <point x="199" y="299"/>
      <point x="172" y="247" type="curve"/>
    </contour>
  </outline>
</glyph>
<glyph name="nya" format="2">
  <advance width="515"/>
  <unicode hex="1009"/>
  <note>
nya
</note>
  <outline>
    <contour>
      <point x="207" y="-270" type="curve" smooth="yes"/>
      <point x="622" y="-270" type="line" smooth="yes"/>
      <point x="732" y="-270"/>
      <point x="787" y="-206"/>
      <point x="787" y="-74" type="curve" smooth="yes"/>
      <point x="787" y="-59" type="line"/>
      <point x="657" y="-59" type="line"/>
      <point x="657" y="-86" type="line" smooth="yes"/>
      <point x="657" y="-142"/>
      <point x="646" y="-171"/>
      <point x="605" y="-171" type="curve" smooth="yes"/>
      <point x="223" y="-171" type="line" smooth="yes"/>
      <point x="183" y="-171"/>
      <point x="171" y="-142"/>
      <point x="171" y="-86" type="curve" smooth="yes"/>
      <point x="171" y="183" type="line"/>
      <point x="41" y="273" type="line" smooth="yes"/>
      <point x="41" y="-74" type="line" smooth="yes"/>
      <point x="41" y="-206"/>
      <point x="97" y="-270"/>
    </contour>
    <contour>
      <point x="243" y="141" type="curve" smooth="yes"/>
      <point x="380" y="141"/>
      <point x="480" y="245"/>
      <point x="480" y="394" type="curve" smooth="yes"/>
      <point x="480" y="541"/>
      <point x="382" y="647"/>
      <point x="243" y="647" type="curve" smooth="yes"/>
      <point x="162" y="647"/>
      <point x="87" y="596"/>
      <point x="54" y="519" type="curve"/>
      <point x="142" y="469" type="line"/>
      <point x="167" y="526"/>
      <point x="196" y="548"/>
      <point x="237" y="548" type="curve" smooth="yes"/>
      <point x="306" y="548"/>
      <point x="348" y="485"/>
      <point x="348" y="394" type="curve" smooth="yes"/>
      <point x="348" y="301"/>
      <point x="304" y="240"/>
      <point x="237" y="240" type="curve" smooth="yes"/>
      <point x="192" y="240"/>
      <point x="161" y="265"/>
      <point x="135" y="318" type="curve"/>
      <point x="40" y="273" type="line"/>
      <point x="76" y="196"/>
      <point x="151" y="141"/>
    </contour>
  </outline>
</glyph>
<glyph name="nnya" format="2">
  <advance width="846"/>
  <unicode hex="100A"/>
  <note>
nnya
</note>
  <outline>
    <contour>
      <point x="206" y="-270" type="curve" smooth="yes"/>
      <point x="621" y="-270" type="line" smooth="yes"/>
      <point x="731" y="-270"/>
      <point x="786" y="-206"/>
      <point x="786" y="-74" type="curve" smooth="yes"/>
      <point x="786" y="-59" type="line"/>
      <point x="656" y="-59" type="line"/>
      <point x="656" y="-86" type="line" smooth="yes"/>
      <point x="656" y="-142"/>
      <point x="645" y="-171"/>
      <point x="604" y="-171" type="curve" smooth="yes"/>
      <point x="222" y="-171" type="line" smooth="yes"/>
      <point x="182" y="-171"/>
      <point x="170" y="-142"/>
      <point x="170" y="-86" type="curve" smooth="yes"/>
      <point x="170" y="183" type="line"/>
      <point x="40" y="273" type="line"/>
      <point x="40" y="-74" type="line" smooth="yes"/>
      <point x="40" y="-206"/>
      <point x="96" y="-270"/>
    </contour>
    <contour>
      <point x="243" y="141" type="curve" smooth="yes"/>
      <point x="380" y="141"/>
      <point x="480" y="245"/>
      <point x="480" y="394" type="curve" smooth="yes"/>
      <point x="480" y="541"/>
      <point x="382" y="647"/>
      <point x="243" y="647" type="curve" smooth="yes"/>
      <point x="162" y="647"/>
      <point x="87" y="596"/>
      <point x="54" y="519" type="curve"/>
      <point x="142" y="469" type="line"/>
      <point x="167" y="526"/>
      <point x="196" y="548"/>
      <point x="237" y="548" type="curve" smooth="yes"/>
      <point x="306" y="548"/>
      <point x="348" y="485"/>
      <point x="348" y="394" type="curve" smooth="yes"/>
      <point x="348" y="301"/>
      <point x="304" y="240"/>
      <point x="237" y="240" type="curve" smooth="yes"/>
      <point x="192" y="240"/>
      <point x="161" y="265"/>
      <point x="135" y="318" type="curve"/>
      <point x="40" y="273" type="line"/>
      <point x="76" y="196"/>
      <point x="151" y="141"/>
    </contour>
    <contour>
      <point x="591" y="140" type="curve" smooth="yes"/>
      <point x="722" y="140"/>
      <point x="811" y="245"/>
      <point x="811" y="393" type="curve" smooth="yes"/>
      <point x="811" y="543"/>
      <point x="746" y="647"/>
      <point x="608" y="647" type="curve" smooth="yes"/>
      <point x="558" y="647"/>
      <point x="532" y="636"/>
      <point x="507" y="620" type="curve"/>
      <point x="549" y="532" type="line"/>
      <point x="565" y="544"/>
      <point x="581" y="548"/>
      <point x="601" y="548" type="curve" smooth="yes"/>
      <point x="648" y="548"/>
      <point x="679" y="487"/>
      <point x="679" y="394" type="curve" smooth="yes"/>
      <point x="679" y="303"/>
      <point x="644" y="239"/>
      <point x="585" y="239" type="curve" smooth="yes"/>
      <point x="530" y="239"/>
      <point x="493" y="276"/>
      <point x="454" y="337" type="curve"/>
      <point x="401" y="235" type="line"/>
      <point x="451" y="179"/>
      <point x="504" y="140"/>
    </contour>
  </outline>
</glyph>
<glyph name="tta" format="2">
  <advance width="515"/>
  <unicode hex="100B"/>
  <note>
tta
</note>
  <outline>
    <contour>
      <point x="344" y="-270" type="line"/>
      <point x="539" y="-270" type="line"/>
      <point x="539" y="-177" type="line"/>
      <point x="475" y="-177" type="line"/>
      <point x="475" y="-25" type="line"/>
      <point x="413" y="-61"/>
      <point x="337" y="-70"/>
      <point x="287" y="-70" type="curve" smooth="yes"/>
      <point x="248" y="-70"/>
      <point x="223" y="-64"/>
      <point x="207" y="-59" type="curve"/>
      <point x="207" y="1" type="line"/>
      <point x="227" y="-5"/>
      <point x="250" y="-9"/>
      <point x="287" y="-9" type="curve" smooth="yes"/>
      <point x="339" y="-9"/>
      <point x="419" y="8"/>
      <point x="475" y="49" type="curve"/>
      <point x="475" y="273" type="line"/>
      <point x="344" y="191" type="line"/>
      <point x="344" y="103" type="line"/>
      <point x="316" y="92"/>
      <point x="293" y="90"/>
      <point x="257" y="90" type="curve" smooth="yes"/>
      <point x="197" y="90"/>
      <point x="135" y="113"/>
      <point x="73" y="149" type="curve"/>
      <point x="73" y="-124" type="line"/>
      <point x="135" y="-155"/>
      <point x="197" y="-169"/>
      <point x="263" y="-169" type="curve" smooth="yes"/>
      <point x="292" y="-169"/>
      <point x="319" y="-168"/>
      <point x="344" y="-162" type="curve"/>
    </contour>
    <contour>
      <point x="272" y="141" type="curve" smooth="yes"/>
      <point x="364" y="141"/>
      <point x="439" y="196"/>
      <point x="475" y="273" type="curve"/>
      <point x="375" y="318" type="line"/>
      <point x="350" y="265"/>
      <point x="321" y="240"/>
      <point x="278" y="240" type="curve" smooth="yes"/>
      <point x="211" y="240"/>
      <point x="167" y="301"/>
      <point x="167" y="394" type="curve" smooth="yes"/>
      <point x="167" y="485"/>
      <point x="209" y="548"/>
      <point x="278" y="548" type="curve" smooth="yes"/>
      <point x="317" y="548"/>
      <point x="344" y="526"/>
      <point x="368" y="469" type="curve"/>
      <point x="461" y="519" type="line"/>
      <point x="428" y="596"/>
      <point x="353" y="647"/>
      <point x="272" y="647" type="curve" smooth="yes"/>
      <point x="133" y="647"/>
      <point x="35" y="541"/>
      <point x="35" y="394" type="curve" smooth="yes"/>
      <point x="35" y="245"/>
      <point x="135" y="141"/>
    </contour>
  </outline>
</glyph>
<glyph name="ttha" format="2">
  <advance width="515"/>
  <unicode hex="100C"/>
  <note>
ttha
</note>
  <outline>
    <contour>
      <point x="229" y="-270" type="curve" smooth="yes"/>
      <point x="308" y="-270" type="line" smooth="yes"/>
      <point x="420" y="-270"/>
      <point x="474" y="-207"/>
      <point x="474" y="-79" type="curve" smooth="yes"/>
      <point x="474" y="273" type="line"/>
      <point x="341" y="170" type="line"/>
      <point x="341" y="-89" type="line" smooth="yes"/>
      <point x="341" y="-142"/>
      <point x="331" y="-171"/>
      <point x="289" y="-171" type="curve" smooth="yes"/>
      <point x="237" y="-171" type="line" smooth="yes"/>
      <point x="193" y="-171"/>
      <point x="177" y="-153"/>
      <point x="177" y="-127" type="curve" smooth="yes"/>
      <point x="177" y="-102"/>
      <point x="195" y="-87"/>
      <point x="219" y="-87" type="curve" smooth="yes"/>
      <point x="241" y="-87"/>
      <point x="256" y="-97"/>
      <point x="272" y="-109" type="curve"/>
      <point x="312" y="-32" type="line"/>
      <point x="284" y="-5"/>
      <point x="247" y="12"/>
      <point x="197" y="12" type="curve" smooth="yes"/>
      <point x="117" y="12"/>
      <point x="44" y="-31"/>
      <point x="44" y="-119" type="curve" smooth="yes"/>
      <point x="44" y="-221"/>
      <point x="114" y="-270"/>
    </contour>
    <contour>
      <point x="272" y="141" type="curve" smooth="yes"/>
      <point x="364" y="141"/>
      <point x="439" y="196"/>
      <point x="475" y="273" type="curve"/>
      <point x="375" y="318" type="line"/>
      <point x="350" y="265"/>
      <point x="321" y="240"/>
      <point x="278" y="240" type="curve" smooth="yes"/>
      <point x="211" y="240"/>
      <point x="167" y="301"/>
      <point x="167" y="394" type="curve" smooth="yes"/>
      <point x="167" y="485"/>
      <point x="209" y="548"/>
      <point x="278" y="548" type="curve" smooth="yes"/>
      <point x="317" y="548"/>
      <point x="344" y="526"/>
      <point x="368" y="469" type="curve"/>
      <point x="461" y="519" type="line"/>
      <point x="428" y="596"/>
      <point x="353" y="647"/>
      <point x="272" y="647" type="curve" smooth="yes"/>
      <point x="133" y="647"/>
      <point x="35" y="541"/>
      <point x="35" y="394" type="curve" smooth="yes"/>
      <point x="35" y="245"/>
      <point x="135" y="141"/>
    </contour>
  </outline>
</glyph>
<glyph name="dda" format="2">
  <advance width="515"/>
  <unicode hex="100D"/>
  <note>
dda
</note>
  <outline>
    <contour>
      <point x="308" y="-270" type="line"/>
      <point x="506" y="-270" type="line"/>
      <point x="506" y="-177" type="line"/>
      <point x="442" y="-177" type="line"/>
      <point x="442" y="135" type="line"/>
      <point x="380" y="99"/>
      <point x="318" y="77"/>
      <point x="258" y="77" type="curve" smooth="yes"/>
      <point x="222" y="77"/>
      <point x="199" y="79"/>
      <point x="171" y="90" type="curve"/>
      <point x="171" y="191" type="line"/>
      <point x="40" y="273" type="line"/>
      <point x="40" y="36" type="line"/>
      <point x="96" y="-6"/>
      <point x="176" y="-22"/>
      <point x="228" y="-22" type="curve" smooth="yes"/>
      <point x="265" y="-22"/>
      <point x="288" y="-18"/>
      <point x="308" y="-12" type="curve"/>
    </contour>
    <contour>
      <point x="243" y="141" type="curve" smooth="yes"/>
      <point x="380" y="141"/>
      <point x="480" y="245"/>
      <point x="480" y="394" type="curve" smooth="yes"/>
      <point x="480" y="541"/>
      <point x="382" y="647"/>
      <point x="243" y="647" type="curve" smooth="yes"/>
      <point x="162" y="647"/>
      <point x="87" y="596"/>
      <point x="54" y="519" type="curve"/>
      <point x="142" y="469" type="line"/>
      <point x="167" y="526"/>
      <point x="196" y="548"/>
      <point x="237" y="548" type="curve" smooth="yes"/>
      <point x="306" y="548"/>
      <point x="348" y="485"/>
      <point x="348" y="394" type="curve" smooth="yes"/>
      <point x="348" y="301"/>
      <point x="304" y="240"/>
      <point x="237" y="240" type="curve" smooth="yes"/>
      <point x="192" y="240"/>
      <point x="161" y="265"/>
      <point x="135" y="318" type="curve"/>
      <point x="40" y="273" type="line"/>
      <point x="76" y="196"/>
      <point x="151" y="141"/>
    </contour>
  </outline>
</glyph>
<glyph name="ddha" format="2">
  <advance width="532"/>
  <unicode hex="100E"/>
  <note>
ddha
</note>
  <outline>
    <contour>
      <point x="264" y="140" type="curve" smooth="yes"/>
      <point x="422" y="140"/>
      <point x="497" y="244"/>
      <point x="497" y="397" type="curve" smooth="yes"/>
      <point x="497" y="511"/>
      <point x="451" y="601"/>
      <point x="381" y="647" type="curve"/>
      <point x="318" y="555" type="line"/>
      <point x="356" y="511"/>
      <point x="365" y="460"/>
      <point x="365" y="397" type="curve" smooth="yes"/>
      <point x="365" y="300"/>
      <point x="337" y="239"/>
      <point x="262" y="239" type="curve" smooth="yes"/>
      <point x="209" y="239"/>
      <point x="175" y="271"/>
      <point x="175" y="325" type="curve" smooth="yes"/>
      <point x="175" y="356"/>
      <point x="181" y="386"/>
      <point x="210" y="424" type="curve" smooth="yes"/>
      <point x="241" y="463"/>
      <point x="269" y="493"/>
      <point x="269" y="540" type="curve" smooth="yes"/>
      <point x="269" y="599"/>
      <point x="228" y="647"/>
      <point x="152" y="647" type="curve" smooth="yes"/>
      <point x="104" y="647"/>
      <point x="53" y="625"/>
      <point x="26" y="578" type="curve"/>
      <point x="78" y="517" type="line"/>
      <point x="92" y="535"/>
      <point x="109" y="548"/>
      <point x="131" y="548" type="curve" smooth="yes"/>
      <point x="145" y="548"/>
      <point x="155" y="539"/>
      <point x="155" y="525" type="curve" smooth="yes"/>
      <point x="155" y="505"/>
      <point x="132" y="496"/>
      <point x="103" y="464" type="curve" smooth="yes"/>
      <point x="66" y="424"/>
      <point x="43" y="376"/>
      <point x="43" y="321" type="curve" smooth="yes"/>
      <point x="43" y="212"/>
      <point x="128" y="140"/>
    </contour>
  </outline>
</glyph>
<glyph name="nna" format="2">
  <advance width="1053"/>
  <unicode hex="100F"/>
  <note>
nna
</note>
  <outline>
    <contour>
      <point x="526" y="141" type="curve" smooth="yes"/>
      <point x="619" y="141"/>
      <point x="673" y="189"/>
      <point x="673" y="280" type="curve" smooth="yes"/>
      <point x="673" y="323"/>
      <point x="668" y="351"/>
      <point x="668" y="394" type="curve" smooth="yes"/>
      <point x="668" y="489"/>
      <point x="712" y="548"/>
      <point x="776" y="548" type="curve" smooth="yes"/>
      <point x="842" y="548"/>
      <point x="886" y="487"/>
      <point x="886" y="393" type="curve" smooth="yes"/>
      <point x="886" y="297"/>
      <point x="848" y="240"/>
      <point x="796" y="240" type="curve" smooth="yes"/>
      <point x="781" y="240"/>
      <point x="767" y="241"/>
      <point x="750" y="249" type="curve"/>
      <point x="719" y="154" type="line"/>
      <point x="745" y="144"/>
      <point x="773" y="141"/>
      <point x="804" y="141" type="curve" smooth="yes"/>
      <point x="932" y="141"/>
      <point x="1018" y="250"/>
      <point x="1018" y="394" type="curve" smooth="yes"/>
      <point x="1018" y="532"/>
      <point x="926" y="647"/>
      <point x="781" y="647" type="curve" smooth="yes"/>
      <point x="651" y="647"/>
      <point x="559" y="550"/>
      <point x="559" y="401" type="curve" smooth="yes"/>
      <point x="559" y="349"/>
      <point x="564" y="337"/>
      <point x="564" y="289" type="curve" smooth="yes"/>
      <point x="564" y="260"/>
      <point x="548" y="240"/>
      <point x="526" y="240" type="curve" smooth="yes"/>
      <point x="505" y="240"/>
      <point x="488" y="260"/>
      <point x="488" y="289" type="curve" smooth="yes"/>
      <point x="488" y="340"/>
      <point x="494" y="343"/>
      <point x="494" y="401" type="curve" smooth="yes"/>
      <point x="494" y="555"/>
      <point x="399" y="647"/>
      <point x="272" y="647" type="curve" smooth="yes"/>
      <point x="138" y="647"/>
      <point x="35" y="544"/>
      <point x="35" y="394" type="curve" smooth="yes"/>
      <point x="35" y="236"/>
      <point x="126" y="141"/>
      <point x="252" y="141" type="curve" smooth="yes"/>
      <point x="280" y="141"/>
      <point x="306" y="143"/>
      <point x="334" y="154" type="curve"/>
      <point x="303" y="248" type="line"/>
      <point x="287" y="241"/>
      <point x="272" y="240"/>
      <point x="258" y="240" type="curve" smooth="yes"/>
      <point x="205" y="240"/>
      <point x="167" y="295"/>
      <point x="167" y="393" type="curve" smooth="yes"/>
      <point x="167" y="487"/>
      <point x="212" y="548"/>
      <point x="278" y="548" type="curve" smooth="yes"/>
      <point x="343" y="548"/>
      <point x="386" y="488"/>
      <point x="386" y="391" type="curve" smooth="yes"/>
      <point x="386" y="348"/>
      <point x="380" y="320"/>
      <point x="380" y="278" type="curve" smooth="yes"/>
      <point x="380" y="188"/>
      <point x="437" y="141"/>
    </contour>
    <contour>
      <point x="467" y="510" type="line"/>
      <point x="482" y="532"/>
      <point x="501" y="547"/>
      <point x="526" y="547" type="curve" smooth="yes"/>
      <point x="551" y="547"/>
      <point x="568" y="536"/>
      <point x="586" y="510" type="curve"/>
      <point x="650" y="592" type="line"/>
      <point x="615" y="627"/>
      <point x="583" y="647"/>
      <point x="526" y="647" type="curve" smooth="yes"/>
      <point x="468" y="647"/>
      <point x="433" y="622"/>
      <point x="403" y="592" type="curve"/>
    </contour>
  </outline>
</glyph>
<glyph name="tha" format="2">
  <advance width="837"/>
  <unicode hex="1011"/>
  <note>
tha
</note>
  <outline>
    <contour>
      <point x="258" y="140" type="curve" smooth="yes"/>
      <point x="408" y="140"/>
      <point x="471" y="243"/>
      <point x="471" y="392" type="curve" smooth="yes"/>
      <point x="471" y="536"/>
      <point x="413" y="647"/>
      <point x="266" y="647" type="curve" smooth="yes"/>
      <point x="113" y="647"/>
      <point x="35" y="541"/>
      <point x="35" y="393" type="curve" smooth="yes"/>
      <point x="35" y="242"/>
      <point x="122" y="140"/>
    </contour>
    <contour>
      <point x="260" y="239" type="curve" smooth="yes"/>
      <point x="205" y="239"/>
      <point x="167" y="301"/>
      <point x="167" y="393" type="curve" smooth="yes"/>
      <point x="167" y="486"/>
      <point x="201" y="548"/>
      <point x="265" y="548" type="curve" smooth="yes"/>
      <point x="329" y="548"/>
      <point x="355" y="487"/>
      <point x="355" y="391" type="curve" smooth="yes"/>
      <point x="355" y="301"/>
      <point x="323" y="239"/>
    </contour>
    <contour>
      <point x="582" y="140" type="curve" smooth="yes"/>
      <point x="724" y="140"/>
      <point x="802" y="245"/>
      <point x="802" y="394" type="curve" smooth="yes"/>
      <point x="802" y="534"/>
      <point x="730" y="647"/>
      <point x="583" y="647" type="curve" smooth="yes"/>
      <point x="495" y="647"/>
      <point x="441" y="604"/>
      <point x="415" y="549" type="curve"/>
      <point x="459" y="443" type="line"/>
      <point x="473" y="505"/>
      <point x="509" y="548"/>
      <point x="570" y="548" type="curve" smooth="yes"/>
      <point x="641" y="548"/>
      <point x="671" y="480"/>
      <point x="671" y="393" type="curve" smooth="yes"/>
      <point x="671" y="299"/>
      <point x="634" y="239"/>
      <point x="572" y="239" type="curve" smooth="yes"/>
      <point x="521" y="239"/>
      <point x="484" y="266"/>
      <point x="454" y="339" type="curve"/>
      <point x="404" y="235" type="line"/>
      <point x="451" y="174"/>
      <point x="502" y="140"/>
    </contour>
  </outline>
</glyph>
<glyph name="da" format="2">
  <advance width="515"/>
  <unicode hex="1012"/>
  <note>
da
</note>
  <outline>
    <contour>
      <point x="267" y="140" type="curve" smooth="yes"/>
      <point x="414" y="140"/>
      <point x="479" y="207"/>
      <point x="479" y="296" type="curve" smooth="yes"/>
      <point x="479" y="362"/>
      <point x="427" y="402"/>
      <point x="358" y="412" type="curve"/>
      <point x="358" y="416" type="line"/>
      <point x="427" y="435"/>
      <point x="451" y="466"/>
      <point x="451" y="522" type="curve" smooth="yes"/>
      <point x="451" y="601"/>
      <point x="387" y="647"/>
      <point x="244" y="647" type="curve" smooth="yes"/>
      <point x="123" y="647"/>
      <point x="49" y="592"/>
      <point x="49" y="511" type="curve" smooth="yes"/>
      <point x="49" y="481"/>
      <point x="60" y="453"/>
      <point x="85" y="433" type="curve"/>
      <point x="171" y="479" type="line"/>
      <point x="162" y="487"/>
      <point x="158" y="495"/>
      <point x="158" y="505" type="curve" smooth="yes"/>
      <point x="158" y="537"/>
      <point x="192" y="550"/>
      <point x="249" y="550" type="curve" smooth="yes"/>
      <point x="289" y="550"/>
      <point x="334" y="542"/>
      <point x="334" y="501" type="curve" smooth="yes"/>
      <point x="334" y="464"/>
      <point x="294" y="447"/>
      <point x="251" y="447" type="curve" smooth="yes"/>
      <point x="234" y="447" type="line"/>
      <point x="234" y="361" type="line"/>
      <point x="257" y="361" type="line" smooth="yes"/>
      <point x="329" y="361"/>
      <point x="350" y="340"/>
      <point x="350" y="305" type="curve" smooth="yes"/>
      <point x="350" y="264"/>
      <point x="324" y="239"/>
      <point x="267" y="239" type="curve" smooth="yes"/>
      <point x="202" y="239"/>
      <point x="150" y="269"/>
      <point x="121" y="334" type="curve"/>
      <point x="26" y="285" type="line"/>
      <point x="63" y="192"/>
      <point x="148" y="140"/>
    </contour>
  </outline>
</glyph>
<glyph name="dha" format="2">
  <advance width="535"/>
  <unicode hex="1013"/>
  <note>
dha
</note>
  <outline>
    <contour>
      <point x="171" y="285" type="line"/>
      <point x="194" y="312"/>
      <point x="223" y="329"/>
      <point x="271" y="329" type="curve" smooth="yes"/>
      <point x="313" y="329"/>
      <point x="339" y="317"/>
      <point x="372" y="287" type="curve"/>
      <point x="399" y="355" type="line"/>
      <point x="357" y="394"/>
      <point x="318" y="410"/>
      <point x="269" y="410" type="curve" smooth="yes"/>
      <point x="221" y="410"/>
      <point x="181" y="391"/>
      <point x="143" y="354" type="curve"/>
    </contour>
    <contour>
      <point x="271" y="140" type="curve" smooth="yes"/>
      <point x="408" y="140"/>
      <point x="504" y="244"/>
      <point x="504" y="393" type="curve" smooth="yes"/>
      <point x="504" y="537"/>
      <point x="411" y="647"/>
      <point x="270" y="647" type="curve" smooth="yes"/>
      <point x="133" y="647"/>
      <point x="35" y="541"/>
      <point x="35" y="393" type="curve" smooth="yes"/>
      <point x="35" y="244"/>
      <point x="133" y="140"/>
    </contour>
    <contour>
      <point x="270" y="231" type="curve" smooth="yes"/>
      <point x="202" y="231"/>
      <point x="163" y="303"/>
      <point x="163" y="393" type="curve" smooth="yes"/>
      <point x="163" y="488"/>
      <point x="204" y="552"/>
      <point x="269" y="552" type="curve" smooth="yes"/>
      <point x="332" y="552"/>
      <point x="377" y="489"/>
      <point x="377" y="393" type="curve" smooth="yes"/>
      <point x="377" y="303"/>
      <point x="338" y="231"/>
    </contour>
  </outline>
</glyph>
<glyph name="na" format="2">
  <advance width="469"/>
  <unicode hex="1014"/>
  <note>
na
</note>
  <outline>
    <contour>
      <point x="164" y="-270" type="line"/>
      <point x="256" y="-270" type="line"/>
      <point x="256" y="157" type="line" smooth="yes"/>
      <point x="256" y="309"/>
      <point x="209" y="376"/>
      <point x="122" y="376" type="curve" smooth="yes"/>
      <point x="70" y="376"/>
      <point x="20" y="332"/>
      <point x="20" y="265" type="curve" smooth="yes"/>
      <point x="20" y="191"/>
      <point x="92" y="141"/>
      <point x="194" y="141" type="curve" smooth="yes"/>
      <point x="245" y="141" type="line" smooth="yes"/>
      <point x="341" y="141"/>
      <point x="434" y="200"/>
      <point x="434" y="292" type="curve" smooth="yes"/>
      <point x="434" y="374"/>
      <point x="391" y="415"/>
      <point x="305" y="454" type="curve" smooth="yes"/>
      <point x="249" y="480"/>
      <point x="235" y="494"/>
      <point x="235" y="517" type="curve" smooth="yes"/>
      <point x="235" y="536"/>
      <point x="253" y="550"/>
      <point x="278" y="550" type="curve" smooth="yes"/>
      <point x="308" y="550"/>
      <point x="325" y="537"/>
      <point x="357" y="511" type="curve"/>
      <point x="419" y="579" type="line"/>
      <point x="378" y="624"/>
      <point x="328" y="647"/>
      <point x="264" y="647" type="curve" smooth="yes"/>
      <point x="183" y="647"/>
      <point x="117" y="594"/>
      <point x="117" y="520" type="curve" smooth="yes"/>
      <point x="117" y="464"/>
      <point x="154" y="423"/>
      <point x="230" y="387" type="curve" smooth="yes"/>
      <point x="287" y="360"/>
      <point x="322" y="334"/>
      <point x="322" y="295" type="curve" smooth="yes"/>
      <point x="322" y="261"/>
      <point x="301" y="240"/>
      <point x="231" y="240" type="curve" smooth="yes"/>
      <point x="155" y="240" type="line" smooth="yes"/>
      <point x="110" y="240"/>
      <point x="92" y="255"/>
      <point x="92" y="280" type="curve" smooth="yes"/>
      <point x="92" y="296"/>
      <point x="104" y="310"/>
      <point x="124" y="310" type="curve" smooth="yes"/>
      <point x="160" y="310"/>
      <point x="164" y="258"/>
      <point x="164" y="172" type="curve" smooth="yes"/>
    </contour>
  </outline>
</glyph>
<glyph name="pa" format="2">
  <advance width="538"/>
  <unicode hex="1015"/>
  <note>
pa
</note>
  <outline>
    <contour>
      <point x="269" y="140" type="curve" smooth="yes"/>
      <point x="417" y="140"/>
      <point x="503" y="244"/>
      <point x="503" y="397" type="curve" smooth="yes"/>
      <point x="503" y="512"/>
      <point x="456" y="603"/>
      <point x="389" y="647" type="curve"/>
      <point x="325" y="555" type="line"/>
      <point x="363" y="511"/>
      <point x="372" y="460"/>
      <point x="372" y="397" type="curve" smooth="yes"/>
      <point x="372" y="304"/>
      <point x="342" y="239"/>
      <point x="268" y="239" type="curve" smooth="yes"/>
      <point x="199" y="239"/>
      <point x="167" y="302"/>
      <point x="167" y="397" type="curve" smooth="yes"/>
      <point x="167" y="461"/>
      <point x="175" y="511"/>
      <point x="213" y="555" type="curve"/>
      <point x="149" y="647" type="line"/>
      <point x="82" y="603"/>
      <point x="35" y="514"/>
      <point x="35" y="397" type="curve" smooth="yes"/>
      <point x="35" y="244"/>
      <point x="119" y="140"/>
    </contour>
  </outline>
</glyph>
<glyph name="pha" format="2">
  <advance width="538"/>
  <unicode hex="1016"/>
  <note>
pha
</note>
  <outline>
    <contour>
      <point x="277" y="140" type="curve" smooth="yes"/>
      <point x="433" y="140"/>
      <point x="503" y="262"/>
      <point x="503" y="397" type="curve" smooth="yes"/>
      <point x="503" y="504"/>
      <point x="443" y="598"/>
      <point x="347" y="646" type="curve"/>
      <point x="299" y="583"/>
      <point x="262" y="509"/>
      <point x="262" y="408" type="curve" smooth="yes"/>
      <point x="262" y="337"/>
      <point x="273" y="279"/>
      <point x="295" y="229" type="curve"/>
      <point x="362" y="260" type="line"/>
      <point x="342" y="303"/>
      <point x="333" y="353"/>
      <point x="333" y="408" type="curve" smooth="yes"/>
      <point x="333" y="461"/>
      <point x="343" y="496"/>
      <point x="362" y="528" type="curve"/>
      <point x="394" y="490"/>
      <point x="399" y="450"/>
      <point x="399" y="398" type="curve" smooth="yes"/>
      <point x="399" y="307"/>
      <point x="360" y="239"/>
      <point x="281" y="239" type="curve" smooth="yes"/>
      <point x="208" y="239"/>
      <point x="167" y="296"/>
      <point x="167" y="397" type="curve" smooth="yes"/>
      <point x="167" y="460"/>
      <point x="176" y="511"/>
      <point x="215" y="555" type="curve"/>
      <point x="151" y="647" type="line"/>
      <point x="85" y="600"/>
      <point x="35" y="512"/>
      <point x="35" y="397" type="curve" smooth="yes"/>
      <point x="35" y="253"/>
      <point x="110" y="140"/>
    </contour>
  </outline>
</glyph>
<glyph name="ba" format="2">
  <advance width="539"/>
  <unicode hex="1017"/>
  <note>
ba
</note>
  <outline>
    <contour>
      <point x="269" y="140" type="curve" smooth="yes"/>
      <point x="419" y="140"/>
      <point x="504" y="244"/>
      <point x="504" y="397" type="curve" smooth="yes"/>
      <point x="504" y="512"/>
      <point x="471" y="591"/>
      <point x="428" y="649" type="curve"/>
      <point x="321" y="593" type="line"/>
      <point x="362" y="510"/>
      <point x="372" y="460"/>
      <point x="372" y="397" type="curve" smooth="yes"/>
      <point x="372" y="300"/>
      <point x="342" y="239"/>
      <point x="273" y="239" type="curve" smooth="yes"/>
      <point x="201" y="239"/>
      <point x="167" y="293"/>
      <point x="167" y="397" type="curve" smooth="yes"/>
      <point x="167" y="461"/>
      <point x="174" y="511"/>
      <point x="212" y="555" type="curve"/>
      <point x="110" y="647" type="line"/>
      <point x="69" y="593"/>
      <point x="35" y="512"/>
      <point x="35" y="397" type="curve" smooth="yes"/>
      <point x="35" y="244"/>
      <point x="115" y="140"/>
    </contour>
    <contour>
      <point x="273" y="402" type="curve" smooth="yes"/>
      <point x="371" y="402"/>
      <point x="442" y="512"/>
      <point x="442" y="579" type="curve" smooth="yes"/>
      <point x="442" y="604"/>
      <point x="439" y="628"/>
      <point x="428" y="649" type="curve"/>
      <point x="321" y="593" type="line"/>
      <point x="325" y="584"/>
      <point x="326" y="576"/>
      <point x="326" y="564" type="curve" smooth="yes"/>
      <point x="326" y="529"/>
      <point x="306" y="500"/>
      <point x="271" y="500" type="curve" smooth="yes"/>
      <point x="235" y="500"/>
      <point x="213" y="524"/>
      <point x="213" y="564" type="curve" smooth="yes"/>
      <point x="213" y="575"/>
      <point x="214" y="584"/>
      <point x="218" y="593" type="curve"/>
      <point x="110" y="647" type="line"/>
      <point x="102" y="627"/>
      <point x="97" y="605"/>
      <point x="97" y="583" type="curve" smooth="yes"/>
      <point x="97" y="515"/>
      <point x="157" y="402"/>
    </contour>
  </outline>
</glyph>
<glyph name="bha" format="2">
  <advance width="839"/>
  <unicode hex="1018"/>
  <note>
bha
</note>
  <outline>
    <contour>
      <point x="238" y="141" type="curve" smooth="yes"/>
      <point x="375" y="141"/>
      <point x="475" y="245"/>
      <point x="475" y="394" type="curve" smooth="yes"/>
      <point x="475" y="541"/>
      <point x="377" y="647"/>
      <point x="238" y="647" type="curve" smooth="yes"/>
      <point x="157" y="647"/>
      <point x="82" y="596"/>
      <point x="49" y="519" type="curve"/>
      <point x="137" y="469" type="line"/>
      <point x="162" y="526"/>
      <point x="191" y="548"/>
      <point x="232" y="548" type="curve" smooth="yes"/>
      <point x="301" y="548"/>
      <point x="343" y="485"/>
      <point x="343" y="394" type="curve" smooth="yes"/>
      <point x="343" y="301"/>
      <point x="299" y="240"/>
      <point x="232" y="240" type="curve" smooth="yes"/>
      <point x="187" y="240"/>
      <point x="156" y="265"/>
      <point x="130" y="318" type="curve"/>
      <point x="35" y="273" type="line"/>
      <point x="71" y="196"/>
      <point x="146" y="141"/>
    </contour>
    <contour>
      <point x="592" y="140" type="curve" smooth="yes"/>
      <point x="714" y="140"/>
      <point x="804" y="244"/>
      <point x="804" y="393" type="curve" smooth="yes"/>
      <point x="804" y="540"/>
      <point x="708" y="647"/>
      <point x="570" y="647" type="curve" smooth="yes"/>
      <point x="492" y="647"/>
      <point x="430" y="611"/>
      <point x="394" y="551" type="curve"/>
      <point x="452" y="448" type="line"/>
      <point x="468" y="506"/>
      <point x="503" y="548"/>
      <point x="564" y="548" type="curve" smooth="yes"/>
      <point x="628" y="548"/>
      <point x="672" y="487"/>
      <point x="672" y="393" type="curve" smooth="yes"/>
      <point x="672" y="299"/>
      <point x="642" y="239"/>
      <point x="584" y="239" type="curve" smooth="yes"/>
      <point x="565" y="239"/>
      <point x="546" y="243"/>
      <point x="529" y="253" type="curve"/>
      <point x="486" y="167" type="line"/>
      <point x="512" y="152"/>
      <point x="545" y="140"/>
    </contour>
  </outline>
</glyph>
<glyph name="ma" format="2">
  <advance width="529"/>
  <unicode hex="1019"/>
  <note>
ma
</note>
  <outline>
    <contour>
      <point x="264" y="140" type="curve" smooth="yes"/>
      <point x="408" y="140"/>
      <point x="502" y="244"/>
      <point x="502" y="397" type="curve" smooth="yes"/>
      <point x="502" y="511"/>
      <point x="455" y="601"/>
      <point x="386" y="647" type="curve"/>
      <point x="322" y="555" type="line"/>
      <point x="366" y="511"/>
      <point x="374" y="460"/>
      <point x="374" y="404" type="curve" smooth="yes"/>
      <point x="374" y="299"/>
      <point x="339" y="230"/>
      <point x="273" y="230" type="curve" smooth="yes"/>
      <point x="207" y="230"/>
      <point x="163" y="299"/>
      <point x="163" y="404" type="curve" smooth="yes"/>
      <point x="163" y="461"/>
      <point x="171" y="511"/>
      <point x="212" y="555" type="curve"/>
      <point x="148" y="647" type="line"/>
      <point x="79" y="600"/>
      <point x="35" y="512"/>
      <point x="35" y="397" type="curve" smooth="yes"/>
      <point x="35" y="244"/>
      <point x="123" y="140"/>
    </contour>
    <contour>
      <point x="171" y="285" type="line"/>
      <point x="194" y="312"/>
      <point x="223" y="329"/>
      <point x="271" y="329" type="curve" smooth="yes"/>
      <point x="313" y="329"/>
      <point x="339" y="317"/>
      <point x="372" y="287" type="curve"/>
      <point x="399" y="355" type="line"/>
      <point x="357" y="394"/>
      <point x="318" y="410"/>
      <point x="269" y="410" type="curve" smooth="yes"/>
      <point x="221" y="410"/>
      <point x="181" y="391"/>
      <point x="143" y="354" type="curve"/>
    </contour>
  </outline>
</glyph>
<glyph name="ya" format="2">
  <advance width="841"/>
  <unicode hex="101A"/>
  <note>
ya
</note>
  <outline>
    <contour>
      <point x="261" y="140" type="curve" smooth="yes"/>
      <point x="403" y="140"/>
      <point x="479" y="244"/>
      <point x="479" y="397" type="curve" smooth="yes"/>
      <point x="479" y="511"/>
      <point x="433" y="601"/>
      <point x="363" y="647" type="curve"/>
      <point x="300" y="555" type="line"/>
      <point x="346" y="511"/>
      <point x="357" y="460"/>
      <point x="357" y="397" type="curve" smooth="yes"/>
      <point x="357" y="300"/>
      <point x="331" y="239"/>
      <point x="265" y="239" type="curve" smooth="yes"/>
      <point x="201" y="239"/>
      <point x="167" y="293"/>
      <point x="167" y="397" type="curve" smooth="yes"/>
      <point x="167" y="461"/>
      <point x="174" y="511"/>
      <point x="212" y="555" type="curve"/>
      <point x="148" y="647" type="line"/>
      <point x="79" y="600"/>
      <point x="35" y="512"/>
      <point x="35" y="397" type="curve" smooth="yes"/>
      <point x="35" y="244"/>
      <point x="115" y="140"/>
    </contour>
    <contour>
      <point x="586" y="140" type="curve" smooth="yes"/>
      <point x="717" y="140"/>
      <point x="806" y="245"/>
      <point x="806" y="393" type="curve" smooth="yes"/>
      <point x="806" y="543"/>
      <point x="741" y="647"/>
      <point x="603" y="647" type="curve" smooth="yes"/>
      <point x="553" y="647"/>
      <point x="527" y="636"/>
      <point x="502" y="620" type="curve"/>
      <point x="544" y="532" type="line"/>
      <point x="560" y="544"/>
      <point x="576" y="548"/>
      <point x="596" y="548" type="curve" smooth="yes"/>
      <point x="643" y="548"/>
      <point x="674" y="487"/>
      <point x="674" y="394" type="curve" smooth="yes"/>
      <point x="674" y="303"/>
      <point x="639" y="239"/>
      <point x="580" y="239" type="curve" smooth="yes"/>
      <point x="525" y="239"/>
      <point x="488" y="276"/>
      <point x="449" y="337" type="curve"/>
      <point x="396" y="235" type="line"/>
      <point x="446" y="179"/>
      <point x="499" y="140"/>
    </contour>
  </outline>
</glyph>
<glyph name="wa" format="2">
  <advance width="539"/>
  <unicode hex="101D"/>
  <note>
wa
</note>
  <outline>
    <contour>
      <point x="271" y="140" type="curve" smooth="yes"/>
      <point x="408" y="140"/>
      <point x="504" y="244"/>
      <point x="504" y="393" type="curve" smooth="yes"/>
      <point x="504" y="537"/>
      <point x="411" y="647"/>
      <point x="270" y="647" type="curve" smooth="yes"/>
      <point x="133" y="647"/>
      <point x="35" y="541"/>
      <point x="35" y="393" type="curve" smooth="yes"/>
      <point x="35" y="244"/>
      <point x="133" y="140"/>
    </contour>
    <contour>
      <point x="269" y="239" type="curve" smooth="yes"/>
      <point x="205" y="239"/>
      <point x="167" y="301"/>
      <point x="167" y="393" type="curve" smooth="yes"/>
      <point x="167" y="486"/>
      <point x="207" y="548"/>
      <point x="269" y="548" type="curve" smooth="yes"/>
      <point x="329" y="548"/>
      <point x="373" y="487"/>
      <point x="373" y="393" type="curve" smooth="yes"/>
      <point x="373" y="301"/>
      <point x="333" y="239"/>
    </contour>
  </outline>
</glyph>
<glyph name="sa" format="2">
  <advance width="841"/>
  <unicode hex="101E"/>
  <note>
sa
</note>
  <outline>
    <contour>
      <point x="238" y="141" type="curve" smooth="yes"/>
      <point x="375" y="141"/>
      <point x="475" y="245"/>
      <point x="475" y="394" type="curve" smooth="yes"/>
      <point x="475" y="541"/>
      <point x="377" y="647"/>
      <point x="238" y="647" type="curve" smooth="yes"/>
      <point x="157" y="647"/>
      <point x="82" y="596"/>
      <point x="49" y="519" type="curve"/>
      <point x="137" y="469" type="line"/>
      <point x="162" y="526"/>
      <point x="191" y="548"/>
      <point x="232" y="548" type="curve" smooth="yes"/>
      <point x="301" y="548"/>
      <point x="343" y="485"/>
      <point x="343" y="394" type="curve" smooth="yes"/>
      <point x="343" y="301"/>
      <point x="299" y="240"/>
      <point x="232" y="240" type="curve" smooth="yes"/>
      <point x="187" y="240"/>
      <point x="156" y="265"/>
      <point x="130" y="318" type="curve"/>
      <point x="35" y="273" type="line"/>
      <point x="71" y="196"/>
      <point x="146" y="141"/>
    </contour>
    <contour>
      <point x="586" y="140" type="curve" smooth="yes"/>
      <point x="717" y="140"/>
      <point x="806" y="245"/>
      <point x="806" y="393" type="curve" smooth="yes"/>
      <point x="806" y="543"/>
      <point x="741" y="647"/>
      <point x="603" y="647" type="curve" smooth="yes"/>
      <point x="553" y="647"/>
      <point x="527" y="636"/>
      <point x="502" y="620" type="curve"/>
      <point x="544" y="532" type="line"/>
      <point x="560" y="544"/>
      <point x="576" y="548"/>
      <point x="596" y="548" type="curve" smooth="yes"/>
      <point x="643" y="548"/>
      <point x="674" y="487"/>
      <point x="674" y="394" type="curve" smooth="yes"/>
      <point x="674" y="303"/>
      <point x="639" y="239"/>
      <point x="580" y="239" type="curve" smooth="yes"/>
      <point x="525" y="239"/>
      <point x="488" y="276"/>
      <point x="449" y="337" type="curve"/>
      <point x="396" y="235" type="line"/>
      <point x="446" y="179"/>
      <point x="499" y="140"/>
    </contour>
  </outline>
</glyph>
<glyph name="lla" format="2">
  <advance width="515"/>
  <unicode hex="1020"/>
  <note>
lla
</note>
  <outline>
    <contour>
      <point x="214" y="-270" type="curve" smooth="yes"/>
      <point x="310" y="-270" type="line" smooth="yes"/>
      <point x="420" y="-270"/>
      <point x="475" y="-209"/>
      <point x="475" y="-86" type="curve" smooth="yes"/>
      <point x="475" y="-77" type="line"/>
      <point x="345" y="-77" type="line"/>
      <point x="345" y="-98" type="line" smooth="yes"/>
      <point x="345" y="-146"/>
      <point x="334" y="-171"/>
      <point x="293" y="-171" type="curve" smooth="yes"/>
      <point x="230" y="-171" type="line" smooth="yes"/>
      <point x="190" y="-171"/>
      <point x="178" y="-142"/>
      <point x="178" y="-86" type="curve" smooth="yes"/>
      <point x="178" y="52" type="line"/>
      <point x="204" y="45"/>
      <point x="239" y="42"/>
      <point x="287" y="42" type="curve" smooth="yes"/>
      <point x="339" y="42"/>
      <point x="419" y="58"/>
      <point x="475" y="99" type="curve"/>
      <point x="475" y="309" type="line"/>
      <point x="344" y="236" type="line"/>
      <point x="344" y="148" type="line"/>
      <point x="316" y="137"/>
      <point x="293" y="135"/>
      <point x="257" y="135" type="curve" smooth="yes"/>
      <point x="189" y="135"/>
      <point x="118" y="158"/>
      <point x="48" y="194" type="curve"/>
      <point x="48" y="-74" type="line" smooth="yes"/>
      <point x="48" y="-206"/>
      <point x="104" y="-270"/>
    </contour>
    <contour>
      <point x="272" y="186" type="curve" smooth="yes"/>
      <point x="364" y="186"/>
      <point x="439" y="237"/>
      <point x="475" y="309" type="curve"/>
      <point x="375" y="354" type="line"/>
      <point x="350" y="307"/>
      <point x="321" y="285"/>
      <point x="278" y="285" type="curve" smooth="yes"/>
      <point x="211" y="285"/>
      <point x="167" y="328"/>
      <point x="167" y="421" type="curve" smooth="yes"/>
      <point x="167" y="503"/>
      <point x="209" y="548"/>
      <point x="274" y="548" type="curve" smooth="yes"/>
      <point x="317" y="548"/>
      <point x="344" y="529"/>
      <point x="368" y="478" type="curve"/>
      <point x="461" y="528" type="line"/>
      <point x="428" y="600"/>
      <point x="353" y="647"/>
      <point x="266" y="647" type="curve" smooth="yes"/>
      <point x="124" y="647"/>
      <point x="35" y="553"/>
      <point x="35" y="421" type="curve" smooth="yes"/>
      <point x="35" y="271"/>
      <point x="135" y="186"/>
    </contour>
  </outline>
</glyph>
<glyph name="a_m" format="2">
  <advance width="826"/>
  <unicode hex="1021"/>
  <note>
a_m
</note>
  <outline>
    <contour>
      <point x="250" y="140" type="curve" smooth="yes"/>
      <point x="390" y="140"/>
      <point x="452" y="207"/>
      <point x="452" y="296" type="curve" smooth="yes"/>
      <point x="452" y="362"/>
      <point x="400" y="402"/>
      <point x="331" y="412" type="curve"/>
      <point x="331" y="416" type="line"/>
      <point x="400" y="435"/>
      <point x="424" y="466"/>
      <point x="424" y="522" type="curve" smooth="yes"/>
      <point x="424" y="601"/>
      <point x="363" y="647"/>
      <point x="227" y="647" type="curve" smooth="yes"/>
      <point x="112" y="647"/>
      <point x="42" y="592"/>
      <point x="42" y="511" type="curve" smooth="yes"/>
      <point x="42" y="481"/>
      <point x="53" y="453"/>
      <point x="78" y="433" type="curve"/>
      <point x="164" y="479" type="line"/>
      <point x="155" y="487"/>
      <point x="151" y="495"/>
      <point x="151" y="505" type="curve" smooth="yes"/>
      <point x="151" y="537"/>
      <point x="181" y="550"/>
      <point x="232" y="550" type="curve" smooth="yes"/>
      <point x="267" y="550"/>
      <point x="307" y="542"/>
      <point x="307" y="501" type="curve" smooth="yes"/>
      <point x="307" y="464"/>
      <point x="272" y="447"/>
      <point x="234" y="447" type="curve" smooth="yes"/>
      <point x="227" y="447" type="line"/>
      <point x="227" y="361" type="line"/>
      <point x="240" y="361" type="line" smooth="yes"/>
      <point x="302" y="361"/>
      <point x="323" y="340"/>
      <point x="323" y="305" type="curve" smooth="yes"/>
      <point x="323" y="264"/>
      <point x="300" y="239"/>
      <point x="250" y="239" type="curve" smooth="yes"/>
      <point x="189" y="239"/>
      <point x="141" y="269"/>
      <point x="114" y="334" type="curve"/>
      <point x="19" y="285" type="line"/>
      <point x="54" y="192"/>
      <point x="136" y="140"/>
    </contour>
    <contour>
      <point x="588" y="141" type="curve" smooth="yes"/>
      <point x="726" y="141"/>
      <point x="798" y="248"/>
      <point x="798" y="394" type="curve" smooth="yes"/>
      <point x="798" y="569"/>
      <point x="682" y="648"/>
      <point x="559" y="648" type="curve" smooth="yes"/>
      <point x="466" y="648"/>
      <point x="408" y="620"/>
      <point x="367" y="586" type="curve"/>
      <point x="403" y="495" type="line"/>
      <point x="436" y="522"/>
      <point x="486" y="548"/>
      <point x="544" y="548" type="curve" smooth="yes"/>
      <point x="638" y="548"/>
      <point x="673" y="478"/>
      <point x="673" y="397" type="curve" smooth="yes"/>
      <point x="673" y="303"/>
      <point x="646" y="235"/>
      <point x="578" y="235" type="curve" smooth="yes"/>
      <point x="564" y="235"/>
      <point x="549" y="236"/>
      <point x="537" y="240" type="curve"/>
      <point x="573" y="196" type="line"/>
      <point x="590" y="313"/>
      <point x="623" y="378"/>
      <point x="700" y="385" type="curve"/>
      <point x="695" y="460" type="line"/>
      <point x="560" y="444"/>
      <point x="488" y="337"/>
      <point x="485" y="161" type="curve"/>
      <point x="513" y="148"/>
      <point x="552" y="141"/>
    </contour>
  </outline>
</glyph>
<glyph name="i_m" format="2">
  <advance width="821"/>
  <unicode hex="1023"/>
  <note>
i_m
</note>
  <outline>
    <contour>
      <point x="149" y="140" type="curve"/>
      <point x="213" y="232" type="line"/>
      <point x="174" y="276"/>
      <point x="167" y="325"/>
      <point x="167" y="389" type="curve" smooth="yes"/>
      <point x="167" y="486"/>
      <point x="201" y="548"/>
      <point x="260" y="548" type="curve" smooth="yes"/>
      <point x="318" y="548"/>
      <point x="345" y="483"/>
      <point x="345" y="381" type="curve" smooth="yes"/>
      <point x="345" y="257" type="line"/>
      <point x="477" y="257" type="line"/>
      <point x="477" y="383" type="line" smooth="yes"/>
      <point x="477" y="484"/>
      <point x="498" y="548"/>
      <point x="565" y="548" type="curve" smooth="yes"/>
      <point x="621" y="548"/>
      <point x="654" y="485"/>
      <point x="654" y="389" type="curve" smooth="yes"/>
      <point x="654" y="328"/>
      <point x="646" y="276"/>
      <point x="608" y="232" type="curve"/>
      <point x="672" y="140" type="line"/>
      <point x="740" y="186"/>
      <point x="786" y="276"/>
      <point x="786" y="390" type="curve" smooth="yes"/>
      <point x="786" y="542"/>
      <point x="702" y="647"/>
      <point x="564" y="647" type="curve" smooth="yes"/>
      <point x="480" y="647"/>
      <point x="408" y="600"/>
      <point x="392" y="513" type="curve"/>
      <point x="431" y="508" type="line"/>
      <point x="419" y="597"/>
      <point x="344" y="647"/>
      <point x="256" y="647" type="curve" smooth="yes"/>
      <point x="120" y="647"/>
      <point x="35" y="543"/>
      <point x="35" y="390" type="curve" smooth="yes"/>
      <point x="35" y="273"/>
      <point x="83" y="184"/>
    </contour>
    <contour>
      <point x="603" y="-270" type="line"/>
      <point x="733" y="-270" type="line"/>
      <point x="733" y="-186" type="line"/>
      <point x="665" y="-186" type="line"/>
      <point x="678" y="-156"/>
      <point x="686" y="-130"/>
      <point x="686" y="-83" type="curve" smooth="yes"/>
      <point x="686" y="33"/>
      <point x="624" y="107"/>
      <point x="532" y="107" type="curve" smooth="yes"/>
      <point x="462" y="107"/>
      <point x="415" y="72"/>
      <point x="394" y="2" type="curve"/>
      <point x="429" y="-1" type="line"/>
      <point x="407" y="75"/>
      <point x="361" y="107"/>
      <point x="297" y="107" type="curve" smooth="yes"/>
      <point x="191" y="107"/>
      <point x="133" y="26"/>
      <point x="133" y="-88" type="curve" smooth="yes"/>
      <point x="133" y="-177"/>
      <point x="166" y="-243"/>
      <point x="214" y="-277" type="curve"/>
      <point x="262" y="-203" type="line"/>
      <point x="244" y="-171"/>
      <point x="234" y="-135"/>
      <point x="234" y="-88" type="curve" smooth="yes"/>
      <point x="234" y="-18"/>
      <point x="257" y="24"/>
      <point x="297" y="24" type="curve" smooth="yes"/>
      <point x="343" y="24"/>
      <point x="359" y="-21"/>
      <point x="359" y="-96" type="curve" smooth="yes"/>
      <point x="359" y="-189" type="line"/>
      <point x="460" y="-189" type="line"/>
      <point x="460" y="-96" type="line" smooth="yes"/>
      <point x="460" y="-20"/>
      <point x="479" y="24"/>
      <point x="524" y="24" type="curve" smooth="yes"/>
      <point x="565" y="24"/>
      <point x="586" y="-20"/>
      <point x="586" y="-83" type="curve" smooth="yes"/>
      <point x="586" y="-137"/>
      <point x="575" y="-170"/>
      <point x="559" y="-203" type="curve"/>
    </contour>
  </outline>
</glyph>
<glyph name="ii" format="2">
  <advance width="1072"/>
  <unicode hex="1024"/>
  <note>
ii
</note>
  <outline>
    <contour>
      <point x="252" y="-270" type="curve" smooth="yes"/>
      <point x="620" y="-270" type="line" smooth="yes"/>
      <point x="741" y="-270"/>
      <point x="795" y="-207"/>
      <point x="795" y="-79" type="curve" smooth="yes"/>
      <point x="795" y="380" type="line" smooth="yes"/>
      <point x="795" y="533"/>
      <point x="746" y="647"/>
      <point x="596" y="647" type="curve" smooth="yes"/>
      <point x="498" y="647"/>
      <point x="462" y="606"/>
      <point x="422" y="565" type="curve"/>
      <point x="483" y="455" type="line"/>
      <point x="510" y="516"/>
      <point x="539" y="548"/>
      <point x="582" y="548" type="curve" smooth="yes"/>
      <point x="644" y="548"/>
      <point x="663" y="486"/>
      <point x="663" y="377" type="curve" smooth="yes"/>
      <point x="663" y="-90" type="line" smooth="yes"/>
      <point x="663" y="-143"/>
      <point x="651" y="-173"/>
      <point x="596" y="-173" type="curve" smooth="yes"/>
      <point x="257" y="-173" type="line" smooth="yes"/>
      <point x="197" y="-173"/>
      <point x="167" y="-155"/>
      <point x="167" y="-120" type="curve" smooth="yes"/>
      <point x="167" y="-82"/>
      <point x="197" y="-61"/>
      <point x="283" y="-61" type="curve" smooth="yes"/>
      <point x="387" y="-61"/>
      <point x="498" y="-79"/>
      <point x="560" y="-108" type="curve"/>
      <point x="619" y="-27" type="line"/>
      <point x="539" y="15"/>
      <point x="409" y="38"/>
      <point x="283" y="38" type="curve" smooth="yes"/>
      <point x="117" y="38"/>
      <point x="35" y="-29"/>
      <point x="35" y="-121" type="curve" smooth="yes"/>
      <point x="35" y="-211"/>
      <point x="88" y="-270"/>
    </contour>
    <contour>
      <point x="149" y="140" type="curve"/>
      <point x="213" y="232" type="line"/>
      <point x="175" y="276"/>
      <point x="167" y="325"/>
      <point x="167" y="389" type="curve" smooth="yes"/>
      <point x="167" y="485"/>
      <point x="199" y="548"/>
      <point x="265" y="548" type="curve" smooth="yes"/>
      <point x="337" y="548"/>
      <point x="365" y="483"/>
      <point x="365" y="389" type="curve" smooth="yes"/>
      <point x="365" y="326"/>
      <point x="356" y="276"/>
      <point x="318" y="232" type="curve"/>
      <point x="382" y="140" type="line"/>
      <point x="449" y="184"/>
      <point x="496" y="275"/>
      <point x="496" y="390" type="curve" smooth="yes"/>
      <point x="496" y="542"/>
      <point x="413" y="647"/>
      <point x="266" y="647" type="curve" smooth="yes"/>
      <point x="119" y="647"/>
      <point x="35" y="543"/>
      <point x="35" y="390" type="curve" smooth="yes"/>
      <point x="35" y="273"/>
      <point x="82" y="184"/>
    </contour>
    <contour>
      <point x="900" y="-270" type="line"/>
      <point x="1032" y="-270" type="line"/>
      <point x="1032" y="369" type="line" smooth="yes"/>
      <point x="1032" y="553"/>
      <point x="1004" y="640"/>
      <point x="903" y="753" type="curve" smooth="yes"/>
      <point x="861" y="800"/>
      <point x="839" y="852"/>
      <point x="839" y="893" type="curve" smooth="yes"/>
      <point x="839" y="932"/>
      <point x="853" y="954"/>
      <point x="883" y="954" type="curve" smooth="yes"/>
      <point x="910" y="954"/>
      <point x="925" y="926"/>
      <point x="938" y="879" type="curve"/>
      <point x="1045" y="922" type="line"/>
      <point x="1031" y="994"/>
      <point x="972" y="1053"/>
      <point x="876" y="1053" type="curve" smooth="yes"/>
      <point x="763" y="1053"/>
      <point x="707" y="984"/>
      <point x="707" y="893" type="curve" smooth="yes"/>
      <point x="707" y="820"/>
      <point x="742" y="748"/>
      <point x="806" y="678" type="curve" smooth="yes"/>
      <point x="876" y="602"/>
      <point x="900" y="514"/>
      <point x="900" y="373" type="curve" smooth="yes"/>
    </contour>
  </outline>
</glyph>
<glyph name="u_m" format="2">
  <advance width="515"/>
  <unicode hex="1025"/>
  <note>
u_m
</note>
  <outline>
    <contour>
      <point x="207" y="-270" type="curve" smooth="yes"/>
      <point x="286" y="-270" type="line" smooth="yes"/>
      <point x="401" y="-270"/>
      <point x="471" y="-221"/>
      <point x="471" y="-119" type="curve" smooth="yes"/>
      <point x="471" y="-31"/>
      <point x="398" y="12"/>
      <point x="318" y="12" type="curve" smooth="yes"/>
      <point x="268" y="12"/>
      <point x="231" y="-5"/>
      <point x="203" y="-32" type="curve"/>
      <point x="243" y="-109" type="line"/>
      <point x="259" y="-97"/>
      <point x="274" y="-87"/>
      <point x="296" y="-87" type="curve" smooth="yes"/>
      <point x="320" y="-87"/>
      <point x="338" y="-102"/>
      <point x="338" y="-127" type="curve" smooth="yes"/>
      <point x="338" y="-153"/>
      <point x="322" y="-171"/>
      <point x="278" y="-171" type="curve" smooth="yes"/>
      <point x="226" y="-171" type="line" smooth="yes"/>
      <point x="184" y="-171"/>
      <point x="174" y="-142"/>
      <point x="174" y="-89" type="curve" smooth="yes"/>
      <point x="174" y="170" type="line"/>
      <point x="41" y="273" type="line"/>
      <point x="41" y="-79" type="line" smooth="yes"/>
      <point x="41" y="-207"/>
      <point x="95" y="-270"/>
    </contour>
    <contour>
      <point x="243" y="141" type="curve" smooth="yes"/>
      <point x="380" y="141"/>
      <point x="480" y="245"/>
      <point x="480" y="394" type="curve" smooth="yes"/>
      <point x="480" y="541"/>
      <point x="382" y="647"/>
      <point x="243" y="647" type="curve" smooth="yes"/>
      <point x="162" y="647"/>
      <point x="87" y="596"/>
      <point x="54" y="519" type="curve"/>
      <point x="147" y="469" type="line"/>
      <point x="171" y="526"/>
      <point x="203" y="548"/>
      <point x="243" y="548" type="curve" smooth="yes"/>
      <point x="306" y="548"/>
      <point x="348" y="485"/>
      <point x="348" y="394" type="curve" smooth="yes"/>
      <point x="348" y="301"/>
      <point x="304" y="240"/>
      <point x="243" y="240" type="curve" smooth="yes"/>
      <point x="200" y="240"/>
      <point x="165" y="265"/>
      <point x="140" y="318" type="curve"/>
      <point x="40" y="273" type="line"/>
      <point x="76" y="196"/>
      <point x="151" y="141"/>
    </contour>
  </outline>
</glyph>
<glyph name="e_m" format="2">
  <advance width="520"/>
  <unicode hex="1027"/>
  <note>
e_m
</note>
  <outline>
    <contour>
      <point x="271" y="140" type="curve" smooth="yes"/>
      <point x="389" y="140"/>
      <point x="477" y="206"/>
      <point x="485" y="309" type="curve"/>
      <point x="430" y="345"/>
      <point x="371" y="370"/>
      <point x="286" y="370" type="curve" smooth="yes"/>
      <point x="238" y="370"/>
      <point x="192" y="359"/>
      <point x="167" y="341" type="curve"/>
      <point x="165" y="356"/>
      <point x="164" y="374"/>
      <point x="164" y="394" type="curve" smooth="yes"/>
      <point x="164" y="414"/>
      <point x="165" y="432"/>
      <point x="167" y="447" type="curve"/>
      <point x="192" y="429"/>
      <point x="238" y="417"/>
      <point x="286" y="417" type="curve" smooth="yes"/>
      <point x="371" y="417"/>
      <point x="430" y="442"/>
      <point x="485" y="478" type="curve"/>
      <point x="477" y="582"/>
      <point x="389" y="648"/>
      <point x="271" y="648" type="curve" smooth="yes"/>
      <point x="125" y="648"/>
      <point x="35" y="547"/>
      <point x="35" y="395" type="curve" smooth="yes"/>
      <point x="35" y="241"/>
      <point x="125" y="140"/>
    </contour>
    <contour>
      <point x="274" y="227" type="curve" smooth="yes"/>
      <point x="237" y="227"/>
      <point x="205" y="247"/>
      <point x="191" y="269" type="curve"/>
      <point x="215" y="289"/>
      <point x="246" y="298"/>
      <point x="277" y="298" type="curve" smooth="yes"/>
      <point x="306" y="298"/>
      <point x="326" y="289"/>
      <point x="347" y="271" type="curve"/>
      <point x="333" y="242"/>
      <point x="302" y="227"/>
    </contour>
    <contour>
      <point x="277" y="490" type="curve" smooth="yes"/>
      <point x="246" y="490"/>
      <point x="215" y="499"/>
      <point x="191" y="519" type="curve"/>
      <point x="205" y="541"/>
      <point x="233" y="560"/>
      <point x="274" y="560" type="curve" smooth="yes"/>
      <point x="302" y="560"/>
      <point x="333" y="546"/>
      <point x="347" y="516" type="curve"/>
      <point x="326" y="499"/>
      <point x="306" y="490"/>
    </contour>
  </outline>
</glyph>
<glyph name="e_mon" format="2">
  <advance width="552"/>
  <unicode hex="1028"/>
  <note>
e_mon
</note>
  <outline>
    <contour>
      <point x="277" y="-270" type="curve" smooth="yes"/>
      <point x="432" y="-270"/>
      <point x="514" y="-170"/>
      <point x="514" y="-12" type="curve" smooth="yes"/>
      <point x="514" y="-9" type="line"/>
      <point x="382" y="-9" type="line"/>
      <point x="382" y="-12" type="line" smooth="yes"/>
      <point x="382" y="-113"/>
      <point x="347" y="-171"/>
      <point x="278" y="-171" type="curve" smooth="yes"/>
      <point x="205" y="-171"/>
      <point x="172" y="-117"/>
      <point x="172" y="-4" type="curve" smooth="yes"/>
      <point x="172" y="381" type="line" smooth="yes"/>
      <point x="172" y="503"/>
      <point x="218" y="548"/>
      <point x="290" y="548" type="curve" smooth="yes"/>
      <point x="359" y="548"/>
      <point x="398" y="493"/>
      <point x="398" y="386" type="curve" smooth="yes"/>
      <point x="398" y="316"/>
      <point x="378" y="223"/>
      <point x="331" y="223" type="curve" smooth="yes"/>
      <point x="314" y="223"/>
      <point x="311" y="234"/>
      <point x="311" y="241" type="curve" smooth="yes"/>
      <point x="311" y="255"/>
      <point x="321" y="270"/>
      <point x="334" y="289" type="curve" smooth="yes"/>
      <point x="350" y="311"/>
      <point x="364" y="341"/>
      <point x="364" y="378" type="curve" smooth="yes"/>
      <point x="364" y="431"/>
      <point x="325" y="466"/>
      <point x="273" y="466" type="curve" smooth="yes"/>
      <point x="235" y="466"/>
      <point x="208" y="448"/>
      <point x="191" y="413" type="curve"/>
      <point x="234" y="361" type="line"/>
      <point x="242" y="374"/>
      <point x="252" y="385"/>
      <point x="264" y="385" type="curve" smooth="yes"/>
      <point x="276" y="385"/>
      <point x="282" y="377"/>
      <point x="282" y="366" type="curve" smooth="yes"/>
      <point x="282" y="352"/>
      <point x="274" y="340"/>
      <point x="262" y="327" type="curve" smooth="yes"/>
      <point x="244" y="308"/>
      <point x="212" y="279"/>
      <point x="212" y="233" type="curve" smooth="yes"/>
      <point x="212" y="177"/>
      <point x="257" y="140"/>
      <point x="328" y="140" type="curve" smooth="yes"/>
      <point x="436" y="140"/>
      <point x="514" y="249"/>
      <point x="514" y="393" type="curve" smooth="yes"/>
      <point x="514" y="550"/>
      <point x="431" y="647"/>
      <point x="288" y="647" type="curve" smooth="yes"/>
      <point x="127" y="647"/>
      <point x="40" y="544"/>
      <point x="40" y="380" type="curve" smooth="yes"/>
      <point x="40" y="-3" type="line" smooth="yes"/>
      <point x="40" y="-169"/>
      <point x="125" y="-270"/>
    </contour>
  </outline>
</glyph>
<glyph name="o_m" format="2">
  <advance width="1053"/>
  <unicode hex="1029"/>
  <note>
o_m
</note>
  <outline>
    <contour>
      <point x="206" y="-270" type="curve" smooth="yes"/>
      <point x="838" y="-270" type="line" smooth="yes"/>
      <point x="948" y="-270"/>
      <point x="1003" y="-206"/>
      <point x="1003" y="-74" type="curve" smooth="yes"/>
      <point x="1003" y="304" type="line"/>
      <point x="911" y="304" type="line"/>
      <point x="911" y="-86" type="line" smooth="yes"/>
      <point x="911" y="-142"/>
      <point x="900" y="-171"/>
      <point x="859" y="-171" type="curve" smooth="yes"/>
      <point x="224" y="-171" type="line" smooth="yes"/>
      <point x="184" y="-171"/>
      <point x="172" y="-142"/>
      <point x="172" y="-86" type="curve" smooth="yes"/>
      <point x="172" y="868" type="line" smooth="yes"/>
      <point x="172" y="924"/>
      <point x="184" y="954"/>
      <point x="224" y="954" type="curve" smooth="yes"/>
      <point x="859" y="954" type="line" smooth="yes"/>
      <point x="900" y="954"/>
      <point x="911" y="924"/>
      <point x="911" y="868" type="curve" smooth="yes"/>
      <point x="911" y="829" type="line"/>
      <point x="1003" y="829" type="line"/>
      <point x="1003" y="856" type="line" smooth="yes"/>
      <point x="1003" y="987"/>
      <point x="948" y="1053"/>
      <point x="838" y="1053" type="curve" smooth="yes"/>
      <point x="206" y="1053" type="line" smooth="yes"/>
      <point x="96" y="1053"/>
      <point x="40" y="987"/>
      <point x="40" y="856" type="curve" smooth="yes"/>
      <point x="40" y="-74" type="line" smooth="yes"/>
      <point x="40" y="-206"/>
      <point x="96" y="-270"/>
    </contour>
    <contour>
      <point x="450" y="141" type="curve" smooth="yes"/>
      <point x="587" y="141"/>
      <point x="687" y="245"/>
      <point x="687" y="394" type="curve" smooth="yes"/>
      <point x="687" y="541"/>
      <point x="589" y="647"/>
      <point x="450" y="647" type="curve" smooth="yes"/>
      <point x="369" y="647"/>
      <point x="294" y="596"/>
      <point x="261" y="519" type="curve"/>
      <point x="349" y="469" type="line"/>
      <point x="374" y="526"/>
      <point x="403" y="548"/>
      <point x="444" y="548" type="curve" smooth="yes"/>
      <point x="513" y="548"/>
      <point x="555" y="485"/>
      <point x="555" y="394" type="curve" smooth="yes"/>
      <point x="555" y="301"/>
      <point x="511" y="240"/>
      <point x="444" y="240" type="curve" smooth="yes"/>
      <point x="399" y="240"/>
      <point x="368" y="265"/>
      <point x="342" y="318" type="curve"/>
      <point x="247" y="273" type="line"/>
      <point x="283" y="196"/>
      <point x="358" y="141"/>
    </contour>
    <contour>
      <point x="798" y="140" type="curve" smooth="yes"/>
      <point x="929" y="140"/>
      <point x="1018" y="245"/>
      <point x="1018" y="393" type="curve" smooth="yes"/>
      <point x="1018" y="543"/>
      <point x="953" y="647"/>
      <point x="815" y="647" type="curve" smooth="yes"/>
      <point x="765" y="647"/>
      <point x="739" y="636"/>
      <point x="714" y="620" type="curve"/>
      <point x="756" y="532" type="line"/>
      <point x="772" y="544"/>
      <point x="788" y="548"/>
      <point x="808" y="548" type="curve" smooth="yes"/>
      <point x="855" y="548"/>
      <point x="886" y="487"/>
      <point x="886" y="394" type="curve" smooth="yes"/>
      <point x="886" y="303"/>
      <point x="851" y="239"/>
      <point x="792" y="239" type="curve" smooth="yes"/>
      <point x="737" y="239"/>
      <point x="700" y="276"/>
      <point x="661" y="337" type="curve"/>
      <point x="608" y="235" type="line"/>
      <point x="658" y="179"/>
      <point x="711" y="140"/>
    </contour>
  </outline>
</glyph>
<glyph name="_tall_aa" format="2">
  <advance width="212"/>
  <unicode hex="102B"/>
  <note>
_tall_aa
</note>
  <outline>
    <contour>
      <point x="40" y="149" type="line"/>
      <point x="172" y="149" type="line"/>
      <point x="172" y="834" type="line" smooth="yes"/>
      <point x="172" y="972"/>
      <point x="96" y="1053"/>
      <point x="-42" y="1053" type="curve" smooth="yes"/>
      <point x="-178" y="1053"/>
      <point x="-254" y="973"/>
      <point x="-254" y="842" type="curve" smooth="yes"/>
      <point x="-254" y="831" type="line"/>
      <point x="-122" y="831" type="line"/>
      <point x="-122" y="841" type="line" smooth="yes"/>
      <point x="-122" y="919"/>
      <point x="-89" y="954"/>
      <point x="-41" y="954" type="curve" smooth="yes"/>
      <point x="18" y="954"/>
      <point x="40" y="917"/>
      <point x="40" y="832" type="curve" smooth="yes"/>
    </contour>
  </outline>
</glyph>
<glyph name="_aa" format="2">
  <advance width="357"/>
  <unicode hex="102C"/>
  <note>
_aa
</note>
  <outline>
    <contour>
      <point x="134" y="140" type="curve" smooth="yes"/>
      <point x="238" y="140"/>
      <point x="322" y="237"/>
      <point x="322" y="394" type="curve" smooth="yes"/>
      <point x="322" y="545"/>
      <point x="227" y="647"/>
      <point x="71" y="647" type="curve" smooth="yes"/>
      <point x="-12" y="647"/>
      <point x="-80" y="608"/>
      <point x="-133" y="557" type="curve"/>
      <point x="-73" y="478" type="line"/>
      <point x="-24" y="522"/>
      <point x="9" y="548"/>
      <point x="68" y="548" type="curve" smooth="yes"/>
      <point x="142" y="548"/>
      <point x="190" y="487"/>
      <point x="190" y="388" type="curve" smooth="yes"/>
      <point x="190" y="298"/>
      <point x="166" y="239"/>
      <point x="123" y="239" type="curve" smooth="yes"/>
      <point x="105" y="239"/>
      <point x="84" y="244"/>
      <point x="68" y="253" type="curve"/>
      <point x="25" y="167" type="line"/>
      <point x="50" y="147"/>
      <point x="102" y="140"/>
    </contour>
  </outline>
</glyph>
<glyph name="_i" format="2">
  <unicode hex="102D"/>
  <note>
_i
</note>
  <outline>
    <contour>
      <point x="-252" y="712" type="curve" smooth="yes"/>
      <point x="-141" y="712"/>
      <point x="-80" y="784"/>
      <point x="-80" y="881" type="curve" smooth="yes"/>
      <point x="-80" y="977"/>
      <point x="-138" y="1053"/>
      <point x="-252" y="1053" type="curve" smooth="yes"/>
      <point x="-367" y="1053"/>
      <point x="-425" y="980"/>
      <point x="-425" y="883" type="curve" smooth="yes"/>
      <point x="-425" y="784"/>
      <point x="-354" y="712"/>
    </contour>
    <contour>
      <point x="-253" y="784" type="curve" smooth="yes"/>
      <point x="-293" y="784"/>
      <point x="-314" y="827"/>
      <point x="-314" y="882" type="curve" smooth="yes"/>
      <point x="-314" y="937"/>
      <point x="-303" y="980"/>
      <point x="-253" y="980" type="curve" smooth="yes"/>
      <point x="-202" y="980"/>
      <point x="-191" y="936"/>
      <point x="-191" y="880" type="curve" smooth="yes"/>
      <point x="-191" y="826"/>
      <point x="-202" y="784"/>
    </contour>
  </outline>
</glyph>
<glyph name="_ii" format="2">
  <unicode hex="102E"/>
  <note>
_ii
</note>
  <outline>
    <contour>
      <point x="-237" y="712" type="curve" smooth="yes"/>
      <point x="-141" y="712"/>
      <point x="-90" y="783"/>
      <point x="-90" y="882" type="curve" smooth="yes"/>
      <point x="-90" y="978"/>
      <point x="-138" y="1053"/>
      <point x="-238" y="1053" type="curve" smooth="yes"/>
      <point x="-338" y="1053"/>
      <point x="-387" y="981"/>
      <point x="-387" y="883" type="curve" smooth="yes"/>
      <point x="-387" y="784"/>
      <point x="-333" y="712"/>
    </contour>
    <contour>
      <point x="-237" y="783" type="curve" smooth="yes"/>
      <point x="-278" y="783"/>
      <point x="-298" y="820"/>
      <point x="-298" y="883" type="curve" smooth="yes"/>
      <point x="-298" y="939"/>
      <point x="-281" y="980"/>
      <point x="-239" y="980" type="curve" smooth="yes"/>
      <point x="-197" y="980"/>
      <point x="-179" y="937"/>
      <point x="-179" y="881" type="curve" smooth="yes"/>
      <point x="-179" y="828"/>
      <point x="-193" y="783"/>
    </contour>
    <contour>
      <point x="-300" y="825" type="line"/>
      <point x="-280" y="841"/>
      <point x="-261" y="851"/>
      <point x="-238" y="851" type="curve" smooth="yes"/>
      <point x="-215" y="851"/>
      <point x="-195" y="841"/>
      <point x="-177" y="827" type="curve"/>
      <point x="-169" y="872" type="line"/>
      <point x="-189" y="886"/>
      <point x="-215" y="898"/>
      <point x="-238" y="898" type="curve" smooth="yes"/>
      <point x="-261" y="898"/>
      <point x="-284" y="886"/>
      <point x="-306" y="871" type="curve"/>
    </contour>
  </outline>
</glyph>
<glyph name="_u" format="2">
  <unicode hex="102F"/>
  <note>
_u
</note>
  <outline>
    <contour>
      <point x="-274" y="-270" type="line"/>
      <point x="-100" y="-270" type="line"/>
      <point x="-100" y="-191" type="line"/>
      <point x="-195" y="-191" type="line"/>
      <point x="-195" y="106" type="line"/>
      <point x="-274" y="106" type="line"/>
    </contour>
  </outline>
</glyph>
<glyph name="_uu" format="2">
  <unicode hex="1030"/>
  <note>
_uu
</note>
  <outline>
    <contour>
      <point x="-233" y="-270" type="line"/>
      <point x="-64" y="-270" type="line"/>
      <point x="-64" y="-191" type="line"/>
      <point x="-154" y="-191" type="line"/>
      <point x="-154" y="106" type="line"/>
      <point x="-233" y="106" type="line"/>
    </contour>
    <contour>
      <point x="-362" y="-270" type="line"/>
      <point x="-284" y="-270" type="line"/>
      <point x="-284" y="106" type="line"/>
      <point x="-362" y="106" type="line"/>
    </contour>
  </outline>
</glyph>
<glyph name="_e" format="2">
  <advance width="513"/>
  <unicode hex="1031"/>
  <note>
_e
</note>
  <outline>
    <contour>
      <point x="262" y="140" type="curve" smooth="yes"/>
      <point x="390" y="140"/>
      <point x="480" y="215"/>
      <point x="493" y="334" type="curve"/>
      <point x="430" y="380"/>
      <point x="364" y="406"/>
      <point x="280" y="406" type="curve" smooth="yes"/>
      <point x="233" y="406"/>
      <point x="192" y="393"/>
      <point x="140" y="354" type="curve"/>
      <point x="156" y="280" type="line"/>
      <point x="193" y="310"/>
      <point x="230" y="325"/>
      <point x="271" y="325" type="curve" smooth="yes"/>
      <point x="297" y="325"/>
      <point x="326" y="313"/>
      <point x="355" y="292" type="curve"/>
      <point x="344" y="258"/>
      <point x="305" y="235"/>
      <point x="268" y="235" type="curve" smooth="yes"/>
      <point x="184" y="235"/>
      <point x="164" y="300"/>
      <point x="164" y="394" type="curve" smooth="yes"/>
      <point x="164" y="493"/>
      <point x="201" y="548"/>
      <point x="274" y="548" type="curve" smooth="yes"/>
      <point x="321" y="548"/>
      <point x="380" y="531"/>
      <point x="435" y="487" type="curve"/>
      <point x="485" y="569" type="line"/>
      <point x="437" y="604"/>
      <point x="363" y="647"/>
      <point x="277" y="647" type="curve" smooth="yes"/>
      <point x="123" y="647"/>
      <point x="35" y="545"/>
      <point x="35" y="394" type="curve" smooth="yes"/>
      <point x="35" y="239"/>
      <point x="130" y="140"/>
    </contour>
  </outline>
</glyph>
<glyph name="_ai" format="2">
  <unicode hex="1032"/>
  <note>
_ai
</note>
  <outline>
    <contour>
      <point x="-157" y="737" type="line"/>
      <point x="-87" y="804" type="line"/>
      <point x="-251" y="967" type="line"/>
      <point x="-321" y="900" type="line"/>
    </contour>
  </outline>
</glyph>
<glyph name="_ii_mon" format="2">
  <unicode hex="1033"/>
  <note>
_ii_mon
</note>
  <outline>
    <contour>
      <point x="-245" y="712" type="curve" smooth="yes"/>
      <point x="-138" y="712"/>
      <point x="-82" y="784"/>
      <point x="-82" y="882" type="curve" smooth="yes"/>
      <point x="-82" y="979"/>
      <point x="-144" y="1053"/>
      <point x="-245" y="1053" type="curve" smooth="yes"/>
      <point x="-351" y="1053"/>
      <point x="-411" y="980"/>
      <point x="-411" y="882" type="curve" smooth="yes"/>
      <point x="-411" y="784"/>
      <point x="-352" y="712"/>
    </contour>
    <contour>
      <point x="-245" y="766" type="curve" smooth="yes"/>
      <point x="-318" y="766"/>
      <point x="-354" y="813"/>
      <point x="-354" y="882" type="curve" smooth="yes"/>
      <point x="-354" y="953"/>
      <point x="-310" y="1000"/>
      <point x="-245" y="1000" type="curve" smooth="yes"/>
      <point x="-183" y="1000"/>
      <point x="-139" y="952"/>
      <point x="-139" y="882" type="curve" smooth="yes"/>
      <point x="-139" y="814"/>
      <point x="-178" y="766"/>
    </contour>
    <contour>
      <point x="-245" y="802" type="curve" smooth="yes"/>
      <point x="-201" y="802"/>
      <point x="-177" y="834"/>
      <point x="-177" y="882" type="curve" smooth="yes"/>
      <point x="-177" y="928"/>
      <point x="-201" y="963"/>
      <point x="-245" y="963" type="curve" smooth="yes"/>
      <point x="-288" y="963"/>
      <point x="-314" y="929"/>
      <point x="-314" y="882" type="curve" smooth="yes"/>
      <point x="-314" y="836"/>
      <point x="-292" y="802"/>
    </contour>
    <contour>
      <point x="-247" y="846" type="curve" smooth="yes"/>
      <point x="-265" y="846"/>
      <point x="-276" y="861"/>
      <point x="-276" y="882" type="curve" smooth="yes"/>
      <point x="-276" y="905"/>
      <point x="-265" y="919"/>
      <point x="-247" y="919" type="curve" smooth="yes"/>
      <point x="-230" y="919"/>
      <point x="-218" y="905"/>
      <point x="-218" y="882" type="curve" smooth="yes"/>
      <point x="-218" y="861"/>
      <point x="-229" y="846"/>
    </contour>
  </outline>
</glyph>
<glyph name="_o_mon" format="2">
  <unicode hex="1034"/>
  <note>
_o_mon
</note>
  <outline>
    <contour>
      <point x="-314" y="716" type="line"/>
      <point x="-141" y="883" type="line"/>
      <point x="-205" y="955" type="line"/>
      <point x="-378" y="788" type="line"/>
    </contour>
  </outline>
</glyph>
<glyph name="_e_above" format="2">
  <unicode hex="1035"/>
  <note>
_e_above
</note>
  <outline>
    <contour>
      <point x="-215" y="712" type="curve" smooth="yes"/>
      <point x="-148" y="712"/>
      <point x="-92" y="756"/>
      <point x="-73" y="829" type="curve"/>
      <point x="-105" y="867"/>
      <point x="-153" y="898"/>
      <point x="-200" y="898" type="curve" smooth="yes"/>
      <point x="-239" y="898"/>
      <point x="-268" y="886"/>
      <point x="-287" y="872" type="curve"/>
      <point x="-272" y="815" type="line"/>
      <point x="-256" y="838"/>
      <point x="-237" y="848"/>
      <point x="-215" y="848" type="curve" smooth="yes"/>
      <point x="-195" y="848"/>
      <point x="-176" y="839"/>
      <point x="-166" y="827" type="curve"/>
      <point x="-175" y="800"/>
      <point x="-192" y="783"/>
      <point x="-217" y="783" type="curve" smooth="yes"/>
      <point x="-258" y="783"/>
      <point x="-273" y="820"/>
      <point x="-273" y="883" type="curve" smooth="yes"/>
      <point x="-273" y="938"/>
      <point x="-257" y="980"/>
      <point x="-212" y="980" type="curve" smooth="yes"/>
      <point x="-180" y="980"/>
      <point x="-161" y="954"/>
      <point x="-151" y="926" type="curve"/>
      <point x="-81" y="960" type="line"/>
      <point x="-103" y="1019"/>
      <point x="-150" y="1053"/>
      <point x="-218" y="1053" type="curve" smooth="yes"/>
      <point x="-309" y="1053"/>
      <point x="-363" y="977"/>
      <point x="-363" y="883" type="curve" smooth="yes"/>
      <point x="-363" y="784"/>
      <point x="-304" y="712"/>
    </contour>
  </outline>
</glyph>
<glyph name="anusvara" format="2">
  <unicode hex="1036"/>
  <note>
anusvara
</note>
  <outline>
    <contour>
      <point x="-246" y="706" type="curve" smooth="yes"/>
      <point x="-186" y="706"/>
      <point x="-143" y="744"/>
      <point x="-143" y="811" type="curve" smooth="yes"/>
      <point x="-143" y="871"/>
      <point x="-184" y="913"/>
      <point x="-246" y="913" type="curve" smooth="yes"/>
      <point x="-306" y="913"/>
      <point x="-347" y="874"/>
      <point x="-347" y="810" type="curve" smooth="yes"/>
      <point x="-347" y="744"/>
      <point x="-306" y="706"/>
    </contour>
    <contour>
      <point x="-244" y="768" type="curve" smooth="yes"/>
      <point x="-267" y="768"/>
      <point x="-278" y="784"/>
      <point x="-278" y="810" type="curve" smooth="yes"/>
      <point x="-278" y="836"/>
      <point x="-264" y="849"/>
      <point x="-244" y="849" type="curve" smooth="yes"/>
      <point x="-225" y="849"/>
      <point x="-212" y="836"/>
      <point x="-212" y="810" type="curve" smooth="yes"/>
      <point x="-212" y="784"/>
      <point x="-225" y="768"/>
    </contour>
  </outline>
</glyph>
<glyph name="dot_below" format="2">
  <unicode hex="1037"/>
  <note>
dot_below
</note>
  <outline>
    <contour>
      <point x="-255" y="-132" type="curve" smooth="yes"/>
      <point x="-195" y="-132"/>
      <point x="-152" y="-94"/>
      <point x="-152" y="-27" type="curve" smooth="yes"/>
      <point x="-152" y="34"/>
      <point x="-193" y="74"/>
      <point x="-255" y="74" type="curve" smooth="yes"/>
      <point x="-315" y="74"/>
      <point x="-356" y="36"/>
      <point x="-356" y="-28" type="curve" smooth="yes"/>
      <point x="-356" y="-95"/>
      <point x="-315" y="-132"/>
    </contour>
    <contour>
      <point x="-253" y="-69" type="curve" smooth="yes"/>
      <point x="-276" y="-69"/>
      <point x="-287" y="-54"/>
      <point x="-287" y="-28" type="curve" smooth="yes"/>
      <point x="-287" y="-2"/>
      <point x="-272" y="12"/>
      <point x="-253" y="12" type="curve" smooth="yes"/>
      <point x="-234" y="12"/>
      <point x="-221" y="-2"/>
      <point x="-221" y="-28" type="curve" smooth="yes"/>
      <point x="-221" y="-54"/>
      <point x="-234" y="-69"/>
    </contour>
  </outline>
</glyph>
<glyph name="visarga" format="2">
  <advance width="297"/>
  <unicode hex="1038"/>
  <note>
visarga
</note>
  <outline>
    <contour>
      <point x="147" y="426" type="curve" smooth="yes"/>
      <point x="207" y="426"/>
      <point x="250" y="463"/>
      <point x="250" y="531" type="curve" smooth="yes"/>
      <point x="250" y="591"/>
      <point x="208" y="632"/>
      <point x="147" y="632" type="curve" smooth="yes"/>
      <point x="88" y="632"/>
      <point x="46" y="594"/>
      <point x="46" y="530" type="curve" smooth="yes"/>
      <point x="46" y="463"/>
      <point x="87" y="426"/>
    </contour>
    <contour>
      <point x="147" y="140" type="curve" smooth="yes"/>
      <point x="207" y="140"/>
      <point x="250" y="178"/>
      <point x="250" y="244" type="curve" smooth="yes"/>
      <point x="250" y="305"/>
      <point x="208" y="346"/>
      <point x="147" y="346" type="curve" smooth="yes"/>
      <point x="88" y="346"/>
      <point x="46" y="307"/>
      <point x="46" y="244" type="curve" smooth="yes"/>
      <point x="46" y="178"/>
      <point x="87" y="140"/>
    </contour>
    <contour>
      <point x="149" y="202" type="curve" smooth="yes"/>
      <point x="126" y="202"/>
      <point x="115" y="218"/>
      <point x="115" y="244" type="curve" smooth="yes"/>
      <point x="115" y="270"/>
      <point x="130" y="283"/>
      <point x="149" y="283" type="curve" smooth="yes"/>
      <point x="168" y="283"/>
      <point x="181" y="270"/>
      <point x="181" y="244" type="curve" smooth="yes"/>
      <point x="181" y="218"/>
      <point x="168" y="202"/>
    </contour>
    <contour>
      <point x="149" y="488" type="curve" smooth="yes"/>
      <point x="126" y="488"/>
      <point x="115" y="505"/>
      <point x="115" y="530" type="curve" smooth="yes"/>
      <point x="115" y="556"/>
      <point x="130" y="569"/>
      <point x="149" y="569" type="curve" smooth="yes"/>
      <point x="168" y="569"/>
      <point x="181" y="556"/>
      <point x="181" y="530" type="curve" smooth="yes"/>
      <point x="181" y="505"/>
      <point x="168" y="488"/>
    </contour>
  </outline>
</glyph>
<glyph name="virama" format="2">
  <unicode hex="1039"/>
  <note>
virama
</note>
  <outline>
    <contour>
      <point x="-289" y="-238" type="line"/>
      <point x="-187" y="-238" type="line"/>
      <point x="-187" y="-128" type="line"/>
      <point x="-99" y="-128" type="line"/>
      <point x="-99" y="-49" type="line"/>
      <point x="-187" y="-49" type="line"/>
      <point x="-187" y="61" type="line"/>
      <point x="-289" y="61" type="line"/>
      <point x="-289" y="-49" type="line"/>
      <point x="-376" y="-49" type="line"/>
      <point x="-376" y="-128" type="line"/>
      <point x="-289" y="-128" type="line"/>
    </contour>
  </outline>
</glyph>
<glyph name="asat" format="2">
  <unicode hex="103A"/>
  <note>
asat
</note>
  <outline>
    <contour>
      <point x="-292" y="712" type="curve"/>
      <point x="-225" y="771" type="line"/>
      <point x="-269" y="812"/>
      <point x="-286" y="848"/>
      <point x="-286" y="900" type="curve" smooth="yes"/>
      <point x="-286" y="945"/>
      <point x="-265" y="975"/>
      <point x="-234" y="975" type="curve" smooth="yes"/>
      <point x="-208" y="975"/>
      <point x="-192" y="954"/>
      <point x="-181" y="934" type="curve"/>
      <point x="-107" y="981" type="line"/>
      <point x="-128" y="1024"/>
      <point x="-173" y="1053"/>
      <point x="-238" y="1053" type="curve" smooth="yes"/>
      <point x="-325" y="1053"/>
      <point x="-387" y="1001"/>
      <point x="-387" y="902" type="curve" smooth="yes"/>
      <point x="-387" y="816"/>
      <point x="-343" y="764"/>
    </contour>
  </outline>
</glyph>
<glyph name="medial_ya" format="2">
  <advance width="212"/>
  <unicode hex="103B"/>
  <note>
medial_ya
</note>
  <outline>
    <contour>
      <point x="172" y="-270" type="line"/>
      <point x="172" y="637" type="line"/>
      <point x="40" y="637" type="line"/>
      <point x="40" y="-126" type="line"/>
      <point x="-97" y="-83" type="line"/>
      <point x="-97" y="285" type="line"/>
      <point x="-189" y="285" type="line"/>
      <point x="-189" y="-151" type="line"/>
    </contour>
  </outline>
</glyph>
<glyph name="medial_wa" format="2">
  <unicode hex="103D"/>
  <note>
medial_wa
</note>
  <outline>
    <contour>
      <point x="-246" y="-243" type="curve" smooth="yes"/>
      <point x="-139" y="-243"/>
      <point x="-82" y="-167"/>
      <point x="-82" y="-70" type="curve" smooth="yes"/>
      <point x="-82" y="29"/>
      <point x="-139" y="106"/>
      <point x="-242" y="106" type="curve" smooth="yes"/>
      <point x="-344" y="106"/>
      <point x="-402" y="33"/>
      <point x="-402" y="-69" type="curve" smooth="yes"/>
      <point x="-402" y="-171"/>
      <point x="-341" y="-243"/>
    </contour>
    <contour>
      <point x="-242" y="-166" type="curve" smooth="yes"/>
      <point x="-287" y="-166"/>
      <point x="-301" y="-125"/>
      <point x="-301" y="-70" type="curve" smooth="yes"/>
      <point x="-301" y="-9"/>
      <point x="-286" y="28"/>
      <point x="-242" y="28" type="curve" smooth="yes"/>
      <point x="-198" y="28"/>
      <point x="-182" y="-12"/>
      <point x="-182" y="-70" type="curve" smooth="yes"/>
      <point x="-182" y="-126"/>
      <point x="-197" y="-166"/>
    </contour>
  </outline>
</glyph>
<glyph name="medial_ha" format="2">
  <unicode hex="103E"/>
  <note>
medial_ha
</note>
  <outline>
    <contour>
      <point x="-371" y="-270" type="line"/>
      <point x="-197" y="-270" type="line"/>
      <point x="-197" y="106" type="line"/>
      <point x="-276" y="106" type="line"/>
      <point x="-276" y="-191" type="line"/>
      <point x="-371" y="-191" type="line"/>
    </contour>
  </outline>
</glyph>
<glyph name="great_sa" format="2">
  <advance width="1172"/>
  <unicode hex="103F"/>
  <note>
great_sa
</note>
  <outline>
    <contour>
      <point x="238" y="141" type="curve" smooth="yes"/>
      <point x="375" y="141"/>
      <point x="475" y="245"/>
      <point x="475" y="394" type="curve" smooth="yes"/>
      <point x="475" y="541"/>
      <point x="377" y="647"/>
      <point x="238" y="647" type="curve" smooth="yes"/>
      <point x="157" y="647"/>
      <point x="82" y="596"/>
      <point x="49" y="519" type="curve"/>
      <point x="137" y="469" type="line"/>
      <point x="162" y="526"/>
      <point x="191" y="548"/>
      <point x="232" y="548" type="curve" smooth="yes"/>
      <point x="301" y="548"/>
      <point x="343" y="485"/>
      <point x="343" y="394" type="curve" smooth="yes"/>
      <point x="343" y="301"/>
      <point x="299" y="240"/>
      <point x="232" y="240" type="curve" smooth="yes"/>
      <point x="187" y="240"/>
      <point x="156" y="265"/>
      <point x="130" y="318" type="curve"/>
      <point x="35" y="273" type="line"/>
      <point x="71" y="196"/>
      <point x="146" y="141"/>
    </contour>
    <contour>
      <point x="586" y="140" type="curve" smooth="yes"/>
      <point x="717" y="140"/>
      <point x="806" y="245"/>
      <point x="806" y="393" type="curve" smooth="yes"/>
      <point x="806" y="543"/>
      <point x="741" y="647"/>
      <point x="603" y="647" type="curve" smooth="yes"/>
      <point x="553" y="647"/>
      <point x="527" y="636"/>
      <point x="502" y="620" type="curve"/>
      <point x="544" y="532" type="line"/>
      <point x="560" y="544"/>
      <point x="576" y="548"/>
      <point x="596" y="548" type="curve" smooth="yes"/>
      <point x="643" y="548"/>
      <point x="674" y="487"/>
      <point x="674" y="394" type="curve" smooth="yes"/>
      <point x="674" y="303"/>
      <point x="639" y="239"/>
      <point x="580" y="239" type="curve" smooth="yes"/>
      <point x="525" y="239"/>
      <point x="488" y="276"/>
      <point x="449" y="337" type="curve"/>
      <point x="396" y="235" type="line"/>
      <point x="446" y="179"/>
      <point x="499" y="140"/>
    </contour>
    <contour>
      <point x="917" y="140" type="curve" smooth="yes"/>
      <point x="1048" y="140"/>
      <point x="1137" y="245"/>
      <point x="1137" y="393" type="curve" smooth="yes"/>
      <point x="1137" y="543"/>
      <point x="1072" y="647"/>
      <point x="934" y="647" type="curve" smooth="yes"/>
      <point x="884" y="647"/>
      <point x="858" y="636"/>
      <point x="833" y="620" type="curve"/>
      <point x="875" y="532" type="line"/>
      <point x="891" y="544"/>
      <point x="907" y="548"/>
      <point x="927" y="548" type="curve" smooth="yes"/>
      <point x="974" y="548"/>
      <point x="1005" y="487"/>
      <point x="1005" y="394" type="curve" smooth="yes"/>
      <point x="1005" y="303"/>
      <point x="970" y="239"/>
      <point x="911" y="239" type="curve" smooth="yes"/>
      <point x="856" y="239"/>
      <point x="819" y="276"/>
      <point x="780" y="337" type="curve"/>
      <point x="727" y="235" type="line"/>
      <point x="777" y="179"/>
      <point x="830" y="140"/>
    </contour>
  </outline>
</glyph>
<glyph name="zero_m" format="2">
  <advance width="539"/>
  <unicode hex="1040"/>
  <note>
zero_m
</note>
  <outline>
    <contour>
      <point x="271" y="140" type="curve" smooth="yes"/>
      <point x="408" y="140"/>
      <point x="504" y="244"/>
      <point x="504" y="393" type="curve" smooth="yes"/>
      <point x="504" y="537"/>
      <point x="411" y="647"/>
      <point x="270" y="647" type="curve" smooth="yes"/>
      <point x="133" y="647"/>
      <point x="35" y="541"/>
      <point x="35" y="393" type="curve" smooth="yes"/>
      <point x="35" y="244"/>
      <point x="133" y="140"/>
    </contour>
    <contour>
      <point x="269" y="235" type="curve" smooth="yes"/>
      <point x="205" y="235"/>
      <point x="167" y="298"/>
      <point x="167" y="393" type="curve" smooth="yes"/>
      <point x="167" y="488"/>
      <point x="207" y="552"/>
      <point x="269" y="552" type="curve" smooth="yes"/>
      <point x="329" y="552"/>
      <point x="373" y="489"/>
      <point x="373" y="393" type="curve" smooth="yes"/>
      <point x="373" y="298"/>
      <point x="333" y="235"/>
    </contour>
  </outline>
</glyph>
<glyph name="one_m" format="2">
  <advance width="510"/>
  <unicode hex="1041"/>
  <note>
one_m
</note>
  <outline>
    <contour>
      <point x="238" y="141" type="curve" smooth="yes"/>
      <point x="375" y="141"/>
      <point x="475" y="245"/>
      <point x="475" y="394" type="curve" smooth="yes"/>
      <point x="475" y="541"/>
      <point x="377" y="647"/>
      <point x="238" y="647" type="curve" smooth="yes"/>
      <point x="157" y="647"/>
      <point x="82" y="596"/>
      <point x="49" y="519" type="curve"/>
      <point x="137" y="469" type="line"/>
      <point x="162" y="526"/>
      <point x="191" y="548"/>
      <point x="232" y="548" type="curve" smooth="yes"/>
      <point x="301" y="548"/>
      <point x="343" y="485"/>
      <point x="343" y="394" type="curve" smooth="yes"/>
      <point x="343" y="301"/>
      <point x="299" y="240"/>
      <point x="232" y="240" type="curve" smooth="yes"/>
      <point x="187" y="240"/>
      <point x="156" y="265"/>
      <point x="130" y="318" type="curve"/>
      <point x="35" y="273" type="line"/>
      <point x="71" y="196"/>
      <point x="146" y="141"/>
    </contour>
  </outline>
</glyph>
<glyph name="two_m" format="2">
  <advance width="552"/>
  <unicode hex="1042"/>
  <note>
two_m
</note>
  <outline>
    <contour>
      <point x="275" y="-270" type="curve" smooth="yes"/>
      <point x="427" y="-270"/>
      <point x="512" y="-169"/>
      <point x="512" y="-3" type="curve" smooth="yes"/>
      <point x="512" y="640" type="line"/>
      <point x="380" y="640" type="line" smooth="yes"/>
      <point x="380" y="-4" type="line" smooth="yes"/>
      <point x="380" y="-117"/>
      <point x="347" y="-171"/>
      <point x="274" y="-171" type="curve" smooth="yes"/>
      <point x="205" y="-171"/>
      <point x="170" y="-113"/>
      <point x="170" y="-12" type="curve" smooth="yes"/>
      <point x="170" y="-9" type="line"/>
      <point x="38" y="-9" type="line"/>
      <point x="38" y="-12" type="line" smooth="yes"/>
      <point x="38" y="-170"/>
      <point x="120" y="-270"/>
    </contour>
  </outline>
</glyph>
<glyph name="three_m" format="2">
  <advance width="510"/>
  <unicode hex="1043"/>
  <note>
three_m
</note>
  <outline>
    <contour>
      <point x="274" y="-270" type="line"/>
      <point x="405" y="-270" type="line"/>
      <point x="283" y="-11" type="line" smooth="yes"/>
      <point x="251" y="57"/>
      <point x="232" y="103"/>
      <point x="189" y="167" type="curve"/>
      <point x="169" y="149" type="line"/>
      <point x="188" y="142"/>
      <point x="215" y="141"/>
      <point x="238" y="141" type="curve" smooth="yes"/>
      <point x="375" y="141"/>
      <point x="475" y="245"/>
      <point x="475" y="394" type="curve" smooth="yes"/>
      <point x="475" y="541"/>
      <point x="377" y="647"/>
      <point x="238" y="647" type="curve" smooth="yes"/>
      <point x="157" y="647"/>
      <point x="82" y="596"/>
      <point x="49" y="519" type="curve"/>
      <point x="142" y="469" type="line"/>
      <point x="166" y="526"/>
      <point x="198" y="548"/>
      <point x="237" y="548" type="curve" smooth="yes"/>
      <point x="301" y="548"/>
      <point x="343" y="485"/>
      <point x="343" y="394" type="curve" smooth="yes"/>
      <point x="343" y="301"/>
      <point x="299" y="240"/>
      <point x="237" y="240" type="curve" smooth="yes"/>
      <point x="194" y="240"/>
      <point x="160" y="265"/>
      <point x="135" y="318" type="curve"/>
      <point x="35" y="273" type="line"/>
    </contour>
  </outline>
</glyph>
<glyph name="four_m" format="2">
  <advance width="510"/>
  <unicode hex="1044"/>
  <note>
four_m
</note>
  <outline>
    <contour>
      <point x="105" y="-270" type="line"/>
      <point x="236" y="-270" type="line"/>
      <point x="475" y="273" type="line"/>
      <point x="375" y="318" type="line"/>
      <point x="350" y="265"/>
      <point x="321" y="240"/>
      <point x="278" y="240" type="curve" smooth="yes"/>
      <point x="211" y="240"/>
      <point x="167" y="301"/>
      <point x="167" y="394" type="curve" smooth="yes"/>
      <point x="167" y="485"/>
      <point x="209" y="548"/>
      <point x="273" y="548" type="curve" smooth="yes"/>
      <point x="312" y="548"/>
      <point x="344" y="526"/>
      <point x="368" y="469" type="curve"/>
      <point x="461" y="519" type="line"/>
      <point x="428" y="596"/>
      <point x="353" y="647"/>
      <point x="272" y="647" type="curve" smooth="yes"/>
      <point x="133" y="647"/>
      <point x="35" y="541"/>
      <point x="35" y="394" type="curve" smooth="yes"/>
      <point x="35" y="245"/>
      <point x="135" y="141"/>
      <point x="272" y="141" type="curve" smooth="yes"/>
      <point x="295" y="141"/>
      <point x="322" y="142"/>
      <point x="341" y="149" type="curve"/>
      <point x="321" y="167" type="line"/>
      <point x="278" y="103"/>
      <point x="259" y="57"/>
      <point x="227" y="-11" type="curve" smooth="yes"/>
    </contour>
  </outline>
</glyph>
<glyph name="five_m" format="2">
  <advance width="572"/>
  <unicode hex="1045"/>
  <note>
five_m
</note>
  <outline>
    <contour>
      <point x="285" y="-270" type="curve" smooth="yes"/>
      <point x="447" y="-270"/>
      <point x="532" y="-169"/>
      <point x="532" y="-3" type="curve" smooth="yes"/>
      <point x="532" y="385" type="line" smooth="yes"/>
      <point x="532" y="549"/>
      <point x="448" y="647"/>
      <point x="294" y="647" type="curve" smooth="yes"/>
      <point x="148" y="647"/>
      <point x="58" y="547"/>
      <point x="58" y="402" type="curve" smooth="yes"/>
      <point x="58" y="310"/>
      <point x="111" y="249"/>
      <point x="199" y="249" type="curve" smooth="yes"/>
      <point x="290" y="249"/>
      <point x="328" y="311"/>
      <point x="328" y="383" type="curve" smooth="yes"/>
      <point x="328" y="461"/>
      <point x="280" y="505"/>
      <point x="218" y="505" type="curve" smooth="yes"/>
      <point x="206" y="505"/>
      <point x="198" y="505"/>
      <point x="188" y="502" type="curve"/>
      <point x="202" y="535"/>
      <point x="238" y="554"/>
      <point x="278" y="554" type="curve" smooth="yes"/>
      <point x="358" y="554"/>
      <point x="400" y="487"/>
      <point x="400" y="385" type="curve" smooth="yes"/>
      <point x="400" y="-4" type="line" smooth="yes"/>
      <point x="400" y="-117"/>
      <point x="367" y="-171"/>
      <point x="284" y="-171" type="curve" smooth="yes"/>
      <point x="201" y="-171"/>
      <point x="170" y="-113"/>
      <point x="170" y="-12" type="curve" smooth="yes"/>
      <point x="170" y="-9" type="line"/>
      <point x="38" y="-9" type="line"/>
      <point x="38" y="-12" type="line" smooth="yes"/>
      <point x="38" y="-170"/>
      <point x="117" y="-270"/>
    </contour>
    <contour>
      <point x="199" y="334" type="curve" smooth="yes"/>
      <point x="174" y="334"/>
      <point x="154" y="352"/>
      <point x="154" y="383" type="curve" smooth="yes"/>
      <point x="154" y="411"/>
      <point x="173" y="433"/>
      <point x="199" y="433" type="curve" smooth="yes"/>
      <point x="224" y="433"/>
      <point x="243" y="414"/>
      <point x="243" y="383" type="curve" smooth="yes"/>
      <point x="243" y="356"/>
      <point x="224" y="334"/>
    </contour>
  </outline>
</glyph>
<glyph name="six_m" format="2">
  <advance width="553"/>
  <unicode hex="1046"/>
  <note>
six_m
</note>
  <outline>
    <contour>
      <point x="273" y="140" type="curve" smooth="yes"/>
      <point x="439" y="140"/>
      <point x="515" y="245"/>
      <point x="515" y="395" type="curve" smooth="yes"/>
      <point x="515" y="453"/>
      <point x="497" y="495"/>
      <point x="431" y="495" type="curve" smooth="yes"/>
      <point x="381" y="495"/>
      <point x="361" y="473"/>
      <point x="332" y="473" type="curve" smooth="yes"/>
      <point x="313" y="473"/>
      <point x="307" y="489"/>
      <point x="307" y="515" type="curve" smooth="yes"/>
      <point x="307" y="542"/>
      <point x="316" y="560"/>
      <point x="332" y="560" type="curve" smooth="yes"/>
      <point x="346" y="560"/>
      <point x="354" y="550"/>
      <point x="362" y="539" type="curve"/>
      <point x="423" y="590" type="line"/>
      <point x="400" y="629"/>
      <point x="366" y="648"/>
      <point x="326" y="648" type="curve" smooth="yes"/>
      <point x="251" y="648"/>
      <point x="214" y="594"/>
      <point x="214" y="506" type="curve" smooth="yes"/>
      <point x="214" y="436"/>
      <point x="239" y="385"/>
      <point x="306" y="385" type="curve" smooth="yes"/>
      <point x="344" y="385"/>
      <point x="361" y="404"/>
      <point x="381" y="404" type="curve" smooth="yes"/>
      <point x="397" y="404"/>
      <point x="402" y="389"/>
      <point x="402" y="373" type="curve" smooth="yes"/>
      <point x="402" y="300"/>
      <point x="364" y="239"/>
      <point x="290" y="239" type="curve" smooth="yes"/>
      <point x="207" y="239"/>
      <point x="172" y="292"/>
      <point x="172" y="407" type="curve" smooth="yes"/>
      <point x="172" y="788" type="line" smooth="yes"/>
      <point x="172" y="900"/>
      <point x="205" y="954"/>
      <point x="278" y="954" type="curve" smooth="yes"/>
      <point x="347" y="954"/>
      <point x="382" y="897"/>
      <point x="382" y="796" type="curve" smooth="yes"/>
      <point x="382" y="792" type="line"/>
      <point x="514" y="792" type="line"/>
      <point x="514" y="796" type="line" smooth="yes"/>
      <point x="514" y="954"/>
      <point x="432" y="1053"/>
      <point x="277" y="1053" type="curve" smooth="yes"/>
      <point x="125" y="1053"/>
      <point x="40" y="953"/>
      <point x="40" y="787" type="curve" smooth="yes"/>
      <point x="40" y="406" type="line" smooth="yes"/>
      <point x="40" y="241"/>
      <point x="125" y="140"/>
    </contour>
  </outline>
</glyph>
<glyph name="seven_m" format="2">
  <advance width="498"/>
  <unicode hex="1047"/>
  <note>
seven_m
</note>
  <outline>
    <contour>
      <point x="293" y="-270" type="curve" smooth="yes"/>
      <point x="358" y="-270"/>
      <point x="414" y="-238"/>
      <point x="449" y="-170" type="curve"/>
      <point x="354" y="-112" type="line"/>
      <point x="333" y="-150"/>
      <point x="319" y="-172"/>
      <point x="294" y="-172" type="curve" smooth="yes"/>
      <point x="274" y="-172"/>
      <point x="262" y="-159"/>
      <point x="262" y="-128" type="curve" smooth="yes"/>
      <point x="262" y="-75"/>
      <point x="286" y="-22"/>
      <point x="364" y="113" type="curve" smooth="yes"/>
      <point x="438" y="241"/>
      <point x="463" y="335"/>
      <point x="463" y="417" type="curve" smooth="yes"/>
      <point x="463" y="531"/>
      <point x="398" y="647"/>
      <point x="260" y="647" type="curve" smooth="yes"/>
      <point x="112" y="647"/>
      <point x="35" y="531"/>
      <point x="35" y="394" type="curve" smooth="yes"/>
      <point x="35" y="255"/>
      <point x="95" y="172"/>
      <point x="138" y="149" type="curve"/>
      <point x="204" y="226" type="line"/>
      <point x="186" y="246"/>
      <point x="167" y="299"/>
      <point x="167" y="394" type="curve" smooth="yes"/>
      <point x="167" y="487"/>
      <point x="202" y="549"/>
      <point x="253" y="549" type="curve" smooth="yes"/>
      <point x="307" y="549"/>
      <point x="331" y="488"/>
      <point x="331" y="423" type="curve" smooth="yes"/>
      <point x="331" y="331"/>
      <point x="307" y="270"/>
      <point x="247" y="168" type="curve" smooth="yes"/>
      <point x="178" y="51"/>
      <point x="131" y="-29"/>
      <point x="131" y="-123" type="curve" smooth="yes"/>
      <point x="131" y="-218"/>
      <point x="205" y="-270"/>
    </contour>
  </outline>
</glyph>
<glyph name="eight_m" format="2">
  <advance width="531"/>
  <unicode hex="1048"/>
  <note>
eight_m
</note>
  <outline>
    <contour>
      <point x="180" y="140" type="curve"/>
      <point x="227" y="211"/>
      <point x="261" y="287"/>
      <point x="261" y="381" type="curve" smooth="yes"/>
      <point x="261" y="446"/>
      <point x="254" y="505"/>
      <point x="230" y="558" type="curve"/>
      <point x="166" y="520" type="line"/>
      <point x="182" y="477"/>
      <point x="192" y="427"/>
      <point x="192" y="380" type="curve" smooth="yes"/>
      <point x="192" y="331"/>
      <point x="184" y="294"/>
      <point x="170" y="261" type="curve"/>
      <point x="143" y="298"/>
      <point x="139" y="338"/>
      <point x="139" y="388" type="curve" smooth="yes"/>
      <point x="139" y="478"/>
      <point x="188" y="548"/>
      <point x="265" y="548" type="curve" smooth="yes"/>
      <point x="337" y="548"/>
      <point x="365" y="483"/>
      <point x="365" y="389" type="curve" smooth="yes"/>
      <point x="365" y="326"/>
      <point x="356" y="276"/>
      <point x="318" y="232" type="curve"/>
      <point x="382" y="140" type="line"/>
      <point x="449" y="184"/>
      <point x="496" y="275"/>
      <point x="496" y="390" type="curve" smooth="yes"/>
      <point x="496" y="542"/>
      <point x="413" y="647"/>
      <point x="266" y="647" type="curve" smooth="yes"/>
      <point x="120" y="647"/>
      <point x="35" y="543"/>
      <point x="35" y="390" type="curve" smooth="yes"/>
      <point x="35" y="279"/>
      <point x="92" y="184"/>
    </contour>
  </outline>
</glyph>
<glyph name="nine_m" format="2">
  <advance width="553"/>
  <unicode hex="1049"/>
  <note>
nine_m
</note>
  <outline>
    <contour>
      <point x="277" y="-270" type="curve" smooth="yes"/>
      <point x="432" y="-270"/>
      <point x="514" y="-170"/>
      <point x="514" y="-12" type="curve" smooth="yes"/>
      <point x="514" y="-9" type="line"/>
      <point x="382" y="-9" type="line"/>
      <point x="382" y="-12" type="line" smooth="yes"/>
      <point x="382" y="-113"/>
      <point x="347" y="-171"/>
      <point x="278" y="-171" type="curve" smooth="yes"/>
      <point x="205" y="-171"/>
      <point x="172" y="-117"/>
      <point x="172" y="-4" type="curve" smooth="yes"/>
      <point x="172" y="379" type="line" smooth="yes"/>
      <point x="172" y="495"/>
      <point x="207" y="548"/>
      <point x="289" y="548" type="curve" smooth="yes"/>
      <point x="364" y="548"/>
      <point x="402" y="487"/>
      <point x="402" y="414" type="curve" smooth="yes"/>
      <point x="402" y="397"/>
      <point x="397" y="383"/>
      <point x="381" y="383" type="curve" smooth="yes"/>
      <point x="361" y="383"/>
      <point x="344" y="402"/>
      <point x="306" y="402" type="curve" smooth="yes"/>
      <point x="239" y="402"/>
      <point x="214" y="351"/>
      <point x="214" y="280" type="curve" smooth="yes"/>
      <point x="214" y="193"/>
      <point x="251" y="139"/>
      <point x="326" y="139" type="curve" smooth="yes"/>
      <point x="366" y="139"/>
      <point x="400" y="158"/>
      <point x="423" y="197" type="curve"/>
      <point x="362" y="248" type="line"/>
      <point x="354" y="236"/>
      <point x="346" y="226"/>
      <point x="332" y="226" type="curve" smooth="yes"/>
      <point x="316" y="226"/>
      <point x="307" y="244"/>
      <point x="307" y="271" type="curve" smooth="yes"/>
      <point x="307" y="298"/>
      <point x="313" y="314"/>
      <point x="332" y="314" type="curve" smooth="yes"/>
      <point x="361" y="314"/>
      <point x="381" y="292"/>
      <point x="431" y="292" type="curve" smooth="yes"/>
      <point x="497" y="292"/>
      <point x="515" y="334"/>
      <point x="515" y="392" type="curve" smooth="yes"/>
      <point x="515" y="541"/>
      <point x="439" y="647"/>
      <point x="273" y="647" type="curve" smooth="yes"/>
      <point x="125" y="647"/>
      <point x="40" y="546"/>
      <point x="40" y="380" type="curve" smooth="yes"/>
      <point x="40" y="-3" type="line" smooth="yes"/>
      <point x="40" y="-169"/>
      <point x="125" y="-270"/>
    </contour>
  </outline>
</glyph>
<glyph name="little_section" format="2">
  <advance width="240"/>
  <unicode hex="104A"/>
  <note>
little_section
</note>
  <outline>
    <contour>
      <point x="54" y="149" type="line"/>
      <point x="186" y="149" type="line"/>
      <point x="186" y="638" type="line"/>
      <point x="54" y="638" type="line"/>
    </contour>
  </outline>
</glyph>
<glyph name="locative" format="2">
  <advance width="530"/>
  <unicode hex="104C"/>
  <note>
locative
</note>
  <outline>
    <contour>
      <point x="225" y="-270" type="curve" smooth="yes"/>
      <point x="304" y="-270" type="line" smooth="yes"/>
      <point x="416" y="-270"/>
      <point x="470" y="-207"/>
      <point x="470" y="-79" type="curve" smooth="yes"/>
      <point x="470" y="144" type="line"/>
      <point x="404" y="108"/>
      <point x="337" y="86"/>
      <point x="273" y="86" type="curve" smooth="yes"/>
      <point x="237" y="86"/>
      <point x="214" y="88"/>
      <point x="186" y="99" type="curve"/>
      <point x="186" y="191" type="line"/>
      <point x="55" y="273" type="line"/>
      <point x="55" y="54" type="line"/>
      <point x="111" y="12"/>
      <point x="191" y="-4"/>
      <point x="243" y="-4" type="curve" smooth="yes"/>
      <point x="286" y="-4"/>
      <point x="313" y="0"/>
      <point x="336" y="6" type="curve"/>
      <point x="336" y="-89" type="line" smooth="yes"/>
      <point x="336" y="-142"/>
      <point x="327" y="-171"/>
      <point x="285" y="-171" type="curve" smooth="yes"/>
      <point x="233" y="-171" type="line" smooth="yes"/>
      <point x="189" y="-171"/>
      <point x="173" y="-160"/>
      <point x="173" y="-143" type="curve" smooth="yes"/>
      <point x="173" y="-126"/>
      <point x="188" y="-114"/>
      <point x="210" y="-114" type="curve" smooth="yes"/>
      <point x="237" y="-114"/>
      <point x="252" y="-124"/>
      <point x="268" y="-136" type="curve"/>
      <point x="308" y="-68" type="line"/>
      <point x="280" y="-41"/>
      <point x="243" y="-24"/>
      <point x="186" y="-24" type="curve" smooth="yes"/>
      <point x="96" y="-24"/>
      <point x="40" y="-68"/>
      <point x="40" y="-146" type="curve" smooth="yes"/>
      <point x="40" y="-225"/>
      <point x="113" y="-270"/>
    </contour>
    <contour>
      <point x="258" y="141" type="curve" smooth="yes"/>
      <point x="395" y="141"/>
      <point x="495" y="245"/>
      <point x="495" y="394" type="curve" smooth="yes"/>
      <point x="495" y="541"/>
      <point x="397" y="647"/>
      <point x="258" y="647" type="curve" smooth="yes"/>
      <point x="177" y="647"/>
      <point x="102" y="596"/>
      <point x="69" y="519" type="curve"/>
      <point x="162" y="469" type="line"/>
      <point x="186" y="526"/>
      <point x="218" y="548"/>
      <point x="257" y="548" type="curve" smooth="yes"/>
      <point x="321" y="548"/>
      <point x="363" y="485"/>
      <point x="363" y="394" type="curve" smooth="yes"/>
      <point x="363" y="301"/>
      <point x="319" y="240"/>
      <point x="257" y="240" type="curve" smooth="yes"/>
      <point x="214" y="240"/>
      <point x="180" y="265"/>
      <point x="155" y="318" type="curve"/>
      <point x="55" y="273" type="line"/>
      <point x="91" y="196"/>
      <point x="166" y="141"/>
    </contour>
    <component base="asat" xOffset="530"/>
  </outline>
</glyph>
<glyph name="completed" format="2">
  <advance width="788"/>
  <unicode hex="104D"/>
  <note>
completed
</note>
  <outline>
    <contour>
      <point x="220" y="-270" type="curve" smooth="yes"/>
      <point x="582" y="-270" type="line" smooth="yes"/>
      <point x="694" y="-270"/>
      <point x="748" y="-207"/>
      <point x="748" y="-79" type="curve" smooth="yes"/>
      <point x="748" y="369" type="line" smooth="yes"/>
      <point x="748" y="553"/>
      <point x="719" y="640"/>
      <point x="618" y="753" type="curve" smooth="yes"/>
      <point x="576" y="800"/>
      <point x="554" y="852"/>
      <point x="554" y="893" type="curve" smooth="yes"/>
      <point x="554" y="932"/>
      <point x="568" y="954"/>
      <point x="598" y="954" type="curve" smooth="yes"/>
      <point x="625" y="954"/>
      <point x="640" y="926"/>
      <point x="653" y="879" type="curve"/>
      <point x="760" y="922" type="line"/>
      <point x="746" y="994"/>
      <point x="687" y="1053"/>
      <point x="591" y="1053" type="curve" smooth="yes"/>
      <point x="478" y="1053"/>
      <point x="422" y="984"/>
      <point x="422" y="893" type="curve" smooth="yes"/>
      <point x="422" y="820"/>
      <point x="457" y="748"/>
      <point x="521" y="678" type="curve" smooth="yes"/>
      <point x="591" y="602"/>
      <point x="615" y="513"/>
      <point x="615" y="373" type="curve" smooth="yes"/>
      <point x="615" y="-89" type="line" smooth="yes"/>
      <point x="615" y="-142"/>
      <point x="605" y="-171"/>
      <point x="563" y="-171" type="curve" smooth="yes"/>
      <point x="228" y="-171" type="line" smooth="yes"/>
      <point x="184" y="-171"/>
      <point x="168" y="-153"/>
      <point x="168" y="-127" type="curve" smooth="yes"/>
      <point x="168" y="-102"/>
      <point x="186" y="-87"/>
      <point x="210" y="-87" type="curve" smooth="yes"/>
      <point x="232" y="-87"/>
      <point x="247" y="-97"/>
      <point x="263" y="-109" type="curve"/>
      <point x="303" y="-32" type="line"/>
      <point x="275" y="-5"/>
      <point x="238" y="12"/>
      <point x="188" y="12" type="curve" smooth="yes"/>
      <point x="108" y="12"/>
      <point x="35" y="-31"/>
      <point x="35" y="-119" type="curve" smooth="yes"/>
      <point x="35" y="-221"/>
      <point x="105" y="-270"/>
    </contour>
    <contour>
      <point x="377" y="-40" type="line"/>
      <point x="509" y="-40" type="line"/>
      <point x="509" y="393" type="line" smooth="yes"/>
      <point x="509" y="539"/>
      <point x="433" y="647"/>
      <point x="267" y="647" type="curve" smooth="yes"/>
      <point x="127" y="647"/>
      <point x="35" y="542"/>
      <point x="35" y="393" type="curve" smooth="yes"/>
      <point x="35" y="232"/>
      <point x="124" y="140"/>
      <point x="252" y="140" type="curve" smooth="yes"/>
      <point x="293" y="140"/>
      <point x="317" y="149"/>
      <point x="338" y="155" type="curve"/>
      <point x="335" y="334"/>
      <point x="273" y="433"/>
      <point x="136" y="459" type="curve"/>
      <point x="121" y="384" type="line"/>
      <point x="204" y="375"/>
      <point x="244" y="307"/>
      <point x="248" y="200" type="curve"/>
      <point x="288" y="235" type="line"/>
      <point x="275" y="234"/>
      <point x="259" y="234"/>
      <point x="248" y="234" type="curve" smooth="yes"/>
      <point x="174" y="234"/>
      <point x="129" y="298"/>
      <point x="129" y="390" type="curve" smooth="yes"/>
      <point x="129" y="485"/>
      <point x="177" y="548"/>
      <point x="259" y="548" type="curve" smooth="yes"/>
      <point x="342" y="548"/>
      <point x="377" y="484"/>
      <point x="377" y="393" type="curve" smooth="yes"/>
    </contour>
  </outline>
</glyph>
<glyph name="aforementioned" format="2">
  <advance width="515"/>
  <unicode hex="104E"/>
  <note>
aforementioned
</note>
  <outline>
    <contour>
      <point x="272" y="141" type="curve" smooth="yes"/>
      <point x="364" y="141"/>
      <point x="439" y="196"/>
      <point x="475" y="273" type="curve"/>
      <point x="375" y="318" type="line"/>
      <point x="350" y="265"/>
      <point x="317" y="240"/>
      <point x="273" y="240" type="curve" smooth="yes"/>
      <point x="211" y="240"/>
      <point x="167" y="301"/>
      <point x="167" y="394" type="curve" smooth="yes"/>
      <point x="167" y="485"/>
      <point x="209" y="548"/>
      <point x="273" y="548" type="curve" smooth="yes"/>
      <point x="312" y="548"/>
      <point x="344" y="526"/>
      <point x="368" y="469" type="curve"/>
      <point x="461" y="519" type="line"/>
      <point x="428" y="596"/>
      <point x="353" y="647"/>
      <point x="272" y="647" type="curve" smooth="yes"/>
      <point x="133" y="647"/>
      <point x="35" y="541"/>
      <point x="35" y="394" type="curve" smooth="yes"/>
      <point x="35" y="245"/>
      <point x="135" y="141"/>
    </contour>
    <contour>
      <point x="341" y="-270" type="line"/>
      <point x="474" y="-270" type="line"/>
      <point x="474" y="273" type="line"/>
      <point x="341" y="170" type="line"/>
    </contour>
  </outline>
</glyph>
<glyph name="genitive" format="2">
  <advance width="1010"/>
  <unicode hex="104F"/>
  <note>
genitive
</note>
  <outline>
    <contour>
      <point x="837" y="149" type="line"/>
      <point x="970" y="149" type="line" smooth="yes"/>
      <point x="970" y="369" type="line" smooth="yes"/>
      <point x="970" y="553"/>
      <point x="941" y="640"/>
      <point x="840" y="753" type="curve" smooth="yes"/>
      <point x="798" y="800"/>
      <point x="776" y="852"/>
      <point x="776" y="893" type="curve" smooth="yes"/>
      <point x="776" y="932"/>
      <point x="790" y="954"/>
      <point x="820" y="954" type="curve" smooth="yes"/>
      <point x="847" y="954"/>
      <point x="862" y="926"/>
      <point x="875" y="879" type="curve"/>
      <point x="982" y="922" type="line"/>
      <point x="968" y="994"/>
      <point x="909" y="1053"/>
      <point x="813" y="1053" type="curve" smooth="yes"/>
      <point x="700" y="1053"/>
      <point x="644" y="984"/>
      <point x="644" y="893" type="curve" smooth="yes"/>
      <point x="644" y="820"/>
      <point x="679" y="748"/>
      <point x="743" y="678" type="curve" smooth="yes"/>
      <point x="813" y="602"/>
      <point x="837" y="513"/>
      <point x="837" y="373" type="curve" smooth="yes"/>
    </contour>
    <contour>
      <point x="599" y="149" type="line"/>
      <point x="731" y="149" type="line"/>
      <point x="731" y="434" type="line" smooth="yes"/>
      <point x="731" y="563"/>
      <point x="670" y="647"/>
      <point x="553" y="647" type="curve" smooth="yes"/>
      <point x="478" y="647"/>
      <point x="426" y="613"/>
      <point x="402" y="548" type="curve"/>
      <point x="485" y="478" type="line"/>
      <point x="486" y="516"/>
      <point x="509" y="548"/>
      <point x="543" y="548" type="curve" smooth="yes"/>
      <point x="586" y="548"/>
      <point x="599" y="503"/>
      <point x="599" y="429" type="curve" smooth="yes"/>
    </contour>
    <component base="e_m"/>
  </outline>
</glyph>
<glyph name="sha_skt" format="2">
  <advance width="531"/>
  <unicode hex="1050"/>
  <note>
sha_skt
</note>
  <outline>
    <contour>
      <point x="267" y="321" type="curve" smooth="yes"/>
      <point x="295" y="321"/>
      <point x="322" y="341"/>
      <point x="322" y="387" type="curve" smooth="yes"/>
      <point x="322" y="433"/>
      <point x="296" y="452"/>
      <point x="267" y="452" type="curve" smooth="yes"/>
      <point x="240" y="452"/>
      <point x="213" y="434"/>
      <point x="213" y="387" type="curve" smooth="yes"/>
      <point x="213" y="340"/>
      <point x="241" y="321"/>
    </contour>
    <component base="ga"/>
  </outline>
</glyph>
<glyph name="ssa_skt" format="2">
  <advance width="531"/>
  <unicode hex="1051"/>
  <note>
ssa_skt
</note>
  <outline>
    <contour>
      <point x="269" y="140" type="curve" smooth="yes"/>
      <point x="417" y="140"/>
      <point x="503" y="244"/>
      <point x="503" y="397" type="curve" smooth="yes"/>
      <point x="503" y="512"/>
      <point x="456" y="603"/>
      <point x="389" y="647" type="curve"/>
      <point x="325" y="555" type="line"/>
      <point x="363" y="511"/>
      <point x="372" y="460"/>
      <point x="372" y="397" type="curve" smooth="yes"/>
      <point x="372" y="304"/>
      <point x="342" y="239"/>
      <point x="268" y="239" type="curve" smooth="yes"/>
      <point x="199" y="239"/>
      <point x="167" y="302"/>
      <point x="167" y="397" type="curve" smooth="yes"/>
      <point x="167" y="461"/>
      <point x="175" y="511"/>
      <point x="213" y="555" type="curve"/>
      <point x="149" y="647" type="line"/>
      <point x="82" y="603"/>
      <point x="35" y="514"/>
      <point x="35" y="397" type="curve" smooth="yes"/>
      <point x="35" y="244"/>
      <point x="119" y="140"/>
    </contour>
    <contour>
      <point x="269" y="334" type="curve" smooth="yes"/>
      <point x="299" y="334"/>
      <point x="324" y="352"/>
      <point x="324" y="399" type="curve" smooth="yes"/>
      <point x="324" y="446"/>
      <point x="298" y="464"/>
      <point x="269" y="464" type="curve" smooth="yes"/>
      <point x="243" y="464"/>
      <point x="215" y="446"/>
      <point x="215" y="399" type="curve" smooth="yes"/>
      <point x="215" y="352"/>
      <point x="243" y="334"/>
    </contour>
  </outline>
</glyph>
<glyph name="vocR_skt" format="2">
  <advance width="524"/>
  <unicode hex="1052"/>
  <note>
vocR_skt
</note>
  <outline>
    <contour>
      <point x="268" y="140" type="curve" smooth="yes"/>
      <point x="404" y="140"/>
      <point x="489" y="212"/>
      <point x="489" y="321" type="curve" smooth="yes"/>
      <point x="489" y="376"/>
      <point x="466" y="424"/>
      <point x="429" y="464" type="curve" smooth="yes"/>
      <point x="400" y="496"/>
      <point x="377" y="505"/>
      <point x="377" y="525" type="curve" smooth="yes"/>
      <point x="377" y="539"/>
      <point x="387" y="548"/>
      <point x="401" y="548" type="curve" smooth="yes"/>
      <point x="423" y="548"/>
      <point x="440" y="535"/>
      <point x="454" y="517" type="curve"/>
      <point x="506" y="578" type="line"/>
      <point x="479" y="625"/>
      <point x="428" y="647"/>
      <point x="380" y="647" type="curve" smooth="yes"/>
      <point x="304" y="647"/>
      <point x="263" y="599"/>
      <point x="263" y="540" type="curve" smooth="yes"/>
      <point x="263" y="493"/>
      <point x="291" y="463"/>
      <point x="322" y="424" type="curve" smooth="yes"/>
      <point x="351" y="386"/>
      <point x="357" y="356"/>
      <point x="357" y="325" type="curve" smooth="yes"/>
      <point x="357" y="271"/>
      <point x="323" y="239"/>
      <point x="270" y="239" type="curve" smooth="yes"/>
      <point x="195" y="239"/>
      <point x="167" y="300"/>
      <point x="167" y="397" type="curve" smooth="yes"/>
      <point x="167" y="460"/>
      <point x="176" y="511"/>
      <point x="214" y="555" type="curve"/>
      <point x="151" y="647" type="line"/>
      <point x="81" y="601"/>
      <point x="35" y="511"/>
      <point x="35" y="397" type="curve" smooth="yes"/>
      <point x="35" y="244"/>
      <point x="110" y="140"/>
    </contour>
  </outline>
</glyph>
<glyph name="vocRR_skt" format="2">
  <advance width="519"/>
  <unicode hex="1053"/>
  <note>
vocRR_skt
</note>
  <outline>
    <contour>
      <point x="262" y="140" type="curve" smooth="yes"/>
      <point x="399" y="140"/>
      <point x="484" y="212"/>
      <point x="484" y="321" type="curve" smooth="yes"/>
      <point x="484" y="376"/>
      <point x="461" y="424"/>
      <point x="427" y="465" type="curve" smooth="yes"/>
      <point x="401" y="496"/>
      <point x="382" y="505"/>
      <point x="382" y="525" type="curve" smooth="yes"/>
      <point x="382" y="539"/>
      <point x="392" y="548"/>
      <point x="406" y="548" type="curve" smooth="yes"/>
      <point x="424" y="548"/>
      <point x="438" y="535"/>
      <point x="449" y="517" type="curve"/>
      <point x="501" y="578" type="line"/>
      <point x="476" y="625"/>
      <point x="429" y="647"/>
      <point x="385" y="647" type="curve" smooth="yes"/>
      <point x="315" y="647"/>
      <point x="278" y="599"/>
      <point x="278" y="540" type="curve" smooth="yes"/>
      <point x="278" y="493"/>
      <point x="297" y="455"/>
      <point x="318" y="422" type="curve" smooth="yes"/>
      <point x="346" y="378"/>
      <point x="352" y="356"/>
      <point x="352" y="325" type="curve" smooth="yes"/>
      <point x="352" y="271"/>
      <point x="318" y="239"/>
      <point x="262" y="239" type="curve" smooth="yes"/>
      <point x="203" y="239"/>
      <point x="167" y="271"/>
      <point x="167" y="325" type="curve" smooth="yes"/>
      <point x="167" y="356"/>
      <point x="173" y="378"/>
      <point x="201" y="422" type="curve" smooth="yes"/>
      <point x="222" y="455"/>
      <point x="241" y="493"/>
      <point x="241" y="540" type="curve" smooth="yes"/>
      <point x="241" y="599"/>
      <point x="204" y="647"/>
      <point x="134" y="647" type="curve" smooth="yes"/>
      <point x="90" y="647"/>
      <point x="43" y="625"/>
      <point x="18" y="578" type="curve"/>
      <point x="70" y="517" type="line"/>
      <point x="81" y="535"/>
      <point x="95" y="548"/>
      <point x="113" y="548" type="curve" smooth="yes"/>
      <point x="127" y="548"/>
      <point x="137" y="539"/>
      <point x="137" y="525" type="curve" smooth="yes"/>
      <point x="137" y="505"/>
      <point x="118" y="496"/>
      <point x="92" y="465" type="curve" smooth="yes"/>
      <point x="58" y="424"/>
      <point x="35" y="376"/>
      <point x="35" y="321" type="curve" smooth="yes"/>
      <point x="35" y="212"/>
      <point x="122" y="140"/>
    </contour>
  </outline>
</glyph>
<glyph name="vocL_skt" format="2">
  <advance width="518"/>
  <unicode hex="1054"/>
  <note>
vocL_skt
</note>
  <outline>
    <contour>
      <point x="277" y="140" type="curve" smooth="yes"/>
      <point x="359" y="140"/>
      <point x="429" y="182"/>
      <point x="475" y="217" type="curve"/>
      <point x="425" y="299" type="line"/>
      <point x="373" y="256"/>
      <point x="318" y="239"/>
      <point x="274" y="239" type="curve" smooth="yes"/>
      <point x="201" y="239"/>
      <point x="164" y="294"/>
      <point x="164" y="393" type="curve" smooth="yes"/>
      <point x="164" y="487"/>
      <point x="184" y="551"/>
      <point x="268" y="551" type="curve" smooth="yes"/>
      <point x="308" y="551"/>
      <point x="349" y="529"/>
      <point x="361" y="495" type="curve"/>
      <point x="330" y="474"/>
      <point x="299" y="461"/>
      <point x="271" y="461" type="curve" smooth="yes"/>
      <point x="230" y="461"/>
      <point x="193" y="477"/>
      <point x="156" y="507" type="curve"/>
      <point x="140" y="433" type="line"/>
      <point x="192" y="394"/>
      <point x="233" y="380"/>
      <point x="280" y="380" type="curve" smooth="yes"/>
      <point x="360" y="380"/>
      <point x="423" y="406"/>
      <point x="483" y="452" type="curve"/>
      <point x="471" y="572"/>
      <point x="384" y="647"/>
      <point x="262" y="647" type="curve" smooth="yes"/>
      <point x="130" y="647"/>
      <point x="35" y="548"/>
      <point x="35" y="393" type="curve" smooth="yes"/>
      <point x="35" y="242"/>
      <point x="123" y="140"/>
    </contour>
  </outline>
</glyph>
<glyph name="vocLL_skt" format="2">
  <advance width="518"/>
  <unicode hex="1055"/>
  <note>
vocLL_skt
</note>
  <outline>
    <contour>
      <point x="180" y="141" type="curve" smooth="yes"/>
      <point x="227" y="141"/>
      <point x="256" y="168"/>
      <point x="270" y="201" type="curve"/>
      <point x="253" y="201" type="line"/>
      <point x="266" y="172"/>
      <point x="291" y="141"/>
      <point x="349" y="141" type="curve" smooth="yes"/>
      <point x="449" y="141"/>
      <point x="483" y="199"/>
      <point x="483" y="286" type="curve"/>
      <point x="348" y="304" type="line"/>
      <point x="348" y="265"/>
      <point x="344" y="240"/>
      <point x="328" y="240" type="curve" smooth="yes"/>
      <point x="314" y="240"/>
      <point x="308" y="255"/>
      <point x="308" y="289" type="curve" smooth="yes"/>
      <point x="308" y="301" type="line"/>
      <point x="215" y="301" type="line"/>
      <point x="215" y="289" type="line" smooth="yes"/>
      <point x="215" y="254"/>
      <point x="208" y="240"/>
      <point x="197" y="240" type="curve" smooth="yes"/>
      <point x="169" y="240"/>
      <point x="165" y="300"/>
      <point x="165" y="388" type="curve" smooth="yes"/>
      <point x="165" y="487"/>
      <point x="184" y="551"/>
      <point x="268" y="551" type="curve" smooth="yes"/>
      <point x="308" y="551"/>
      <point x="349" y="529"/>
      <point x="361" y="495" type="curve"/>
      <point x="330" y="474"/>
      <point x="299" y="461"/>
      <point x="271" y="461" type="curve" smooth="yes"/>
      <point x="230" y="461"/>
      <point x="193" y="477"/>
      <point x="156" y="507" type="curve"/>
      <point x="140" y="433" type="line"/>
      <point x="192" y="394"/>
      <point x="233" y="380"/>
      <point x="280" y="380" type="curve" smooth="yes"/>
      <point x="360" y="380"/>
      <point x="423" y="406"/>
      <point x="483" y="452" type="curve"/>
      <point x="471" y="572"/>
      <point x="384" y="647"/>
      <point x="262" y="647" type="curve" smooth="yes"/>
      <point x="130" y="647"/>
      <point x="35" y="548"/>
      <point x="35" y="388" type="curve" smooth="yes"/>
      <point x="35" y="235"/>
      <point x="91" y="141"/>
    </contour>
  </outline>
</glyph>
<glyph name="_vocR_skt" format="2">
  <advance width="284"/>
  <unicode hex="1056"/>
  <note>
_vocR_skt
</note>
  <outline>
    <contour>
      <point x="83" y="140" type="curve" smooth="yes"/>
      <point x="189" y="140"/>
      <point x="251" y="211"/>
      <point x="251" y="292" type="curve" smooth="yes"/>
      <point x="251" y="373"/>
      <point x="213" y="416"/>
      <point x="162" y="456" type="curve" smooth="yes"/>
      <point x="128" y="482"/>
      <point x="107" y="497"/>
      <point x="107" y="521" type="curve" smooth="yes"/>
      <point x="107" y="540"/>
      <point x="121" y="546"/>
      <point x="136" y="546" type="curve" smooth="yes"/>
      <point x="156" y="546"/>
      <point x="170" y="536"/>
      <point x="189" y="515" type="curve"/>
      <point x="260" y="587" type="line"/>
      <point x="232" y="622"/>
      <point x="193" y="645"/>
      <point x="128" y="645" type="curve" smooth="yes"/>
      <point x="39" y="645"/>
      <point x="-14" y="591"/>
      <point x="-14" y="519" type="curve" smooth="yes"/>
      <point x="-14" y="460"/>
      <point x="15" y="424"/>
      <point x="63" y="383" type="curve" smooth="yes"/>
      <point x="106" y="347"/>
      <point x="127" y="325"/>
      <point x="127" y="295" type="curve" smooth="yes"/>
      <point x="127" y="265"/>
      <point x="113" y="239"/>
      <point x="75" y="239" type="curve" smooth="yes"/>
      <point x="34" y="239"/>
      <point x="-5" y="277"/>
      <point x="-40" y="338" type="curve"/>
      <point x="-128" y="280" type="line"/>
      <point x="-75" y="184"/>
      <point x="-7" y="140"/>
    </contour>
  </outline>
</glyph>
<glyph name="_vocRR_skt" format="2">
  <advance width="298"/>
  <unicode hex="1057"/>
  <note>
_vocRR_skt
</note>
  <outline>
    <contour>
      <point x="-42" y="141" type="curve" smooth="yes"/>
      <point x="16" y="141"/>
      <point x="41" y="172"/>
      <point x="54" y="201" type="curve"/>
      <point x="37" y="201" type="line"/>
      <point x="52" y="171"/>
      <point x="80" y="141"/>
      <point x="135" y="141" type="curve" smooth="yes"/>
      <point x="225" y="141"/>
      <point x="265" y="217"/>
      <point x="265" y="292" type="curve" smooth="yes"/>
      <point x="265" y="373"/>
      <point x="227" y="416"/>
      <point x="176" y="456" type="curve" smooth="yes"/>
      <point x="142" y="482"/>
      <point x="121" y="497"/>
      <point x="121" y="521" type="curve" smooth="yes"/>
      <point x="121" y="540"/>
      <point x="135" y="546"/>
      <point x="150" y="546" type="curve" smooth="yes"/>
      <point x="170" y="546"/>
      <point x="184" y="536"/>
      <point x="203" y="515" type="curve"/>
      <point x="274" y="587" type="line"/>
      <point x="246" y="622"/>
      <point x="207" y="645"/>
      <point x="142" y="645" type="curve" smooth="yes"/>
      <point x="53" y="645"/>
      <point x="0" y="591"/>
      <point x="0" y="519" type="curve" smooth="yes"/>
      <point x="0" y="460"/>
      <point x="29" y="424"/>
      <point x="77" y="383" type="curve" smooth="yes"/>
      <point x="120" y="347"/>
      <point x="141" y="325"/>
      <point x="141" y="286" type="curve" smooth="yes"/>
      <point x="141" y="266"/>
      <point x="135" y="240"/>
      <point x="120" y="240" type="curve" smooth="yes"/>
      <point x="107" y="240"/>
      <point x="99" y="254"/>
      <point x="99" y="289" type="curve" smooth="yes"/>
      <point x="99" y="301" type="line"/>
      <point x="-4" y="301" type="line"/>
      <point x="-4" y="289" type="line" smooth="yes"/>
      <point x="-4" y="255"/>
      <point x="-11" y="240"/>
      <point x="-26" y="240" type="curve" smooth="yes"/>
      <point x="-44" y="240"/>
      <point x="-47" y="265"/>
      <point x="-48" y="304" type="curve"/>
      <point x="-163" y="286" type="line"/>
      <point x="-163" y="199"/>
      <point x="-132" y="141"/>
    </contour>
  </outline>
</glyph>
<glyph name="_vocL_skt" format="2">
  <unicode hex="1058"/>
  <note>
_vocL_skt
</note>
  <outline>
    <contour>
      <point x="-218" y="-270" type="curve" smooth="yes"/>
      <point x="-173" y="-270"/>
      <point x="-138" y="-266"/>
      <point x="-89" y="-245" type="curve"/>
      <point x="-113" y="-159" type="line"/>
      <point x="-161" y="-177"/>
      <point x="-193" y="-180"/>
      <point x="-220" y="-180" type="curve" smooth="yes"/>
      <point x="-279" y="-180"/>
      <point x="-308" y="-154"/>
      <point x="-308" y="-81" type="curve" smooth="yes"/>
      <point x="-308" y="-15"/>
      <point x="-291" y="22"/>
      <point x="-226" y="22" type="curve" smooth="yes"/>
      <point x="-202" y="22"/>
      <point x="-181" y="9"/>
      <point x="-167" y="-20" type="curve"/>
      <point x="-199" y="-34"/>
      <point x="-228" y="-38"/>
      <point x="-245" y="-38" type="curve" smooth="yes"/>
      <point x="-261" y="-38"/>
      <point x="-288" y="-37"/>
      <point x="-313" y="-28" type="curve"/>
      <point x="-322" y="-92" type="line"/>
      <point x="-288" y="-100"/>
      <point x="-261" y="-101"/>
      <point x="-237" y="-101" type="curve" smooth="yes"/>
      <point x="-174" y="-101"/>
      <point x="-130" y="-88"/>
      <point x="-68" y="-60" type="curve"/>
      <point x="-75" y="43"/>
      <point x="-138" y="108"/>
      <point x="-238" y="108" type="curve" smooth="yes"/>
      <point x="-337" y="108"/>
      <point x="-418" y="50"/>
      <point x="-418" y="-81" type="curve" smooth="yes"/>
      <point x="-418" y="-208"/>
      <point x="-350" y="-270"/>
    </contour>
  </outline>
</glyph>
<glyph name="_vocLL_skt" format="2">
  <unicode hex="1059"/>
  <note>
_vocLL_skt
</note>
  <outline>
    <contour>
      <point x="-298" y="-270" type="curve" smooth="yes"/>
      <point x="-256" y="-270"/>
      <point x="-236" y="-250"/>
      <point x="-227" y="-221" type="curve"/>
      <point x="-243" y="-226" type="line"/>
      <point x="-230" y="-253"/>
      <point x="-209" y="-270"/>
      <point x="-171" y="-270" type="curve" smooth="yes"/>
      <point x="-101" y="-270"/>
      <point x="-84" y="-208"/>
      <point x="-84" y="-156" type="curve"/>
      <point x="-176" y="-141" type="line"/>
      <point x="-176" y="-165"/>
      <point x="-178" y="-179"/>
      <point x="-188" y="-179" type="curve" smooth="yes"/>
      <point x="-194" y="-179"/>
      <point x="-199" y="-174"/>
      <point x="-199" y="-143" type="curve" smooth="yes"/>
      <point x="-199" y="-141" type="line"/>
      <point x="-275" y="-141" type="line"/>
      <point x="-275" y="-143" type="line" smooth="yes"/>
      <point x="-275" y="-174"/>
      <point x="-277" y="-179"/>
      <point x="-286" y="-179" type="curve" smooth="yes"/>
      <point x="-296" y="-179"/>
      <point x="-300" y="-160"/>
      <point x="-300" y="-91" type="curve" smooth="yes"/>
      <point x="-300" y="-9"/>
      <point x="-280" y="29"/>
      <point x="-239" y="29" type="curve" smooth="yes"/>
      <point x="-207" y="29"/>
      <point x="-189" y="-1"/>
      <point x="-185" y="-21" type="curve"/>
      <point x="-206" y="-37"/>
      <point x="-223" y="-41"/>
      <point x="-237" y="-41" type="curve" smooth="yes"/>
      <point x="-252" y="-41"/>
      <point x="-279" y="-40"/>
      <point x="-304" y="-30" type="curve"/>
      <point x="-313" y="-91" type="line"/>
      <point x="-279" y="-97"/>
      <point x="-252" y="-98"/>
      <point x="-227" y="-98" type="curve" smooth="yes"/>
      <point x="-174" y="-98"/>
      <point x="-137" y="-83"/>
      <point x="-86" y="-61" type="curve"/>
      <point x="-91" y="38"/>
      <point x="-144" y="108"/>
      <point x="-236" y="108" type="curve" smooth="yes"/>
      <point x="-337" y="108"/>
      <point x="-410" y="51"/>
      <point x="-410" y="-91" type="curve" smooth="yes"/>
      <point x="-410" y="-203"/>
      <point x="-364" y="-270"/>
    </contour>
  </outline>
</glyph>
<glyph name="nga_mon" format="2">
  <advance width="510"/>
  <unicode hex="105A"/>
  <note>
nga_mon
</note>
  <outline>
    <contour>
      <point x="272" y="141" type="curve" smooth="yes"/>
      <point x="364" y="141"/>
      <point x="439" y="196"/>
      <point x="475" y="273" type="curve"/>
      <point x="375" y="318" type="line"/>
      <point x="350" y="265"/>
      <point x="316" y="240"/>
      <point x="273" y="240" type="curve" smooth="yes"/>
      <point x="211" y="240"/>
      <point x="167" y="301"/>
      <point x="167" y="394" type="curve" smooth="yes"/>
      <point x="167" y="485"/>
      <point x="209" y="548"/>
      <point x="273" y="548" type="curve" smooth="yes"/>
      <point x="312" y="548"/>
      <point x="344" y="526"/>
      <point x="368" y="469" type="curve"/>
      <point x="461" y="519" type="line"/>
      <point x="428" y="596"/>
      <point x="353" y="647"/>
      <point x="272" y="647" type="curve" smooth="yes"/>
      <point x="133" y="647"/>
      <point x="35" y="541"/>
      <point x="35" y="394" type="curve" smooth="yes"/>
      <point x="35" y="245"/>
      <point x="135" y="141"/>
    </contour>
    <contour>
      <point x="304" y="-270" type="curve" smooth="yes"/>
      <point x="346" y="-270"/>
      <point x="372" y="-263"/>
      <point x="392" y="-250" type="curve"/>
      <point x="363" y="-186" type="line"/>
      <point x="354" y="-190"/>
      <point x="347" y="-192"/>
      <point x="338" y="-192" type="curve" smooth="yes"/>
      <point x="325" y="-192"/>
      <point x="316" y="-184"/>
      <point x="316" y="-171" type="curve" smooth="yes"/>
      <point x="316" y="-158"/>
      <point x="324" y="-145"/>
      <point x="346" y="-129" type="curve" smooth="yes"/>
      <point x="381" y="-104"/>
      <point x="409" y="-67"/>
      <point x="409" y="-15" type="curve" smooth="yes"/>
      <point x="409" y="57"/>
      <point x="354" y="107"/>
      <point x="270" y="107" type="curve" smooth="yes"/>
      <point x="180" y="107"/>
      <point x="128" y="52"/>
      <point x="122" y="-23" type="curve"/>
      <point x="225" y="-23" type="line"/>
      <point x="228" y="3"/>
      <point x="241" y="23"/>
      <point x="262" y="23" type="curve" smooth="yes"/>
      <point x="286" y="23"/>
      <point x="298" y="9"/>
      <point x="298" y="-12" type="curve" smooth="yes"/>
      <point x="298" y="-31"/>
      <point x="293" y="-49"/>
      <point x="275" y="-70" type="curve" smooth="yes"/>
      <point x="251" y="-97"/>
      <point x="208" y="-132"/>
      <point x="208" y="-183" type="curve" smooth="yes"/>
      <point x="208" y="-237"/>
      <point x="253" y="-270"/>
    </contour>
  </outline>
</glyph>
<glyph name="jha_mon" format="2">
  <advance width="685"/>
  <unicode hex="105B"/>
  <note>
jha_mon
</note>
  <outline>
    <contour>
      <point x="281" y="140" type="curve" smooth="yes"/>
      <point x="342" y="140"/>
      <point x="399" y="154"/>
      <point x="426" y="187" type="curve"/>
      <point x="359" y="259" type="line"/>
      <point x="345" y="246"/>
      <point x="326" y="239"/>
      <point x="297" y="239" type="curve" smooth="yes"/>
      <point x="204" y="239"/>
      <point x="167" y="302"/>
      <point x="167" y="396" type="curve" smooth="yes"/>
      <point x="167" y="486"/>
      <point x="212" y="548"/>
      <point x="280" y="548" type="curve" smooth="yes"/>
      <point x="296" y="548"/>
      <point x="299" y="547"/>
      <point x="309" y="545" type="curve"/>
      <point x="305" y="559" type="line"/>
      <point x="277" y="533"/>
      <point x="264" y="503"/>
      <point x="264" y="472" type="curve" smooth="yes"/>
      <point x="264" y="416"/>
      <point x="297" y="375"/>
      <point x="356" y="375" type="curve" smooth="yes"/>
      <point x="374" y="375"/>
      <point x="394" y="379"/>
      <point x="400" y="391" type="curve"/>
      <point x="392" y="391" type="line"/>
      <point x="396" y="341"/>
      <point x="421" y="298"/>
      <point x="494" y="298" type="curve" smooth="yes"/>
      <point x="566" y="298" type="line"/>
      <point x="566" y="397" type="line"/>
      <point x="515" y="397" type="line" smooth="yes"/>
      <point x="486" y="397"/>
      <point x="469" y="406"/>
      <point x="469" y="438" type="curve" smooth="yes"/>
      <point x="469" y="451"/>
      <point x="471" y="469"/>
      <point x="471" y="490" type="curve" smooth="yes"/>
      <point x="471" y="580"/>
      <point x="413" y="647"/>
      <point x="284" y="647" type="curve" smooth="yes"/>
      <point x="127" y="647"/>
      <point x="35" y="541"/>
      <point x="35" y="394" type="curve" smooth="yes"/>
      <point x="35" y="240"/>
      <point x="130" y="140"/>
    </contour>
    <contour>
      <point x="455" y="-270" type="curve" smooth="yes"/>
      <point x="571" y="-270"/>
      <point x="645" y="-183"/>
      <point x="645" y="-35" type="curve" smooth="yes"/>
      <point x="645" y="638" type="line"/>
      <point x="514" y="638" type="line"/>
      <point x="514" y="-22" type="line" smooth="yes"/>
      <point x="514" y="-123"/>
      <point x="498" y="-171"/>
      <point x="458" y="-171" type="curve" smooth="yes"/>
      <point x="419" y="-171"/>
      <point x="402" y="-124"/>
      <point x="402" y="-22" type="curve" smooth="yes"/>
      <point x="402" y="191" type="line"/>
      <point x="271" y="158" type="line"/>
      <point x="271" y="-34" type="line" smooth="yes"/>
      <point x="271" y="-185"/>
      <point x="343" y="-270"/>
    </contour>
    <contour>
      <point x="369" y="442" type="curve" smooth="yes"/>
      <point x="347" y="442"/>
      <point x="336" y="460"/>
      <point x="336" y="484" type="curve" smooth="yes"/>
      <point x="336" y="508"/>
      <point x="350" y="525"/>
      <point x="369" y="525" type="curve" smooth="yes"/>
      <point x="388" y="525"/>
      <point x="402" y="508"/>
      <point x="402" y="484" type="curve" smooth="yes"/>
      <point x="402" y="459"/>
      <point x="388" y="442"/>
    </contour>
  </outline>
</glyph>
<glyph name="bba_mon" format="2">
  <advance width="518"/>
  <unicode hex="105C"/>
  <note>
bba_mon
</note>
  <outline>
    <contour>
      <point x="260" y="140" type="curve" smooth="yes"/>
      <point x="404" y="140"/>
      <point x="499" y="244"/>
      <point x="499" y="393" type="curve" smooth="yes"/>
      <point x="499" y="539"/>
      <point x="405" y="647"/>
      <point x="259" y="647" type="curve" smooth="yes"/>
      <point x="113" y="647"/>
      <point x="16" y="540"/>
      <point x="16" y="393" type="curve" smooth="yes"/>
      <point x="16" y="246"/>
      <point x="114" y="140"/>
    </contour>
    <contour>
      <point x="255" y="246" type="curve" smooth="yes"/>
      <point x="168" y="246"/>
      <point x="120" y="307"/>
      <point x="120" y="393" type="curve" smooth="yes"/>
      <point x="120" y="478"/>
      <point x="172" y="540"/>
      <point x="255" y="540" type="curve" smooth="yes"/>
      <point x="342" y="540"/>
      <point x="396" y="479"/>
      <point x="396" y="392" type="curve" smooth="yes"/>
      <point x="396" y="308"/>
      <point x="347" y="246"/>
    </contour>
    <contour>
      <point x="258" y="293" type="curve" smooth="yes"/>
      <point x="313" y="293"/>
      <point x="352" y="330"/>
      <point x="352" y="396" type="curve" smooth="yes"/>
      <point x="352" y="459"/>
      <point x="311" y="496"/>
      <point x="258" y="496" type="curve" smooth="yes"/>
      <point x="203" y="496"/>
      <point x="165" y="460"/>
      <point x="165" y="395" type="curve" smooth="yes"/>
      <point x="165" y="330"/>
      <point x="203" y="293"/>
    </contour>
    <contour>
      <point x="259" y="353" type="curve" smooth="yes"/>
      <point x="241" y="353"/>
      <point x="232" y="369"/>
      <point x="232" y="395" type="curve" smooth="yes"/>
      <point x="232" y="421"/>
      <point x="244" y="437"/>
      <point x="259" y="437" type="curve" smooth="yes"/>
      <point x="274" y="437"/>
      <point x="286" y="421"/>
      <point x="286" y="395" type="curve" smooth="yes"/>
      <point x="286" y="369"/>
      <point x="274" y="353"/>
    </contour>
  </outline>
</glyph>
<glyph name="bbe_mon" format="2">
  <advance width="538"/>
  <unicode hex="105D"/>
  <note>
bbe_mon
</note>
  <outline>
    <contour>
      <point x="210" y="-270" type="curve" smooth="yes"/>
      <point x="305" y="-270" type="line" smooth="yes"/>
      <point x="417" y="-270"/>
      <point x="471" y="-207"/>
      <point x="471" y="-79" type="curve" smooth="yes"/>
      <point x="471" y="273" type="line"/>
      <point x="341" y="170" type="line"/>
      <point x="341" y="-89" type="line" smooth="yes"/>
      <point x="341" y="-137"/>
      <point x="331" y="-173"/>
      <point x="289" y="-173" type="curve" smooth="yes"/>
      <point x="218" y="-173" type="line" smooth="yes"/>
      <point x="182" y="-173"/>
      <point x="158" y="-160"/>
      <point x="158" y="-127" type="curve" smooth="yes"/>
      <point x="158" y="-101"/>
      <point x="173" y="-86"/>
      <point x="198" y="-86" type="curve" smooth="yes"/>
      <point x="222" y="-86"/>
      <point x="235" y="-96"/>
      <point x="253" y="-109" type="curve"/>
      <point x="293" y="-32" type="line"/>
      <point x="265" y="-5"/>
      <point x="235" y="12"/>
      <point x="186" y="12" type="curve" smooth="yes"/>
      <point x="105" y="12"/>
      <point x="45" y="-44"/>
      <point x="45" y="-126" type="curve" smooth="yes"/>
      <point x="45" y="-221"/>
      <point x="107" y="-270"/>
    </contour>
    <contour>
      <point x="171" y="285" type="line"/>
      <point x="194" y="312"/>
      <point x="223" y="329"/>
      <point x="271" y="329" type="curve" smooth="yes"/>
      <point x="313" y="329"/>
      <point x="336" y="314"/>
      <point x="369" y="287" type="curve"/>
      <point x="399" y="355" type="line"/>
      <point x="359" y="394"/>
      <point x="314" y="410"/>
      <point x="269" y="410" type="curve" smooth="yes"/>
      <point x="221" y="410"/>
      <point x="171" y="388"/>
      <point x="143" y="354" type="curve"/>
    </contour>
    <contour>
      <point x="264" y="140" type="curve" smooth="yes"/>
      <point x="408" y="140"/>
      <point x="502" y="244"/>
      <point x="502" y="397" type="curve" smooth="yes"/>
      <point x="502" y="511"/>
      <point x="455" y="601"/>
      <point x="386" y="647" type="curve"/>
      <point x="322" y="555" type="line"/>
      <point x="364" y="511"/>
      <point x="372" y="460"/>
      <point x="372" y="397" type="curve" smooth="yes"/>
      <point x="372" y="287"/>
      <point x="334" y="230"/>
      <point x="273" y="230" type="curve" smooth="yes"/>
      <point x="198" y="230"/>
      <point x="165" y="289"/>
      <point x="165" y="397" type="curve" smooth="yes"/>
      <point x="165" y="461"/>
      <point x="173" y="511"/>
      <point x="212" y="555" type="curve"/>
      <point x="148" y="647" type="line"/>
      <point x="79" y="600"/>
      <point x="35" y="512"/>
      <point x="35" y="397" type="curve" smooth="yes"/>
      <point x="35" y="244"/>
      <point x="123" y="140"/>
    </contour>
  </outline>
</glyph>
<glyph name="_medialNa_mon" format="2">
  <unicode hex="105E"/>
  <note>
_medialNa_mon
</note>
  <outline>
    <contour>
      <point x="-302" y="-270" type="curve" smooth="yes"/>
      <point x="-204" y="-270"/>
      <point x="-166" y="-219"/>
      <point x="-166" y="-126" type="curve" smooth="yes"/>
      <point x="-166" y="108" type="line"/>
      <point x="-275" y="108" type="line"/>
      <point x="-275" y="-135" type="line" smooth="yes"/>
      <point x="-275" y="-166"/>
      <point x="-285" y="-183"/>
      <point x="-307" y="-183" type="curve" smooth="yes"/>
      <point x="-325" y="-183"/>
      <point x="-336" y="-172"/>
      <point x="-336" y="-146" type="curve" smooth="yes"/>
      <point x="-336" y="-110"/>
      <point x="-302" y="-85"/>
      <point x="-252" y="-85" type="curve" smooth="yes"/>
      <point x="-210" y="-85"/>
      <point x="-166" y="-103"/>
      <point x="-105" y="-139" type="curve"/>
      <point x="-50" y="-66" type="line"/>
      <point x="-114" y="-24"/>
      <point x="-176" y="2"/>
      <point x="-250" y="2" type="curve" smooth="yes"/>
      <point x="-354" y="2"/>
      <point x="-438" y="-56"/>
      <point x="-438" y="-142" type="curve" smooth="yes"/>
      <point x="-438" y="-222"/>
      <point x="-388" y="-270"/>
    </contour>
  </outline>
</glyph>
<glyph name="_medialMa_mon" format="2">
  <unicode hex="105F"/>
  <note>
_medialMa_mon
</note>
  <outline>
    <contour>
      <point x="-253" y="-270" type="curve" smooth="yes"/>
      <point x="-187" y="-270"/>
      <point x="-108" y="-244"/>
      <point x="-55" y="-202" type="curve"/>
      <point x="-102" y="-132" type="line"/>
      <point x="-138" y="-155"/>
      <point x="-180" y="-183"/>
      <point x="-249" y="-183" type="curve" smooth="yes"/>
      <point x="-292" y="-183"/>
      <point x="-317" y="-165"/>
      <point x="-317" y="-135" type="curve" smooth="yes"/>
      <point x="-317" y="-106"/>
      <point x="-289" y="-86"/>
      <point x="-249" y="-86" type="curve" smooth="yes"/>
      <point x="-229" y="-86"/>
      <point x="-212" y="-88"/>
      <point x="-184" y="-95" type="curve"/>
      <point x="-184" y="108" type="line"/>
      <point x="-293" y="108" type="line"/>
      <point x="-293" y="2" type="line"/>
      <point x="-370" y="-2"/>
      <point x="-425" y="-59"/>
      <point x="-425" y="-131" type="curve" smooth="yes"/>
      <point x="-425" y="-219"/>
      <point x="-362" y="-270"/>
    </contour>
  </outline>
</glyph>
<glyph name="_medialLa_mon" format="2">
  <unicode hex="1060"/>
  <note>
_medialLa_mon
</note>
  <outline>
    <contour>
      <point x="-433" y="-270" type="line"/>
      <point x="-99" y="-270" type="line"/>
      <point x="-99" y="-162" type="line"/>
      <point x="-221" y="-162" type="line"/>
      <point x="-101" y="106" type="line"/>
      <point x="-256" y="106" type="line"/>
    </contour>
  </outline>
</glyph>
<glyph name="sha_skn" format="2">
  <advance width="570"/>
  <unicode hex="1061"/>
  <note>
sha_skn
</note>
  <outline>
    <contour>
      <point x="398" y="-270" type="line"/>
      <point x="530" y="-270" type="line"/>
      <point x="530" y="393" type="line" smooth="yes"/>
      <point x="530" y="539"/>
      <point x="447" y="647"/>
      <point x="277" y="647" type="curve" smooth="yes"/>
      <point x="125" y="647"/>
      <point x="33" y="542"/>
      <point x="33" y="393" type="curve" smooth="yes"/>
      <point x="33" y="232"/>
      <point x="122" y="140"/>
      <point x="250" y="140" type="curve" smooth="yes"/>
      <point x="291" y="140"/>
      <point x="315" y="149"/>
      <point x="336" y="155" type="curve"/>
      <point x="336" y="334"/>
      <point x="271" y="433"/>
      <point x="134" y="459" type="curve"/>
      <point x="119" y="384" type="line"/>
      <point x="202" y="375"/>
      <point x="242" y="307"/>
      <point x="246" y="200" type="curve"/>
      <point x="286" y="235" type="line"/>
      <point x="273" y="234"/>
      <point x="257" y="234"/>
      <point x="246" y="234" type="curve" smooth="yes"/>
      <point x="172" y="234"/>
      <point x="127" y="298"/>
      <point x="127" y="390" type="curve" smooth="yes"/>
      <point x="127" y="485"/>
      <point x="175" y="548"/>
      <point x="269" y="548" type="curve" smooth="yes"/>
      <point x="356" y="548"/>
      <point x="398" y="484"/>
      <point x="398" y="393" type="curve" smooth="yes"/>
    </contour>
    <contour>
      <point x="128" y="-270" type="line"/>
      <point x="336" y="-270" type="line"/>
      <point x="336" y="155" type="line"/>
      <point x="204" y="155" type="line" smooth="yes"/>
      <point x="204" y="-171" type="line"/>
      <point x="128" y="-171" type="line"/>
    </contour>
  </outline>
</glyph>
<glyph name="eu_skn" format="2">
  <advance width="275"/>
  <unicode hex="1062"/>
  <note>
eu_skn
</note>
  <outline>
    <contour>
      <point x="90" y="149" type="line"/>
      <point x="220" y="149" type="line"/>
      <point x="220" y="640" type="line"/>
      <point x="10" y="640" type="line"/>
      <point x="10" y="532" type="line"/>
      <point x="90" y="532" type="line"/>
    </contour>
  </outline>
</glyph>
<glyph name="hathi_skn" format="2">
  <advance width="515"/>
  <unicode hex="1063"/>
  <note>
hathi_skn
</note>
  <outline>
    <contour>
      <point x="41" y="-270" type="line"/>
      <point x="174" y="-270" type="line"/>
      <point x="174" y="170" type="line"/>
      <point x="41" y="273" type="line"/>
    </contour>
    <contour>
      <point x="243" y="141" type="curve" smooth="yes"/>
      <point x="380" y="141"/>
      <point x="480" y="245"/>
      <point x="480" y="394" type="curve" smooth="yes"/>
      <point x="480" y="541"/>
      <point x="382" y="647"/>
      <point x="243" y="647" type="curve" smooth="yes"/>
      <point x="162" y="647"/>
      <point x="87" y="596"/>
      <point x="54" y="519" type="curve"/>
      <point x="147" y="469" type="line"/>
      <point x="171" y="526"/>
      <point x="203" y="548"/>
      <point x="242" y="548" type="curve" smooth="yes"/>
      <point x="306" y="548"/>
      <point x="348" y="485"/>
      <point x="348" y="394" type="curve" smooth="yes"/>
      <point x="348" y="301"/>
      <point x="304" y="240"/>
      <point x="242" y="240" type="curve" smooth="yes"/>
      <point x="199" y="240"/>
      <point x="165" y="265"/>
      <point x="140" y="318" type="curve"/>
      <point x="40" y="273" type="line"/>
      <point x="76" y="196"/>
      <point x="151" y="141"/>
    </contour>
  </outline>
</glyph>
<glyph name="kepho_skn" format="2">
  <advance width="326"/>
  <unicode hex="1064"/>
  <note>
kepho_skn
</note>
  <outline>
    <contour>
      <point x="98" y="149" type="line"/>
      <point x="309" y="149" type="line"/>
      <point x="309" y="248" type="line"/>
      <point x="230" y="248" type="line"/>
      <point x="230" y="640" type="line"/>
      <point x="18" y="640" type="line"/>
      <point x="18" y="541" type="line"/>
      <point x="98" y="541" type="line"/>
    </contour>
  </outline>
</glyph>
<glyph name="tha_wpk" format="2">
  <advance width="540"/>
  <unicode hex="1065"/>
  <note>
tha_wpk
</note>
  <outline>
    <contour>
      <point x="249" y="140" type="curve" smooth="yes"/>
      <point x="403" y="140"/>
      <point x="505" y="240"/>
      <point x="505" y="388" type="curve" smooth="yes"/>
      <point x="505" y="545"/>
      <point x="407" y="647"/>
      <point x="259" y="647" type="curve" smooth="yes"/>
      <point x="158" y="647"/>
      <point x="84" y="595"/>
      <point x="51" y="519" type="curve"/>
      <point x="142" y="469" type="line"/>
      <point x="168" y="525"/>
      <point x="200" y="552"/>
      <point x="259" y="552" type="curve" smooth="yes"/>
      <point x="334" y="552"/>
      <point x="373" y="491"/>
      <point x="373" y="388" type="curve" smooth="yes"/>
      <point x="373" y="298"/>
      <point x="337" y="235"/>
      <point x="259" y="235" type="curve" smooth="yes"/>
      <point x="204" y="235"/>
      <point x="170" y="262"/>
      <point x="138" y="320" type="curve"/>
      <point x="35" y="273" type="line"/>
      <point x="75" y="195"/>
      <point x="148" y="140"/>
    </contour>
  </outline>
</glyph>
<glyph name="pwa_wpk" format="2">
  <advance width="522"/>
  <unicode hex="1066"/>
  <note>
pwa_wpk
</note>
  <outline>
    <contour>
      <point x="269" y="140" type="curve" smooth="yes"/>
      <point x="417" y="140"/>
      <point x="503" y="244"/>
      <point x="503" y="397" type="curve" smooth="yes"/>
      <point x="503" y="512"/>
      <point x="456" y="603"/>
      <point x="389" y="647" type="curve"/>
      <point x="325" y="555" type="line"/>
      <point x="363" y="511"/>
      <point x="372" y="460"/>
      <point x="372" y="397" type="curve" smooth="yes"/>
      <point x="372" y="304"/>
      <point x="342" y="239"/>
      <point x="268" y="239" type="curve" smooth="yes"/>
      <point x="199" y="239"/>
      <point x="167" y="302"/>
      <point x="167" y="397" type="curve" smooth="yes"/>
      <point x="167" y="461"/>
      <point x="175" y="511"/>
      <point x="213" y="555" type="curve"/>
      <point x="149" y="647" type="line"/>
      <point x="82" y="603"/>
      <point x="35" y="514"/>
      <point x="35" y="397" type="curve" smooth="yes"/>
      <point x="35" y="244"/>
      <point x="119" y="140"/>
    </contour>
    <contour>
      <point x="134" y="-270" type="line"/>
      <point x="344" y="-270" type="line"/>
      <point x="344" y="162" type="line"/>
      <point x="212" y="159" type="line"/>
      <point x="212" y="-162" type="line"/>
      <point x="134" y="-162" type="line"/>
    </contour>
  </outline>
</glyph>
<glyph name="eu_wpk" format="2">
  <advance width="336"/>
  <unicode hex="1067"/>
  <note>
eu_wpk
</note>
  <outline>
    <contour>
      <point x="147" y="140" type="curve" smooth="yes"/>
      <point x="228" y="140"/>
      <point x="282" y="189"/>
      <point x="282" y="277" type="curve" smooth="yes"/>
      <point x="282" y="359"/>
      <point x="228" y="414"/>
      <point x="147" y="414" type="curve" smooth="yes"/>
      <point x="66" y="414"/>
      <point x="13" y="363"/>
      <point x="13" y="277" type="curve" smooth="yes"/>
      <point x="13" y="189"/>
      <point x="67" y="140"/>
    </contour>
    <contour>
      <point x="147" y="223" type="curve" smooth="yes"/>
      <point x="121" y="223"/>
      <point x="107" y="244"/>
      <point x="107" y="277" type="curve" smooth="yes"/>
      <point x="107" y="311"/>
      <point x="124" y="330"/>
      <point x="147" y="330" type="curve" smooth="yes"/>
      <point x="171" y="330"/>
      <point x="188" y="311"/>
      <point x="188" y="277" type="curve" smooth="yes"/>
      <point x="188" y="244"/>
      <point x="174" y="223"/>
    </contour>
    <contour>
      <point x="282" y="277" type="line"/>
      <point x="282" y="638" type="line"/>
      <point x="160" y="638" type="line"/>
      <point x="160" y="406" type="line"/>
    </contour>
  </outline>
</glyph>
<glyph name="ue_wpk" format="2">
  <advance width="320"/>
  <unicode hex="1068"/>
  <note>
ue_wpk
</note>
  <outline>
    <contour>
      <point x="18" y="149" type="line"/>
      <point x="229" y="149" type="line"/>
      <point x="229" y="640" type="line"/>
      <point x="97" y="640" type="line"/>
      <point x="97" y="248" type="line"/>
      <point x="18" y="248" type="line"/>
    </contour>
    <contour>
      <point x="160" y="728" type="curve" smooth="yes"/>
      <point x="220" y="728"/>
      <point x="263" y="766"/>
      <point x="263" y="832" type="curve" smooth="yes"/>
      <point x="263" y="892"/>
      <point x="222" y="934"/>
      <point x="160" y="934" type="curve" smooth="yes"/>
      <point x="97" y="934"/>
      <point x="59" y="895"/>
      <point x="59" y="831" type="curve" smooth="yes"/>
      <point x="59" y="766"/>
      <point x="100" y="728"/>
    </contour>
    <contour>
      <point x="161" y="790" type="curve" smooth="yes"/>
      <point x="142" y="790"/>
      <point x="130" y="806"/>
      <point x="130" y="831" type="curve" smooth="yes"/>
      <point x="130" y="857"/>
      <point x="143" y="871"/>
      <point x="161" y="871" type="curve" smooth="yes"/>
      <point x="179" y="871"/>
      <point x="192" y="857"/>
      <point x="192" y="831" type="curve" smooth="yes"/>
      <point x="192" y="806"/>
      <point x="179" y="790"/>
    </contour>
  </outline>
</glyph>
<glyph name="tone1_wpk" format="2">
  <advance width="354"/>
  <unicode hex="1069"/>
  <note>
tone1_wpk
</note>
  <outline>
    <contour>
      <point x="166" y="139" type="curve" smooth="yes"/>
      <point x="230" y="139"/>
      <point x="277" y="158"/>
      <point x="326" y="216" type="curve"/>
      <point x="255" y="283" type="line"/>
      <point x="231" y="262"/>
      <point x="213" y="243"/>
      <point x="184" y="243" type="curve" smooth="yes"/>
      <point x="168" y="243"/>
      <point x="157" y="253"/>
      <point x="157" y="271" type="curve" smooth="yes"/>
      <point x="157" y="295"/>
      <point x="176" y="318"/>
      <point x="203" y="340" type="curve" smooth="yes"/>
      <point x="285" y="405"/>
      <point x="315" y="450"/>
      <point x="315" y="515" type="curve" smooth="yes"/>
      <point x="315" y="592"/>
      <point x="262" y="647"/>
      <point x="174" y="647" type="curve" smooth="yes"/>
      <point x="108" y="647"/>
      <point x="66" y="625"/>
      <point x="30" y="588" type="curve"/>
      <point x="95" y="511" type="line"/>
      <point x="116" y="532"/>
      <point x="136" y="543"/>
      <point x="153" y="543" type="curve" smooth="yes"/>
      <point x="172" y="543"/>
      <point x="183" y="532"/>
      <point x="183" y="514" type="curve" smooth="yes"/>
      <point x="183" y="494"/>
      <point x="167" y="470"/>
      <point x="137" y="447" type="curve" smooth="yes"/>
      <point x="58" y="385"/>
      <point x="25" y="336"/>
      <point x="25" y="271" type="curve" smooth="yes"/>
      <point x="25" y="194"/>
      <point x="82" y="139"/>
    </contour>
  </outline>
</glyph>
<glyph name="tone2_wpk" format="2">
  <advance width="359"/>
  <unicode hex="106A"/>
  <note>
tone2_wpk
</note>
  <outline>
    <contour>
      <point x="151" y="140" type="curve" smooth="yes"/>
      <point x="252" y="140"/>
      <point x="304" y="196"/>
      <point x="304" y="293" type="curve" smooth="yes"/>
      <point x="304" y="638" type="line"/>
      <point x="182" y="638" type="line"/>
      <point x="182" y="298" type="line" smooth="yes"/>
      <point x="182" y="264"/>
      <point x="174" y="239"/>
      <point x="153" y="239" type="curve" smooth="yes"/>
      <point x="129" y="239"/>
      <point x="121" y="263"/>
      <point x="121" y="308" type="curve"/>
      <point x="6" y="308" type="line"/>
      <point x="6" y="200"/>
      <point x="53" y="140"/>
    </contour>
  </outline>
</glyph>
<glyph name="tone3_wpk" format="2">
  <advance width="359"/>
  <unicode hex="106B"/>
  <note>
tone3_wpk
</note>
  <outline>
    <contour>
      <point x="182" y="149" type="line"/>
      <point x="304" y="149" type="line"/>
      <point x="304" y="494" type="line" smooth="yes"/>
      <point x="304" y="591"/>
      <point x="252" y="647"/>
      <point x="151" y="647" type="curve" smooth="yes"/>
      <point x="53" y="647"/>
      <point x="6" y="586"/>
      <point x="6" y="478" type="curve"/>
      <point x="121" y="478" type="line"/>
      <point x="121" y="523"/>
      <point x="129" y="548"/>
      <point x="153" y="548" type="curve" smooth="yes"/>
      <point x="174" y="548"/>
      <point x="182" y="523"/>
      <point x="182" y="489" type="curve" smooth="yes"/>
    </contour>
  </outline>
</glyph>
<glyph name="tone4_wpk" format="2">
  <advance width="359"/>
  <unicode hex="106C"/>
  <note>
tone4_wpk
</note>
  <outline>
    <contour>
      <point x="208" y="140" type="curve" smooth="yes"/>
      <point x="306" y="140"/>
      <point x="353" y="200"/>
      <point x="353" y="308" type="curve"/>
      <point x="238" y="308" type="line"/>
      <point x="238" y="263"/>
      <point x="230" y="239"/>
      <point x="206" y="239" type="curve" smooth="yes"/>
      <point x="185" y="239"/>
      <point x="177" y="264"/>
      <point x="177" y="298" type="curve" smooth="yes"/>
      <point x="177" y="638" type="line"/>
      <point x="55" y="638" type="line"/>
      <point x="55" y="293" type="line" smooth="yes"/>
      <point x="55" y="196"/>
      <point x="107" y="140"/>
    </contour>
  </outline>
</glyph>
<glyph name="tone5_wpk" format="2">
  <advance width="354"/>
  <unicode hex="106D"/>
  <note>
tone5_wpk
</note>
  <outline>
    <contour>
      <point x="188" y="139" type="curve" smooth="yes"/>
      <point x="272" y="139"/>
      <point x="329" y="194"/>
      <point x="329" y="271" type="curve" smooth="yes"/>
      <point x="329" y="336"/>
      <point x="296" y="385"/>
      <point x="217" y="447" type="curve" smooth="yes"/>
      <point x="187" y="470"/>
      <point x="171" y="494"/>
      <point x="171" y="514" type="curve" smooth="yes"/>
      <point x="171" y="532"/>
      <point x="182" y="543"/>
      <point x="201" y="543" type="curve" smooth="yes"/>
      <point x="218" y="543"/>
      <point x="238" y="532"/>
      <point x="259" y="511" type="curve"/>
      <point x="324" y="588" type="line"/>
      <point x="288" y="625"/>
      <point x="246" y="647"/>
      <point x="180" y="647" type="curve" smooth="yes"/>
      <point x="92" y="647"/>
      <point x="39" y="592"/>
      <point x="39" y="515" type="curve" smooth="yes"/>
      <point x="39" y="450"/>
      <point x="69" y="405"/>
      <point x="151" y="340" type="curve" smooth="yes"/>
      <point x="178" y="318"/>
      <point x="197" y="295"/>
      <point x="197" y="271" type="curve" smooth="yes"/>
      <point x="197" y="253"/>
      <point x="186" y="243"/>
      <point x="170" y="243" type="curve" smooth="yes"/>
      <point x="141" y="243"/>
      <point x="123" y="262"/>
      <point x="99" y="283" type="curve"/>
      <point x="28" y="216" type="line"/>
      <point x="77" y="158"/>
      <point x="124" y="139"/>
    </contour>
  </outline>
</glyph>
<glyph name="nna_epk" format="2">
  <advance width="1053"/>
  <unicode hex="106E"/>
  <note>
nna_epk
</note>
  <outline>
    <contour>
      <point x="148" y="140" type="curve"/>
      <point x="211" y="232" type="line"/>
      <point x="175" y="276"/>
      <point x="167" y="325"/>
      <point x="167" y="389" type="curve" smooth="yes"/>
      <point x="167" y="486"/>
      <point x="196" y="548"/>
      <point x="262" y="548" type="curve" smooth="yes"/>
      <point x="328" y="548"/>
      <point x="358" y="487"/>
      <point x="358" y="389" type="curve" smooth="yes"/>
      <point x="358" y="326"/>
      <point x="346" y="272"/>
      <point x="300" y="232" type="curve"/>
      <point x="363" y="140" type="line"/>
      <point x="439" y="188"/>
      <point x="475" y="274"/>
      <point x="475" y="390" type="curve" smooth="yes"/>
      <point x="475" y="541"/>
      <point x="400" y="647"/>
      <point x="257" y="647" type="curve" smooth="yes"/>
      <point x="112" y="647"/>
      <point x="35" y="542"/>
      <point x="35" y="390" type="curve" smooth="yes"/>
      <point x="35" y="273"/>
      <point x="82" y="184"/>
    </contour>
    <contour>
      <point x="579" y="140" type="line"/>
      <point x="655" y="188"/>
      <point x="691" y="274"/>
      <point x="691" y="390" type="curve" smooth="yes"/>
      <point x="691" y="541"/>
      <point x="616" y="647"/>
      <point x="473" y="647" type="curve" smooth="yes"/>
      <point x="395" y="647"/>
      <point x="355" y="610"/>
      <point x="335" y="592" type="curve"/>
      <point x="408" y="511" type="line"/>
      <point x="424" y="533"/>
      <point x="444" y="548"/>
      <point x="478" y="548" type="curve" smooth="yes"/>
      <point x="544" y="548"/>
      <point x="574" y="487"/>
      <point x="574" y="389" type="curve" smooth="yes"/>
      <point x="574" y="326"/>
      <point x="562" y="272"/>
      <point x="516" y="232" type="curve"/>
    </contour>
    <contour>
      <point x="818" y="140" type="curve" smooth="yes"/>
      <point x="928" y="140"/>
      <point x="1018" y="244"/>
      <point x="1018" y="393" type="curve" smooth="yes"/>
      <point x="1018" y="540"/>
      <point x="933" y="647"/>
      <point x="790" y="647" type="curve" smooth="yes"/>
      <point x="726" y="647"/>
      <point x="666" y="613"/>
      <point x="629" y="547" type="curve"/>
      <point x="685" y="443" type="line"/>
      <point x="694" y="503"/>
      <point x="725" y="548"/>
      <point x="782" y="548" type="curve" smooth="yes"/>
      <point x="854" y="548"/>
      <point x="886" y="487"/>
      <point x="886" y="393" type="curve" smooth="yes"/>
      <point x="886" y="299"/>
      <point x="856" y="239"/>
      <point x="807" y="239" type="curve" smooth="yes"/>
      <point x="790" y="239"/>
      <point x="767" y="244"/>
      <point x="754" y="254" type="curve"/>
      <point x="711" y="167" type="line"/>
      <point x="736" y="148"/>
      <point x="786" y="140"/>
    </contour>
  </outline>
</glyph>
<glyph name="ghwa_epk" format="2">
  <advance width="836"/>
  <unicode hex="1070"/>
  <note>
ghwa_epk
</note>
  <outline>
    <contour>
      <point x="248" y="140" type="curve" smooth="yes"/>
      <point x="408" y="140"/>
      <point x="474" y="241"/>
      <point x="474" y="397" type="curve" smooth="yes"/>
      <point x="474" y="511"/>
      <point x="432" y="594"/>
      <point x="363" y="647" type="curve"/>
      <point x="300" y="555" type="line"/>
      <point x="346" y="511"/>
      <point x="357" y="460"/>
      <point x="357" y="397" type="curve" smooth="yes"/>
      <point x="357" y="300"/>
      <point x="329" y="239"/>
      <point x="254" y="239" type="curve" smooth="yes"/>
      <point x="201" y="239"/>
      <point x="167" y="271"/>
      <point x="167" y="325" type="curve" smooth="yes"/>
      <point x="167" y="356"/>
      <point x="173" y="386"/>
      <point x="202" y="424" type="curve" smooth="yes"/>
      <point x="233" y="463"/>
      <point x="261" y="493"/>
      <point x="261" y="540" type="curve" smooth="yes"/>
      <point x="261" y="599"/>
      <point x="220" y="647"/>
      <point x="144" y="647" type="curve" smooth="yes"/>
      <point x="96" y="647"/>
      <point x="45" y="625"/>
      <point x="18" y="578" type="curve"/>
      <point x="70" y="517" type="line"/>
      <point x="84" y="535"/>
      <point x="101" y="548"/>
      <point x="123" y="548" type="curve" smooth="yes"/>
      <point x="137" y="548"/>
      <point x="147" y="539"/>
      <point x="147" y="525" type="curve" smooth="yes"/>
      <point x="147" y="505"/>
      <point x="124" y="496"/>
      <point x="95" y="464" type="curve" smooth="yes"/>
      <point x="58" y="424"/>
      <point x="35" y="376"/>
      <point x="35" y="321" type="curve" smooth="yes"/>
      <point x="35" y="212"/>
      <point x="120" y="140"/>
    </contour>
    <contour>
      <point x="451" y="-270" type="line"/>
      <point x="661" y="-270" type="line"/>
      <point x="661" y="169" type="line"/>
      <point x="529" y="156" type="line"/>
      <point x="529" y="-171" type="line"/>
      <point x="451" y="-171" type="line"/>
    </contour>
    <contour>
      <point x="581" y="140" type="curve" smooth="yes"/>
      <point x="712" y="140"/>
      <point x="801" y="245"/>
      <point x="801" y="393" type="curve" smooth="yes"/>
      <point x="801" y="543"/>
      <point x="736" y="647"/>
      <point x="598" y="647" type="curve" smooth="yes"/>
      <point x="548" y="647"/>
      <point x="522" y="636"/>
      <point x="497" y="620" type="curve"/>
      <point x="539" y="532" type="line"/>
      <point x="555" y="544"/>
      <point x="571" y="548"/>
      <point x="591" y="548" type="curve" smooth="yes"/>
      <point x="638" y="548"/>
      <point x="669" y="487"/>
      <point x="669" y="394" type="curve" smooth="yes"/>
      <point x="669" y="300"/>
      <point x="634" y="235"/>
      <point x="575" y="235" type="curve" smooth="yes"/>
      <point x="520" y="235"/>
      <point x="483" y="273"/>
      <point x="444" y="337" type="curve"/>
      <point x="391" y="235" type="line"/>
      <point x="441" y="179"/>
      <point x="494" y="140"/>
    </contour>
  </outline>
</glyph>
<glyph name="i_gkn" format="2">
  <unicode hex="1071"/>
  <note>
i_gkn
</note>
  <outline>
    <contour>
      <point x="-150" y="772" type="curve" smooth="yes"/>
      <point x="-90" y="772"/>
      <point x="-48" y="809"/>
      <point x="-48" y="876" type="curve" smooth="yes"/>
      <point x="-48" y="937"/>
      <point x="-88" y="978"/>
      <point x="-150" y="978" type="curve" smooth="yes"/>
      <point x="-213" y="978"/>
      <point x="-251" y="939"/>
      <point x="-251" y="875" type="curve" smooth="yes"/>
      <point x="-251" y="809"/>
      <point x="-210" y="772"/>
    </contour>
    <contour>
      <point x="-150" y="834" type="curve" smooth="yes"/>
      <point x="-169" y="834"/>
      <point x="-179" y="850"/>
      <point x="-179" y="875" type="curve" smooth="yes"/>
      <point x="-179" y="901"/>
      <point x="-170" y="915"/>
      <point x="-150" y="915" type="curve" smooth="yes"/>
      <point x="-133" y="915"/>
      <point x="-121" y="901"/>
      <point x="-121" y="875" type="curve" smooth="yes"/>
      <point x="-121" y="850"/>
      <point x="-133" y="834"/>
    </contour>
    <contour>
      <point x="-430" y="772" type="curve" smooth="yes"/>
      <point x="-370" y="772"/>
      <point x="-328" y="809"/>
      <point x="-328" y="876" type="curve" smooth="yes"/>
      <point x="-328" y="937"/>
      <point x="-368" y="978"/>
      <point x="-430" y="978" type="curve" smooth="yes"/>
      <point x="-493" y="978"/>
      <point x="-531" y="939"/>
      <point x="-531" y="875" type="curve" smooth="yes"/>
      <point x="-531" y="809"/>
      <point x="-490" y="772"/>
    </contour>
    <contour>
      <point x="-430" y="834" type="curve" smooth="yes"/>
      <point x="-449" y="834"/>
      <point x="-459" y="850"/>
      <point x="-459" y="875" type="curve" smooth="yes"/>
      <point x="-459" y="901"/>
      <point x="-450" y="915"/>
      <point x="-430" y="915" type="curve" smooth="yes"/>
      <point x="-413" y="915"/>
      <point x="-401" y="901"/>
      <point x="-401" y="875" type="curve" smooth="yes"/>
      <point x="-401" y="850"/>
      <point x="-413" y="834"/>
    </contour>
  </outline>
</glyph>
<glyph name="oe_kyh" format="2">
  <unicode hex="1072"/>
  <note>
oe_kyh
</note>
  <outline>
    <contour>
      <point x="-230" y="712" type="curve" smooth="yes"/>
      <point x="-161" y="712"/>
      <point x="-115" y="748"/>
      <point x="-93" y="798" type="curve"/>
      <point x="-175" y="838" type="line"/>
      <point x="-184" y="820"/>
      <point x="-202" y="799"/>
      <point x="-227" y="799" type="curve" smooth="yes"/>
      <point x="-263" y="799"/>
      <point x="-280" y="836"/>
      <point x="-280" y="883" type="curve" smooth="yes"/>
      <point x="-280" y="930"/>
      <point x="-262" y="968"/>
      <point x="-227" y="968" type="curve" smooth="yes"/>
      <point x="-206" y="968"/>
      <point x="-191" y="959"/>
      <point x="-175" y="925" type="curve"/>
      <point x="-101" y="969" type="line"/>
      <point x="-125" y="1021"/>
      <point x="-170" y="1054"/>
      <point x="-231" y="1054" type="curve" smooth="yes"/>
      <point x="-319" y="1054"/>
      <point x="-380" y="982"/>
      <point x="-380" y="883" type="curve" smooth="yes"/>
      <point x="-380" y="781"/>
      <point x="-330" y="712"/>
    </contour>
  </outline>
</glyph>
<glyph name="u_kyh" format="2">
  <unicode hex="1073"/>
  <note>
u_kyh
</note>
  <outline>
    <contour>
      <point x="-371" y="712" type="line"/>
      <point x="-215" y="888" type="line"/>
      <point x="-61" y="712" type="line"/>
      <point x="1" y="778" type="line"/>
      <point x="-215" y="1025" type="line"/>
      <point x="-432" y="778" type="line"/>
    </contour>
  </outline>
</glyph>
<glyph name="ee_kyh" format="2">
  <unicode hex="1074"/>
  <note>
ee_kyh
</note>
  <outline>
    <contour>
      <point x="-215" y="712" type="line"/>
      <point x="1" y="958" type="line"/>
      <point x="-61" y="1025" type="line"/>
      <point x="-215" y="848" type="line"/>
      <point x="-371" y="1025" type="line"/>
      <point x="-432" y="958" type="line"/>
    </contour>
  </outline>
</glyph>
<glyph name="ka_shn" format="2">
  <advance width="529"/>
  <unicode hex="1075"/>
  <note>
ka_shn
</note>
  <outline>
    <contour>
      <point x="144" y="140" type="curve" smooth="yes"/>
      <point x="220" y="140"/>
      <point x="261" y="188"/>
      <point x="261" y="247" type="curve" smooth="yes"/>
      <point x="261" y="294"/>
      <point x="233" y="324"/>
      <point x="202" y="363" type="curve" smooth="yes"/>
      <point x="173" y="401"/>
      <point x="167" y="431"/>
      <point x="167" y="461" type="curve" smooth="yes"/>
      <point x="167" y="515"/>
      <point x="203" y="548"/>
      <point x="259" y="548" type="curve" smooth="yes"/>
      <point x="334" y="548"/>
      <point x="362" y="487"/>
      <point x="362" y="390" type="curve" smooth="yes"/>
      <point x="362" y="327"/>
      <point x="353" y="276"/>
      <point x="315" y="232" type="curve"/>
      <point x="378" y="140" type="line"/>
      <point x="448" y="186"/>
      <point x="494" y="276"/>
      <point x="494" y="390" type="curve" smooth="yes"/>
      <point x="494" y="542"/>
      <point x="419" y="647"/>
      <point x="261" y="647" type="curve" smooth="yes"/>
      <point x="122" y="647"/>
      <point x="35" y="575"/>
      <point x="35" y="466" type="curve" smooth="yes"/>
      <point x="35" y="411"/>
      <point x="58" y="362"/>
      <point x="95" y="323" type="curve" smooth="yes"/>
      <point x="124" y="291"/>
      <point x="147" y="282"/>
      <point x="147" y="262" type="curve" smooth="yes"/>
      <point x="147" y="248"/>
      <point x="137" y="239"/>
      <point x="123" y="239" type="curve" smooth="yes"/>
      <point x="101" y="239"/>
      <point x="84" y="252"/>
      <point x="70" y="270" type="curve"/>
      <point x="18" y="208" type="line"/>
      <point x="45" y="162"/>
      <point x="96" y="140"/>
    </contour>
  </outline>
</glyph>
<glyph name="kha_shn" format="2">
  <advance width="533"/>
  <unicode hex="1076"/>
  <note>
kha_shn
</note>
  <outline>
    <contour>
      <point x="271" y="140" type="curve" smooth="yes"/>
      <point x="403" y="140"/>
      <point x="498" y="239"/>
      <point x="498" y="394" type="curve" smooth="yes"/>
      <point x="498" y="538"/>
      <point x="437" y="646"/>
      <point x="321" y="646" type="curve" smooth="yes"/>
      <point x="259" y="646"/>
      <point x="223" y="618"/>
      <point x="192" y="570" type="curve" smooth="yes"/>
      <point x="174" y="543"/>
      <point x="162" y="531"/>
      <point x="147" y="531" type="curve" smooth="yes"/>
      <point x="134" y="531"/>
      <point x="128" y="539"/>
      <point x="128" y="555" type="curve" smooth="yes"/>
      <point x="128" y="568"/>
      <point x="132" y="580"/>
      <point x="142" y="594" type="curve"/>
      <point x="75" y="645" type="line"/>
      <point x="51" y="616"/>
      <point x="35" y="582"/>
      <point x="35" y="548" type="curve" smooth="yes"/>
      <point x="35" y="485"/>
      <point x="76" y="446"/>
      <point x="134" y="446" type="curve" smooth="yes"/>
      <point x="175" y="446"/>
      <point x="212" y="462"/>
      <point x="238" y="499" type="curve" smooth="yes"/>
      <point x="257" y="525"/>
      <point x="270" y="549"/>
      <point x="298" y="549" type="curve" smooth="yes"/>
      <point x="343" y="549"/>
      <point x="369" y="487"/>
      <point x="369" y="394" type="curve" smooth="yes"/>
      <point x="369" y="300"/>
      <point x="349" y="235"/>
      <point x="265" y="235" type="curve" smooth="yes"/>
      <point x="222" y="235"/>
      <point x="177" y="258"/>
      <point x="164" y="292" type="curve"/>
      <point x="198" y="313"/>
      <point x="232" y="325"/>
      <point x="262" y="325" type="curve" smooth="yes"/>
      <point x="303" y="325"/>
      <point x="340" y="310"/>
      <point x="377" y="280" type="curve"/>
      <point x="393" y="354" type="line"/>
      <point x="341" y="393"/>
      <point x="300" y="406"/>
      <point x="253" y="406" type="curve" smooth="yes"/>
      <point x="170" y="406"/>
      <point x="104" y="380"/>
      <point x="42" y="334" type="curve"/>
      <point x="54" y="215"/>
      <point x="145" y="140"/>
    </contour>
  </outline>
</glyph>
<glyph name="ga_shn" format="2">
  <advance width="538"/>
  <unicode hex="1077"/>
  <note>
ga_shn
</note>
  <outline>
    <contour>
      <point x="134" y="140" type="curve" smooth="yes"/>
      <point x="204" y="140"/>
      <point x="241" y="188"/>
      <point x="241" y="247" type="curve" smooth="yes"/>
      <point x="241" y="294"/>
      <point x="222" y="332"/>
      <point x="201" y="365" type="curve" smooth="yes"/>
      <point x="173" y="409"/>
      <point x="167" y="431"/>
      <point x="167" y="461" type="curve" smooth="yes"/>
      <point x="167" y="515"/>
      <point x="207" y="548"/>
      <point x="273" y="548" type="curve" smooth="yes"/>
      <point x="350" y="548"/>
      <point x="399" y="478"/>
      <point x="399" y="388" type="curve" smooth="yes"/>
      <point x="399" y="338"/>
      <point x="395" y="298"/>
      <point x="368" y="261" type="curve"/>
      <point x="354" y="294"/>
      <point x="346" y="331"/>
      <point x="346" y="380" type="curve" smooth="yes"/>
      <point x="346" y="427"/>
      <point x="356" y="477"/>
      <point x="372" y="520" type="curve"/>
      <point x="308" y="558" type="line"/>
      <point x="284" y="505"/>
      <point x="277" y="446"/>
      <point x="277" y="381" type="curve" smooth="yes"/>
      <point x="277" y="287"/>
      <point x="311" y="211"/>
      <point x="358" y="140" type="curve"/>
      <point x="446" y="184"/>
      <point x="503" y="279"/>
      <point x="503" y="390" type="curve" smooth="yes"/>
      <point x="503" y="543"/>
      <point x="418" y="647"/>
      <point x="258" y="647" type="curve" smooth="yes"/>
      <point x="115" y="647"/>
      <point x="35" y="573"/>
      <point x="35" y="466" type="curve" smooth="yes"/>
      <point x="35" y="411"/>
      <point x="58" y="362"/>
      <point x="92" y="322" type="curve" smooth="yes"/>
      <point x="118" y="291"/>
      <point x="137" y="282"/>
      <point x="137" y="262" type="curve" smooth="yes"/>
      <point x="137" y="248"/>
      <point x="127" y="239"/>
      <point x="113" y="239" type="curve" smooth="yes"/>
      <point x="95" y="239"/>
      <point x="81" y="252"/>
      <point x="70" y="270" type="curve"/>
      <point x="18" y="208" type="line"/>
      <point x="43" y="162"/>
      <point x="90" y="140"/>
    </contour>
  </outline>
</glyph>
<glyph name="za_shn" format="2">
  <advance width="836"/>
  <unicode hex="1079"/>
  <note>
za_shn
</note>
  <outline>
    <contour>
      <point x="252" y="140" type="curve" smooth="yes"/>
      <point x="298" y="140"/>
      <point x="325" y="153"/>
      <point x="348" y="161" type="curve"/>
      <point x="345" y="335"/>
      <point x="280" y="438"/>
      <point x="136" y="459" type="curve"/>
      <point x="121" y="384" type="line"/>
      <point x="211" y="379"/>
      <point x="244" y="310"/>
      <point x="258" y="206" type="curve"/>
      <point x="288" y="235" type="line"/>
      <point x="275" y="234"/>
      <point x="259" y="234"/>
      <point x="248" y="234" type="curve" smooth="yes"/>
      <point x="193" y="234"/>
      <point x="159" y="298"/>
      <point x="159" y="388" type="curve" smooth="yes"/>
      <point x="159" y="478"/>
      <point x="196" y="547"/>
      <point x="264" y="547" type="curve" smooth="yes"/>
      <point x="334" y="547"/>
      <point x="365" y="505"/>
      <point x="379" y="443" type="curve"/>
      <point x="423" y="549" type="line"/>
      <point x="398" y="604"/>
      <point x="344" y="647"/>
      <point x="255" y="647" type="curve" smooth="yes"/>
      <point x="108" y="647"/>
      <point x="35" y="533"/>
      <point x="35" y="393" type="curve" smooth="yes"/>
      <point x="35" y="232"/>
      <point x="124" y="140"/>
    </contour>
    <contour>
      <point x="582" y="140" type="curve" smooth="yes"/>
      <point x="703" y="140"/>
      <point x="801" y="244"/>
      <point x="801" y="393" type="curve" smooth="yes"/>
      <point x="801" y="541"/>
      <point x="723" y="647"/>
      <point x="570" y="647" type="curve" smooth="yes"/>
      <point x="423" y="647"/>
      <point x="365" y="536"/>
      <point x="365" y="392" type="curve" smooth="yes"/>
      <point x="365" y="244"/>
      <point x="435" y="140"/>
    </contour>
    <contour>
      <point x="576" y="239" type="curve" smooth="yes"/>
      <point x="513" y="239"/>
      <point x="481" y="301"/>
      <point x="481" y="391" type="curve" smooth="yes"/>
      <point x="481" y="487"/>
      <point x="507" y="548"/>
      <point x="571" y="548" type="curve" smooth="yes"/>
      <point x="635" y="548"/>
      <point x="669" y="486"/>
      <point x="669" y="393" type="curve" smooth="yes"/>
      <point x="669" y="301"/>
      <point x="631" y="239"/>
    </contour>
  </outline>
</glyph>
